SplineFontDB: 3.0
FontName: AnkaCoder-bi
FullName: Anka/Coder Bold Italic
FamilyName: Anka/Coder
Weight: Bold
Copyright: Copyright (c) 2010, Andrey Makarov (makarov@bmstu.ru, mka-at-mailru@mail.ru),\nwith Reserved Font Name Anka/Coder.\n---------------------------------\nThe Anka/* are members of Anna Shugol name font family; March 2010
Version: 001.100
ItalicAngle: -12
UnderlinePosition: -292
UnderlineWidth: 150
Ascent: 1638
Descent: 410
LayerCount: 2
Layer: 0 0 "Back"  1
Layer: 1 0 "Fore"  0
NeedsXUIDChange: 1
XUID: [1021 77 1780377344 6776666]
UseXUID: 1
BaseHoriz: 0
FSType: 8
OS2Version: 1
OS2_WeightWidthSlopeOnly: 0
OS2_UseTypoMetrics: 1
CreationTime: 1260467214
ModificationTime: 1351159917
PfmFamily: 49
TTFWeight: 700
TTFWidth: 5
LineGap: 0
VLineGap: 0
Panose: 2 11 8 9 2 5 2 2 2 4
OS2TypoAscent: 0
OS2TypoAOffset: 1
OS2TypoDescent: 0
OS2TypoDOffset: 1
OS2TypoLinegap: 0
OS2WinAscent: 0
OS2WinAOffset: 1
OS2WinDescent: 0
OS2WinDOffset: 1
HheadAscent: 0
HheadAOffset: 1
HheadDescent: 0
HheadDOffset: 1
OS2SubXSize: 553
OS2SubYSize: 1229
OS2SubXOff: 0
OS2SubYOff: 283
OS2SupXSize: 553
OS2SupYSize: 1229
OS2SupXOff: 0
OS2SupYOff: 977
OS2StrikeYSize: 102
OS2StrikeYPos: 530
OS2FamilyClass: 1285
OS2Vendor: 'AVM1'
OS2CodePages: 40000097.cfd60000
OS2UnicodeRanges: 800002ef.000079eb.00000000.00000000
MacStyle: 3
DEI: 91125
ShortTable: maxp 16
  0
  0
  0
  0
  0
  0
  0
  2
  1
  0
  9
  0
  256
  0
  0
  0
EndShort
TtTable: prep
PUSHW_1
 511
SCANCTRL
SVTCA[y-axis]
MPPEM
PUSHB_1
 8
LT
IF
PUSHB_2
 1
 1
INSTCTRL
EIF
PUSHB_2
 70
 6
CALL
IF
POP
PUSHB_1
 16
EIF
MPPEM
PUSHB_1
 20
GT
IF
POP
PUSHB_1
 128
EIF
SCVTCI
PUSHB_1
 6
CALL
NOT
IF
EIF
EndTTInstrs
TtTable: fpgm
PUSHB_1
 0
FDEF
PUSHB_1
 0
SZP0
MPPEM
PUSHB_1
 42
LT
IF
PUSHB_1
 74
SROUND
EIF
PUSHB_1
 0
SWAP
MIAP[rnd]
RTG
PUSHB_1
 6
CALL
IF
RTDG
EIF
MPPEM
PUSHB_1
 42
LT
IF
RDTG
EIF
DUP
MDRP[rp0,rnd,grey]
PUSHB_1
 1
SZP0
MDAP[no-rnd]
RTG
ENDF
PUSHB_1
 1
FDEF
DUP
DUP
MDRP[rp0,min,white]
MDAP[rnd]
PUSHB_1
 7
CALL
NOT
IF
DUP
DUP

StartChar: exclam
Encoding: 33 33 1
Width: 1229
VWidth: 1708
GlyphClass: 2
Flags: W
HStem: -136 390<392.172 637.441>
VStem: 320 390<-63.0881 181.919> 645 250<1198.62 1361.57>
LayerCount: 2
Fore
SplineSet
710 59 m 0xc0
 710 -44 629 -136 514 -136 c 0
 402 -136 320 -46 320 59 c 0
 320 161 396 254 514 254 c 0
 628 254 710 164 710 59 c 0xc0
798 1429 m 3
 854 1429 895 1385 895 1309 c 3
 895 1292 893 1274 889 1255 c 1
 686 433 l 1
 497 433 l 1
 645 1256 l 1xa0
 667 1364 735 1429 798 1429 c 3
EndSplineSet
Validated: 3073
EndChar

StartChar: quotedbl
Encoding: 34 34 2
Width: 1229
VWidth: 1708
GlyphClass: 2
Flags: W
HStem: 982 477
LayerCount: 2
Fore
SplineSet
916 1014 m 2
 895 992 873 982 852 982 c 3
 829 982 792 995 792 1050 c 3
 792 1062 796 1075 804 1090 c 2
 938 1373 l 2
 968 1453 1025 1459 1064 1459 c 3
 1128 1459 1170 1407 1170 1345 c 3
 1170 1307 1151 1265 1119 1230 c 2
 916 1014 l 2
466 1014 m 2
 445 992 423 982 402 982 c 3
 379 982 342 995 342 1050 c 3
 342 1062 346 1075 354 1090 c 2
 488 1373 l 2
 518 1453 585 1459 624 1459 c 3
 688 1459 720 1407 720 1345 c 3
 720 1307 701 1265 669 1230 c 2
 466 1014 l 2
EndSplineSet
Validated: 3073
EndChar

StartChar: numbersign
Encoding: 35 35 3
Width: 1229
VWidth: 1708
GlyphClass: 2
Flags: W
HStem: 0 21G<154 371.923 597 814.923> 311 210<101 215 470 658 913 1027> 868 210<209 324 579 766 1021 1135>
LayerCount: 2
Fore
SplineSet
470 521 m 1
 699 521 l 1
 766 868 l 1
 538 868 l 1
 470 521 l 1
368 0 m 1
 154 0 l 1
 215 311 l 1
 60 311 l 1
 101 521 l 1
 256 521 l 1
 324 868 l 1
 168 868 l 1
 209 1078 l 1
 365 1078 l 1
 418 1350 l 1
 632 1350 l 1
 579 1078 l 1
 807 1078 l 1
 860 1350 l 1
 1074 1350 l 1
 1021 1078 l 1
 1176 1078 l 1
 1135 868 l 1
 980 868 l 1
 913 521 l 1
 1068 521 l 1
 1027 311 l 1
 872 311 l 1
 811 0 l 1
 597 0 l 1
 658 311 l 1
 429 311 l 1
 368 0 l 1
EndSplineSet
Validated: 3073
EndChar

StartChar: dollar
Encoding: 36 36 4
Width: 1229
VWidth: 2334
GlyphClass: 2
Flags: W
HStem: -18 207<272.048 393> 1037 21G<1150.43 1241.5> 1200 221<544.087 647 905 1016.6>
VStem: -5 210<246.018 319.527> 237 210<918.079 1082.8> 905 210<315.722 529.376> 1038 210<1080.65 1175.21>
LayerCount: 2
Fore
SplineSet
393 -18 m 1xfc
 21 18 -5 288 -5 302 c 3
 -5 317 -3 347 0 359 c 1
 207 317 l 1
 206 313 205 307 205 302 c 3
 205 228 396 193 436 189 c 1
 537 675 l 1
 444 710 l 2
 370 738 237 807 237 987 c 3
 237 1007 237 1026 245 1057 c 2
 252 1084 l 2
 306 1294 481 1399 693 1421 c 1
 714 1525 l 1
 928 1525 l 1
 905 1418 l 1xfc
 1204 1383 1248 1191 1248 1106 c 3
 1248 1075 1243 1049 1240 1037 c 1
 1034 1083 l 1
 1037 1094 1038 1101 1038 1106 c 3xfa
 1038 1148 1006 1197 863 1211 c 1
 780 808 l 1
 850 782 l 2
 1032 714 1115 571 1115 432 c 3
 1115 409 1113 388 1107 358 c 2
 1102 330 l 2
 1075 178 886 15 608 -18 c 1
 587 -124 l 1
 372 -124 l 1
 393 -18 l 1xfc
736 600 m 1
 654 202 l 1
 808 240 888 325 896 370 c 2
 901 398 l 2
 904 411 905 422 905 432 c 3
 905 525 815 571 774 586 c 2
 736 600 l 1
581 883 m 1
 647 1200 l 1
 545 1174 478 1120 456 1037 c 2
 449 1009 l 2
 447 999 447 994 447 987 c 3
 447 938 483 919 518 906 c 2
 581 883 l 1
EndSplineSet
Validated: 3073
EndChar

StartChar: percent
Encoding: 37 37 5
Width: 1229
VWidth: 1708
GlyphClass: 2
Flags: W
HStem: -28 179<773.93 936.117> 356 179<769.394 929.372> 862 179<373.93 536.117> 1246 179<369.394 529.372>
VStem: 173 180<1057.72 1228.97> 551 180<1057.16 1225.05> 573 180<167.719 338.97> 951 180<167.161 335.051>
LayerCount: 2
Fore
SplineSet
443 1041 m 3xfd
 517 1041 551 1082 551 1138 c 27
 551 1198 502 1246 445 1246 c 3
 390 1246 353 1195 353 1146 c 3
 353 1104 389 1041 443 1041 c 3xfd
447 1425 m 3
 662 1425 731 1237 731 1140 c 3
 731 990 614 862 446 862 c 3
 289 862 173 996 173 1145 c 3
 173 1295 290 1425 447 1425 c 3
843 151 m 3
 917 151 951 192 951 248 c 27
 951 308 902 356 845 356 c 3
 790 356 753 305 753 256 c 3xfb
 753 214 789 151 843 151 c 3
847 535 m 3
 1062 535 1131 347 1131 250 c 3
 1131 100 1014 -28 846 -28 c 3
 689 -28 573 106 573 255 c 3
 573 405 690 535 847 535 c 3
1248 1373 m 1
 1388 1217 l 1
 52 28 l 1
 -88 184 l 1
 1248 1373 l 1
EndSplineSet
Validated: 3073
EndChar

StartChar: ampersand
Encoding: 38 38 6
Width: 1229
VWidth: 2334
GlyphClass: 2
Flags: W
HStem: -25 210<249.355 664.198> 1215 210<589.961 886.51>
VStem: -31 210<244.034 414.297> 341 210<931.558 1178.32> 890 210<1075.41 1202.53>
LayerCount: 2
Fore
SplineSet
733 275 m 1
 530 622 l 1
 396 543 l 2
 261 463 196 401 187 357 c 2
 181 328 l 2
 180 323 179 318 179 313 c 3
 179 232 317 185 449 185 c 2
 473 185 l 2
 581 185 669 220 733 275 c 1
341 1092 m 3
 341 1235 438 1425 738 1425 c 2
 764 1425 l 2
 967 1425 1100 1325 1100 1175 c 3
 1100 1165 1097 1133 1095 1122 c 2
 1084 1070 l 2
 1064 974 917 852 863 820 c 2
 710 729 l 1
 879 440 l 1
 1061 653 l 1
 1221 517 l 1
 991 248 l 1
 1097 67 l 1
 915 -39 l 1
 840 90 l 1
 738 13 611 -25 473 -25 c 2
 449 -25 l 2
 179 -25 -31 107 -31 310 c 3
 -31 328 -30 348 -25 372 c 2
 -19 399 l 2
 12 537 122 625 279 718 c 2
 424 804 l 1
 384 882 341 992 341 1092 c 3
738 1215 m 2
 579 1215 551 1141 551 1092 c 3
 551 1052 573 976 605 911 c 1
 757 1000 l 2
 820 1037 871 1083 878 1112 c 2
 884 1137 l 2
 888 1152 890 1169 890 1175 c 3
 890 1191 863 1215 764 1215 c 2
 738 1215 l 2
EndSplineSet
Validated: 3073
EndChar

StartChar: quotesingle
Encoding: 39 39 7
Width: 1229
VWidth: 1708
GlyphClass: 2
Flags: W
HStem: 982 477
VStem: 562 379
LayerCount: 2
Fore
SplineSet
686 1014 m 2
 665 992 643 982 622 982 c 3
 599 982 562 995 562 1050 c 3
 562 1063 566 1076 574 1090 c 2
 708 1373 l 2
 738 1453 795 1459 834 1459 c 3
 898 1459 941 1407 941 1345 c 3
 941 1307 921 1265 889 1230 c 2
 686 1014 l 2
EndSplineSet
Validated: 3073
EndChar

StartChar: parenleft
Encoding: 40 40 8
Width: 1229
VWidth: 1708
GlyphClass: 2
Flags: W
VStem: 383 210<367.604 792.361>
LayerCount: 2
Fore
SplineSet
1238 1387 m 1
 888 1207 593 901 593 578 c 3
 593 347 751 146 932 0 c 1
 800 -162 l 1
 565 28 383 282 383 578 c 3
 383 976 704 1348 1142 1573 c 1
 1238 1387 l 1
EndSplineSet
Validated: 3073
EndChar

StartChar: parenright
Encoding: 41 41 9
Width: 1229
VWidth: 1708
GlyphClass: 2
Flags: W
VStem: 712 210<631.633 1063.38>
LayerCount: 2
Fore
SplineSet
53 10 m 1
 405 222 712 514 712 850 c 3
 712 1080 566 1268 374 1392 c 1
 488 1568 l 1
 717 1420 922 1174 922 850 c 3
 922 442 600 95 161 -170 c 1
 53 10 l 1
EndSplineSet
Validated: 3073
EndChar

StartChar: asterisk
Encoding: 42 42 10
Width: 1229
VWidth: 1708
GlyphClass: 2
Flags: W
HStem: 601 204<243.248 294 955.33 1056.02> 1020 20G<673.5 727.5>
VStem: 595 208<886.502 1020.35>
LayerCount: 2
Fore
SplineSet
970 805 m 3
 1024 805 1075 762 1075 700 c 3
 1075 655 1046 615 1001 601 c 2
 778 531 l 1
 862 368 l 2
 870 353 874 336 874 320 c 3
 874 265 830 215 769 215 c 3
 731 215 695 236 676 272 c 2
 602 413 l 1
 449 248 l 2
 428 226 400 215 372 215 c 3
 317 215 267 258 267 320 c 3
 267 346 276 372 295 392 c 2
 441 549 l 1
 294 601 l 2
 251 616 224 657 224 700 c 3
 224 762 276 805 329 805 c 3
 341 805 352 803 364 799 c 2
 549 733 l 1
 595 956 l 2
 605 1006 649 1040 698 1040 c 3
 757 1040 803 992 803 935 c 3
 803 928 803 921 801 914 c 2
 766 747 l 1
 939 800 l 2
 949 803 960 805 970 805 c 3
EndSplineSet
Validated: 3073
EndChar

StartChar: plus
Encoding: 43 43 11
Width: 1229
VWidth: 1708
GlyphClass: 2
Flags: W
HStem: 489 210<269 497 756 984>
LayerCount: 2
Fore
SplineSet
269 699 m 1
 541 699 l 1
 605 1005 l 1
 820 1005 l 1
 756 699 l 1
 1028 699 l 1
 984 489 l 1
 712 489 l 1
 647 178 l 1
 432 178 l 1
 497 489 l 1
 225 489 l 1
 269 699 l 1
EndSplineSet
Validated: 3073
EndChar

StartChar: comma
Encoding: 44 44 12
Width: 1229
VWidth: 1947
GlyphClass: 2
Flags: W
HStem: -302 77<320 422.827>
VStem: 461 282<-156 106>
LayerCount: 2
Fore
SplineSet
437 -60 m 0
 400 -43 354 24 354 69 c 3
 354 176 438 246 545 246 c 3
 662 246 743 160 743 52 c 3
 743 -78 661 -301 320 -302 c 1
 315 -225 l 1
 382 -216 461 -191 461 -121 c 27
 461 -95 460 -71 437 -60 c 0
EndSplineSet
Validated: 3073
EndChar

StartChar: hyphen
Encoding: 45 45 13
Width: 1229
VWidth: 1708
GlyphClass: 2
Flags: W
HStem: 489 210<269 984>
LayerCount: 2
Fore
SplineSet
269 699 m 1
 1028 699 l 1
 984 489 l 1
 225 489 l 1
 269 699 l 1
EndSplineSet
Validated: 3073
EndChar

StartChar: period
Encoding: 46 46 14
Width: 1229
VWidth: 1708
GlyphClass: 2
Flags: W
HStem: -136 85<548 555 558 564 567 572 574 579 583 587 590 592.984> -37 6<551 556> -29 2<552 554> -25 2<551 554>
VStem: 526 4<-31 -25 -23 -21> 536 2<-31 -23> 540 2<-31 -23> 544 2<-31 -23> 548 2<-29 -27> 550 8<-43 -39> 552 2<-29 -27> 556 2<-49 -45 -39 -37> 564 2<-49 -43> 568 2<-49 -41> 572 2<-49 -43> 576 2<-49 -43> 580 2<-49 -43> 584 2<-49 -43> 588 2<-49 -43>
LayerCount: 2
Fore
SplineSet
594 -49 m 25xff8fe0
 592 -49 l 25
 592 -37 l 25
 590 -37 l 25
 590 -51 l 25
 594 -51 l 25
 594 -49 l 25xff8fe0
586 -49 m 9
 584 -49 l 17
 584 -43 l 9
 586 -43 l 1
 586 -49 l 9
524 -31 m 9
 526 -31 l 25
 526 -25 l 25
 530 -25 l 25
 530 -31 l 25
 532 -31 l 25
 532 -17 l 25
 526 -17 l 17
 524 -21 l 1
 524 -31 l 9
527 -19 m 9
 530 -19 l 25
 530 -23 l 25
 526 -23 l 17
 526 -21 l 1
 527 -19 l 9
538 -23 m 25
 538 -31 l 25
 540 -31 l 17
 540 -23 l 1
 539 -21 l 9
 534 -21 l 17
 534 -31 l 9
 536 -31 l 17
 536 -23 l 9
 538 -23 l 25
546 -23 m 25
 546 -31 l 25
 548 -31 l 17
 548 -23 l 1
 547 -21 l 9
 542 -21 l 17
 542 -31 l 9
 544 -31 l 25
 544 -23 l 25
 546 -23 l 25
552 -27 m 25xffafe0
 554 -27 l 25
 554 -29 l 25
 552 -29 l 25
 552 -27 l 25xffafe0
551 -31 m 9
 556 -31 l 17
 556 -23 l 1xffbfe0
 555 -21 l 9
 550 -21 l 25
 550 -23 l 25
 554 -23 l 25
 554 -25 l 25
 551 -25 l 17
 550 -27 l 1
 550 -29 l 1
 551 -31 l 9
562 -43 m 25
 562 -51 l 25
 564 -51 l 17
 564 -43 l 1
 563 -41 l 1
 560 -41 l 1
 560 -37 l 1
 558 -37 l 9
 558 -51 l 25
 560 -51 l 25
 560 -43 l 25
 562 -43 l 25
555 -43 m 1
 550 -43 l 25
 550 -39 l 25
 556 -39 l 1
 556 -37 l 9
 549 -37 l 17
 548 -39 l 1
 548 -43 l 1
 549 -45 l 9
 554 -45 l 17
 554 -49 l 1
 548 -49 l 1
 548 -51 l 9
 555 -51 l 17
 556 -49 l 1
 556 -45 l 1
 555 -43 l 1
570 -49 m 25
 568 -49 l 25
 568 -41 l 25
 566 -41 l 17
 566 -49 l 1
 567 -51 l 9
 572 -51 l 25
 572 -41 l 25
 570 -41 l 25
 570 -49 l 25
576 -49 m 25
 576 -43 l 25
 578 -43 l 25
 578 -49 l 25
 576 -49 l 25
575 -41 m 17
 574 -43 l 1
 574 -49 l 1
 575 -51 l 9
 578 -51 l 25
 578 -53 l 25
 574 -53 l 25
 574 -55 l 25
 579 -55 l 17
 580 -53 l 1
 580 -41 l 9
 575 -41 l 17
583 -41 m 17
 582 -43 l 1
 582 -49 l 1
 583 -51 l 9
 587 -51 l 17
 588 -49 l 1
 588 -43 l 1
 587 -41 l 9
 583 -41 l 17
709 59 m 0
 709 -44 629 -136 514 -136 c 0
 403 -136 320 -46 320 59 c 0
 320 161 397 254 514 254 c 0
 628 254 709 164 709 59 c 0
EndSplineSet
Validated: 3073
EndChar

StartChar: slash
Encoding: 47 47 15
Width: 1229
VWidth: 1708
GlyphClass: 2
Flags: W
LayerCount: 2
Fore
SplineSet
1094 1487 m 1
 1264 1363 l 1
 203 -87 l 1
 33 37 l 1
 1094 1487 l 1
EndSplineSet
Validated: 3073
EndChar

StartChar: zero
Encoding: 48 48 16
Width: 1229
VWidth: 1947
GlyphClass: 2
Flags: W
HStem: -25 210<380.661 680.237> 1215 210<598.815 926.129>
LayerCount: 2
Fore
SplineSet
787 1425 m 2
 831 1425 1023 1410 1108 1282 c 1
 1296 1459 l 1
 1359 1230 l 1
 1176 1059 l 1
 1177 1046 1178 1032 1178 1017 c 3
 1178 925 1163 826 1142 726 c 2
 1128 662 l 2
 1068 373 925 -25 530 -25 c 2
 505 -25 l 2
 441 -25 284 -21 190 136 c 1
 10 -33 l 1
 -61 189 l 1
 128 366 l 1
 127 380 127 393 127 406 c 3
 127 466 133 558 163 705 c 2
 176 768 l 2
 224 996 323 1425 762 1425 c 2
 787 1425 l 2
950 1135 m 1
 920 1210 852 1215 787 1215 c 2
 762 1215 l 2
 571 1215 463 1106 382 724 c 2
 369 663 l 2
 362 631 357 602 353 576 c 1
 950 1135 l 1
351 287 m 1
 381 187 453 185 505 185 c 2
 530 185 l 2
 687 185 837 295 922 706 c 2
 936 770 l 2
 942 797 947 823 951 848 c 1
 351 287 l 1
EndSplineSet
Validated: 3073
EndChar

StartChar: one
Encoding: 49 49 17
Width: 1229
VWidth: 1708
GlyphClass: 2
Flags: W
HStem: -25 21G<526 744.152> 1043 21G<615.148 663.267> 1405 20G<855.332 1041>
VStem: 526 515
LayerCount: 2
Fore
SplineSet
1041 1425 m 1
 740 -25 l 1
 526 -25 l 1
 763 1118 l 1
 627 1043 l 1
 579 1124 l 1
 875 1425 l 1
 1041 1425 l 1
EndSplineSet
Validated: 3073
EndChar

StartChar: two
Encoding: 50 50 18
Width: 1229
VWidth: 2334
GlyphClass: 2
Flags: W
HStem: 0 210<321 987> 1215 210<545.984 983.505>
VStem: 1005 210<1004.93 1184.09>
LayerCount: 2
Fore
SplineSet
1005 1116 m 3
 1005 1175 963 1215 790 1215 c 2
 767 1215 l 2
 601 1215 532 1181 464 1099 c 1
 302 1233 l 1
 398 1347 517 1425 767 1425 c 2
 790 1425 l 2
 1143 1425 1215 1240 1215 1116 c 3
 1215 1107 1212 1072 1207 1049 c 2
 1188 966 l 2
 1172 896 1108 795 1005 724 c 2
 437 329 l 2
 395 299 355 257 321 210 c 1
 1031 210 l 1
 987 0 l 1
 58 0 l 1
 117 282 l 1
 165 360 233 441 317 501 c 2
 886 896 l 2
 947 939 986 1023 992 1046 c 2
 1002 1084 l 2
 1005 1100 1005 1108 1005 1116 c 3
EndSplineSet
Validated: 3073
EndChar

StartChar: three
Encoding: 51 51 19
Width: 1229
VWidth: 2334
GlyphClass: 2
Flags: W
HStem: -25 210<333.009 722.365> 684 210<453 801.96> 1215 210<560.386 931.838>
VStem: 884 210<365.534 649.189> 947 210<1029.64 1191.01>
LayerCount: 2
Fore
SplineSet
947 1136 m 3xe8
 947 1213 837 1215 790 1215 c 2
 767 1215 l 2
 630 1215 519 1163 476 1109 c 1
 312 1239 l 1
 418 1373 614 1425 767 1425 c 2
 790 1425 l 2
 918 1425 1157 1387 1157 1136 c 3xe8
 1157 1115 1156 1093 1150 1065 c 2
 1142 1028 l 2
 1135 995 1107 882 980 807 c 1
 1048 751 1094 666 1094 550 c 3
 1094 379 997 -25 533 -25 c 2
 510 -25 l 2
 171 -25 82 156 81 279 c 1
 291 281 l 1
 291 223 393 185 510 185 c 2
 533 185 l 2
 808 185 852 376 876 483 c 0
 881 509 884 531 884 550 c 3xf0
 884 678 766 684 680 684 c 2
 453 684 l 1
 453 894 l 1
 646 894 l 2
 764 894 919 991 936 1072 c 2
 944 1109 l 2
 947 1122 947 1131 947 1136 c 3xe8
EndSplineSet
Validated: 3073
EndChar

StartChar: four
Encoding: 52 52 20
Width: 1229
VWidth: 1708
GlyphClass: 2
Flags: W
HStem: 0 21G<680 899.207> 328 210<434 749 1008 1116> 1405 20G<1000.13 1195>
LayerCount: 2
Fore
SplineSet
890 996 m 1
 434 538 l 1
 794 538 l 1
 890 996 l 1
129 528 m 1
 1020 1425 l 1
 1195 1425 l 1
 1008 538 l 1
 1160 538 l 1
 1116 328 l 1
 964 328 l 1
 895 0 l 1
 680 0 l 1
 749 328 l 1
 87 328 l 1
 129 528 l 1
EndSplineSet
Validated: 3073
EndChar

StartChar: five
Encoding: 53 53 21
Width: 1229
VWidth: 2334
GlyphClass: 2
Flags: W
HStem: -25 210<271.344 717.678> 749 210<515.073 851.243> 1190 210<591 1199>
VStem: 894 210<491.771 704.35>
LayerCount: 2
Fore
SplineSet
894 598 m 3
 894 737 783 749 693 749 c 2
 670 749 l 2
 597 749 472 703 394 608 c 1
 195 716 l 1
 445 1400 l 1
 1244 1400 l 1
 1199 1190 l 1
 591 1190 l 1
 495 925 l 1
 556 948 617 959 670 959 c 2
 693 959 l 2
 1017 959 1104 753 1104 598 c 3
 1104 562 1100 524 1092 486 c 2
 1079 430 l 2
 1010 133 818 -25 533 -25 c 2
 441 -25 l 2
 185 -25 51 105 5 222 c 1
 199 299 l 1
 217 250 310 185 441 185 c 2
 533 185 l 2
 736 185 831 294 873 474 c 2
 886 530 l 2
 891 556 894 578 894 598 c 3
EndSplineSet
Validated: 3073
EndChar

StartChar: six
Encoding: 54 54 22
Width: 1229
VWidth: 2334
GlyphClass: 2
Flags: W
HStem: -25 210<357.865 719.258> 749 210<491.25 850.668> 1215 210<599.314 1005.91>
VStem: 99 210<232.664 543.651> 892 210<385.997 708.563>
LayerCount: 2
Fore
SplineSet
892 599 m 3
 892 746 777 749 693 749 c 2
 670 749 l 2
 474 749 363 624 329 467 c 2
 317 411 l 2
 311 384 309 361 309 341 c 3
 309 235 379 185 510 185 c 2
 533 185 l 2
 734 185 837 300 870 455 c 2
 882 511 l 2
 889 545 892 574 892 599 c 3
693 959 m 2
 777 959 1102 954 1102 599 c 3
 1102 557 1097 513 1088 467 c 2
 1076 411 l 2
 1019 146 820 -25 533 -25 c 2
 510 -25 l 2
 256 -25 99 121 99 341 c 3
 99 377 103 416 111 455 c 2
 217 965 l 2
 271 1224 472 1425 767 1425 c 2
 790 1425 l 2
 873 1425 1134 1416 1199 1256 c 1
 1007 1168 l 1
 986 1215 822 1215 790 1215 c 2
 767 1215 l 2
 694 1215 480 1198 419 904 c 1
 492 939 576 959 670 959 c 2
 693 959 l 2
EndSplineSet
Validated: 3073
EndChar

StartChar: seven
Encoding: 55 55 23
Width: 1229
VWidth: 1708
GlyphClass: 2
Flags: W
HStem: -0 21G<128 466.5> 1190 210<307 968>
LayerCount: 2
Fore
SplineSet
264 1190 m 1
 307 1400 l 1
 1278 1400 l 1
 1230 1166 l 1
 878 785 569 390 364 -0 c 1
 128 -0 l 1
 326 407 628 811 968 1190 c 1
 264 1190 l 1
EndSplineSet
Validated: 3073
EndChar

StartChar: eight
Encoding: 56 56 24
Width: 1229
VWidth: 2334
GlyphClass: 2
Flags: W
HStem: -25 210<358.072 725.511> 684 210<533.609 855.793> 1215 210<586.119 924.685>
VStem: 95 210<237.763 428.875> 298 210<919.5 1122.48> 884 210<349.119 655.898> 949 210<991.984 1191.67>
LayerCount: 2
Fore
SplineSet
358 822 m 1xf4
 314 883 298 950 298 1011 c 3xe8
 298 1032 299 1054 305 1082 c 2
 315 1130 l 2
 367 1379 630 1425 767 1425 c 2
 790 1425 l 2
 1089 1425 1159 1246 1159 1136 c 3xf2
 1159 1126 1156 1096 1154 1086 c 2
 1145 1039 l 2
 1127 946 1072 863 997 800 c 1
 1027 773 1094 704 1094 560 c 3
 1094 519 1088 477 1079 431 c 2
 1070 384 l 2
 1024 146 833 -25 533 -25 c 2
 510 -25 l 2
 204 -25 95 118 95 333 c 3
 95 363 100 396 105 425 c 2
 114 473 l 2
 144 631 229 749 358 822 c 1xf4
949 1136 m 3xea
 949 1168 909 1215 790 1215 c 2
 767 1215 l 2
 597 1215 534 1147 521 1086 c 2
 511 1040 l 2
 509 1029 508 1020 508 1011 c 3
 508 917 585 894 654 894 c 2
 683 894 l 2
 849 894 913 965 939 1081 c 2
 944 1103 l 2
 946 1113 949 1131 949 1136 c 3xea
682 684 m 2
 654 684 l 2
 447 684 351 596 320 431 c 2
 311 383 l 2
 308 365 305 347 305 333 c 3
 305 231 394 185 510 185 c 2
 533 185 l 2
 719 185 830 260 864 424 c 2
 874 473 l 2
 879 496 884 526 884 560 c 3xf4
 884 659 828 684 682 684 c 2
EndSplineSet
Validated: 3073
EndChar

StartChar: nine
Encoding: 57 57 25
Width: 1229
VWidth: 2334
GlyphClass: 2
Flags: W
HStem: -25 210<302.533 718.25> 446 210<448.056 828.844> 1215 210<587.496 941.456>
VStem: 196 210<698.489 1022.9> 992 210<849.209 1170.71>
LayerCount: 2
Fore
SplineSet
986 1012 m 2
 990 1033 992 1052 992 1068 c 3
 992 1169 914 1215 790 1215 c 2
 767 1215 l 2
 575 1215 460 1099 433 970 c 2
 414 880 l 2
 409 854 406 830 406 810 c 3
 406 724 446 656 607 656 c 2
 630 656 l 2
 813 656 924 724 963 905 c 2
 986 1012 l 2
295 232 m 1
 315 185 489 185 510 185 c 2
 533 185 l 2
 737 185 835 293 871 458 c 2
 878 490 l 1
 809 462 727 446 630 446 c 2
 607 446 l 2
 336 446 196 601 196 810 c 3
 196 847 200 884 208 922 c 2
 227 1012 l 2
 274 1235 471 1425 767 1425 c 2
 790 1425 l 2
 1042 1425 1202 1282 1202 1068 c 3
 1202 1036 1199 1004 1192 970 c 2
 1077 416 l 2
 1018 133 817 -25 533 -25 c 2
 510 -25 l 2
 408 -25 175 -25 101 152 c 1
 295 232 l 1
EndSplineSet
Validated: 3073
EndChar

StartChar: less
Encoding: 60 60 28
Width: 1229
VWidth: 1708
GlyphClass: 2
Flags: W
LayerCount: 2
Fore
SplineSet
310 721 m 1
 1091 1171 l 1
 1034 896 l 1
 489 582 l 1
 903 268 l 1
 856 39 l 1
 263 491 l 1
 310 721 l 1
EndSplineSet
Validated: 3073
EndChar

StartChar: equal
Encoding: 61 61 29
Width: 1229
VWidth: 1708
GlyphClass: 2
Flags: W
HStem: 303 210<230 945> 715 210<316 1031>
LayerCount: 2
Fore
SplineSet
316 925 m 1
 1075 925 l 1
 1031 715 l 1
 272 715 l 1
 316 925 l 1
230 513 m 1
 989 513 l 1
 945 303 l 1
 186 303 l 1
 230 513 l 1
EndSplineSet
Validated: 3073
EndChar

StartChar: greater
Encoding: 62 62 30
Width: 1229
VWidth: 1708
GlyphClass: 2
Flags: W
LayerCount: 2
Fore
SplineSet
399 1148 m 1
 993 698 l 1
 945 466 l 1
 164 15 l 1
 221 291 l 1
 767 606 l 1
 352 921 l 1
 399 1148 l 1
EndSplineSet
Validated: 3073
EndChar

StartChar: question
Encoding: 63 63 31
Width: 1229
VWidth: 1708
GlyphClass: 2
Flags: W
HStem: -160 338<400.31 627.307> 1215 210<547.285 985.46>
VStem: 346 337<-103.705 123.538> 1008 210<1049.37 1182.1>
LayerCount: 2
Fore
SplineSet
683 9 m 0
 683 -81 614 -160 514 -160 c 0
 418 -160 346 -82 346 9 c 0
 346 97 412 178 514 178 c 0
 613 178 683 100 683 9 c 0
790 1425 m 2
 1210 1425 1218 1197 1218 1130 c 3
 1218 1117 1215 1082 1212 1067 c 2
 1198 1003 l 2
 1172 882 1110 802 1008 728 c 2
 801 577 l 2
 737 531 714 491 708 461 c 2
 684 352 l 1
 469 352 l 1
 502 505 l 2
 511 548 539 647 677 747 c 2
 886 898 l 2
 948 943 978 981 992 1045 c 2
 1001 1087 l 2
 1003 1095 1008 1124 1008 1126 c 3
 1008 1200 885 1215 790 1215 c 2
 767 1215 l 2
 581 1215 472 1150 452 1065 c 1
 248 1113 l 1
 287 1277 452 1425 767 1425 c 2
 790 1425 l 2
EndSplineSet
Validated: 3073
EndChar

StartChar: at
Encoding: 64 64 32
Width: 1229
VWidth: 1708
GlyphClass: 2
Flags: W
HStem: -25 210<376.78 841.325> 331 215<723.761 938.436> 878 210<800.574 1045> 1215 210<597.546 1035.33>
VStem: 56 210<310.443 788.242> 506 210<555.167 792.903> 1090 210<1088 1165.28>
LayerCount: 2
Fore
SplineSet
779 1215 m 3
 445 1215 266 826 266 528 c 3
 266 296 359 185 522 185 c 3
 584 185 734 190 866 237 c 1
 981 57 l 1
 809 -16 615 -25 522 -25 c 3
 253 -25 56 169 56 528 c 3
 56 947 330 1425 779 1425 c 27
 932 1425 1035 1415 1160 1335 c 0
 1267 1266 1300 1185 1300 1122 c 3
 1300 1110 1299 1099 1297 1088 c 2
 1147 331 l 1
 928 331 l 1
 927 356 l 1
 886 343 843 336 799 336 c 3
 584 336 506 479 506 624 c 3
 506 778 587 1088 911 1088 c 2
 1089 1088 l 1
 1090 1092 1090 1096 1090 1099 c 3
 1090 1145 1035 1215 779 1215 c 3
911 878 m 2
 799 878 748 807 725 698 c 0
 722 684 716 653 716 624 c 3
 716 576 750 546 799 546 c 3
 887 546 989 611 998 653 c 2
 1045 878 l 1
 911 878 l 2
EndSplineSet
Validated: 3073
EndChar

StartChar: B
Encoding: 66 66 33
Width: 1229
VWidth: 1947
GlyphClass: 2
Flags: W
HStem: 0 210<275 765.242> 663 210<413 852.711> 1190 210<478 936.089>
VStem: 888 210<451.885 639.051> 943 210<1056.03 1170.39>
LayerCount: 2
Fore
SplineSet
538 0 m 2xf0
 17 0 l 1
 308 1400 l 1
 719 1400 l 2
 1003 1400 1153 1331 1153 1145 c 3xe8
 1153 1130 1153 1106 1145 1068 c 2
 1132 1004 l 2
 1110 902 1071 827 1013 774 c 1
 1070 720 1098 648 1098 564 c 3
 1098 532 1094 500 1087 466 c 2
 1059 329 l 2
 1012 100 823 0 538 0 c 2xf0
888 564 m 3xf0
 888 624 864 663 675 663 c 2
 369 663 l 1
 275 210 l 1
 538 210 l 2
 774 210 835 284 853 371 c 2
 881 508 l 2
 883 519 888 554 888 564 c 3xf0
609 873 m 2
 851 873 900 924 926 1046 c 2
 939 1110 l 2
 940 1115 943 1139 943 1145 c 3xe8
 943 1163 937 1190 719 1190 c 2
 478 1190 l 1
 413 873 l 1
 609 873 l 2
EndSplineSet
Validated: 3073
EndChar

StartChar: C
Encoding: 67 67 34
Width: 1229
VWidth: 1947
GlyphClass: 2
Flags: W
HStem: -25 210<404.789 713.284> 1215 210<618.02 961.265>
VStem: 132 210<243.964 744.797> 1008 208<1086.21 1169.51>
LayerCount: 2
Fore
SplineSet
557 -25 m 2
 526 -25 l 2
 344 -25 132 70 132 433 c 3
 132 523 144 615 163 705 c 2
 176 768 l 2
 246 1102 395 1425 783 1425 c 2
 814 1425 l 2
 1089 1425 1194 1266 1216 1088 c 1
 1008 1062 l 1
 996 1158 959 1215 814 1215 c 2
 783 1215 l 2
 623 1215 471 1140 382 724 c 2
 369 663 l 2
 360 618 342 525 342 433 c 3
 342 241 410 185 526 185 c 2
 557 185 l 2
 674 185 771 239 849 380 c 1
 1033 278 l 1
 979 181 843 -25 557 -25 c 2
EndSplineSet
Validated: 3073
EndChar

StartChar: D
Encoding: 68 68 35
Width: 1229
VWidth: 1947
GlyphClass: 2
Flags: W
HStem: 0 210<275 673.234> 1190 210<478 915.911>
VStem: 965 210<696.375 1141.46>
LayerCount: 2
Fore
SplineSet
1175 993 m 3
 1175 942 1170 853 1144 735 c 2
 1123 638 l 2
 991 27 623 0 512 0 c 2
 17 0 l 1
 308 1400 l 1
 759 1400 l 2
 915 1400 1175 1386 1175 993 c 3
965 993 m 3
 965 1175 878 1190 759 1190 c 2
 478 1190 l 1
 275 210 l 1
 512 210 l 2
 744 210 859 416 917 682 c 2
 938 779 l 2
 960 885 965 950 965 993 c 3
EndSplineSet
Validated: 3073
EndChar

StartChar: E
Encoding: 69 69 36
Width: 1229
VWidth: 1708
GlyphClass: 2
Flags: W
HStem: 0 211<275 987> 663 210<413 961> 1190 210<478 1235>
LayerCount: 2
Fore
SplineSet
369 663 m 1
 275 211 l 1
 1031 211 l 1
 987 0 l 1
 17 0 l 1
 308 1400 l 1
 1279 1400 l 1
 1235 1190 l 1
 478 1190 l 1
 413 873 l 1
 1004 873 l 1
 961 663 l 1
 369 663 l 1
EndSplineSet
Validated: 3073
EndChar

StartChar: F
Encoding: 70 70 37
Width: 1229
VWidth: 1708
GlyphClass: 2
Flags: W
HStem: 0 21G<16 235.163> 663 210<412 961> 1190 210<478 1235>
LayerCount: 2
Fore
SplineSet
16 0 m 1
 308 1400 l 1
 1279 1400 l 1
 1235 1190 l 1
 478 1190 l 1
 412 873 l 1
 1004 873 l 1
 961 663 l 1
 369 663 l 1
 231 0 l 1
 16 0 l 1
EndSplineSet
Validated: 3073
EndChar

StartChar: G
Encoding: 71 71 38
Width: 1229
VWidth: 1947
GlyphClass: 2
Flags: W
HStem: -25 210<404.16 730.063> 505 210<690 881> 1215 210<623.836 960.104>
VStem: 133 210<251.405 747.122> 1008 208<1086.21 1170.51>
LayerCount: 2
Fore
SplineSet
814 1215 m 2
 789 1215 l 2
 626 1215 469 1134 382 724 c 2
 369 663 l 2
 353 586 343 509 343 441 c 3
 343 241 417 185 533 185 c 2
 557 185 l 2
 695 185 798 257 841 316 c 1
 881 505 l 1
 649 505 l 1
 690 715 l 1
 1139 715 l 1
 1039 236 l 1
 934 62 743 -25 557 -25 c 2
 533 -25 l 2
 373 -25 133 51 133 441 c 3
 133 528 145 618 163 705 c 2
 176 768 l 2
 244 1098 402 1425 789 1425 c 2
 814 1425 l 2
 1086 1425 1194 1269 1216 1088 c 1
 1008 1062 l 1
 996 1157 960 1215 814 1215 c 2
EndSplineSet
Validated: 3073
EndChar

StartChar: H
Encoding: 72 72 39
Width: 1229
VWidth: 1947
GlyphClass: 2
Flags: W
HStem: 0 21G<16 234.118 775 993.129> 612 210<400 901> 1380 20G<300.871 519 1059.85 1278>
LayerCount: 2
Fore
SplineSet
230 0 m 1
 16 0 l 1
 305 1400 l 1
 519 1400 l 1
 400 822 l 1
 944 822 l 1
 1064 1400 l 1
 1278 1400 l 1
 989 0 l 1
 775 0 l 1
 901 612 l 1
 356 612 l 1
 230 0 l 1
EndSplineSet
Validated: 3073
EndChar

StartChar: I
Encoding: 73 73 40
Width: 1229
VWidth: 1947
GlyphClass: 2
Flags: W
HStem: 0 210<167 442 656 882> 1190 210<415 645 859 1130>
LayerCount: 2
Fore
SplineSet
371 1190 m 1
 415 1400 l 1
 1174 1400 l 1
 1130 1190 l 1
 859 1190 l 1
 656 210 l 1
 926 210 l 1
 882 0 l 1
 123 0 l 1
 167 210 l 1
 442 210 l 1
 645 1190 l 1
 371 1190 l 1
EndSplineSet
Validated: 3073
EndChar

StartChar: J
Encoding: 74 74 41
Width: 1229
VWidth: 1947
GlyphClass: 2
Flags: W
HStem: -25 210<251.314 553.935> 1190 210<578 821 1035 1265>
LayerCount: 2
Fore
SplineSet
235 255 m 1
 246 221 267 185 387 185 c 2
 411 185 l 2
 545 185 629 271 654 389 c 2
 821 1190 l 1
 534 1190 l 1
 578 1400 l 1
 1309 1400 l 1
 1265 1190 l 1
 1035 1190 l 1
 860 347 l 2
 815 132 643 -25 411 -25 c 2
 387 -25 l 2
 105 -25 53 136 31 205 c 1
 235 255 l 1
EndSplineSet
Validated: 3073
EndChar

StartChar: K
Encoding: 75 75 42
Width: 1229
VWidth: 1947
GlyphClass: 2
Flags: W
HStem: 0 21G<16 235.12 806.066 1050> 1380 20G<302.843 521 1036.37 1366>
LayerCount: 2
Fore
SplineSet
231 0 m 1
 16 0 l 1
 307 1400 l 1
 521 1400 l 1
 394 786 l 1
 1058 1400 l 1
 1366 1400 l 1
 674 759 l 1
 1050 0 l 1
 816 0 l 1
 513 610 l 1
 320 432 l 1
 231 0 l 1
EndSplineSet
Validated: 3073
EndChar

StartChar: L
Encoding: 76 76 43
Width: 1229
VWidth: 1947
GlyphClass: 2
Flags: W
HStem: 0 211<275 987> 1380 20G<302.857 522>
LayerCount: 2
Fore
SplineSet
987 0 m 1
 17 0 l 1
 307 1400 l 1
 522 1400 l 1
 275 211 l 1
 1031 211 l 1
 987 0 l 1
EndSplineSet
Validated: 3073
EndChar

StartChar: M
Encoding: 77 77 44
Width: 1229
VWidth: 1947
GlyphClass: 2
Flags: W
HStem: 0 21G<-49 176.206 848 1060.03> 1380 20G<378.8 602.628 967.077 1200>
LayerCount: 2
Fore
SplineSet
-49 0 m 1
 385 1400 l 1
 601 1400 l 1
 654 749 l 1
 977 1400 l 1
 1200 1400 l 1
 1200 1397 1199 1394 1199 1391 c 2
 1058 0 l 1
 848 0 l 1
 932 836 l 1
 633 232 l 1
 487 232 l 1
 435 854 l 1
 170 0 l 1
 -49 0 l 1
EndSplineSet
Validated: 3073
EndChar

StartChar: N
Encoding: 78 78 45
Width: 1229
VWidth: 1947
GlyphClass: 2
Flags: W
HStem: 0 21G<16 234.162 811.883 994.129> 1380 20G<303.829 487.1 1060.87 1279>
LayerCount: 2
Fore
SplineSet
230 0 m 1
 16 0 l 1
 308 1400 l 1
 479 1400 l 1
 867 442 l 1
 1065 1400 l 1
 1279 1400 l 1
 990 0 l 1
 820 0 l 1
 430 961 l 1
 230 0 l 1
EndSplineSet
Validated: 3073
EndChar

StartChar: O
Encoding: 79 79 46
Width: 1229
VWidth: 1947
GlyphClass: 2
Flags: W
HStem: -25 210<386.222 666.479> 1215 210<598.815 923.77>
VStem: 127 210<233.59 723.849> 968 210<711 1176.38>
LayerCount: 2
Fore
SplineSet
787 1425 m 2
 891 1425 1178 1408 1178 1017 c 3
 1178 925 1163 826 1142 726 c 2
 1128 662 l 2
 1064 369 925 -25 530 -25 c 2
 505 -25 l 2
 189 -25 127 202 127 406 c 3
 127 466 133 558 163 705 c 2
 176 768 l 2
 224 996 323 1425 762 1425 c 2
 787 1425 l 2
968 1017 m 3
 968 1212 876 1215 787 1215 c 2
 762 1215 l 2
 571 1215 463 1106 382 724 c 2
 369 663 l 2
 343 537 337 457 337 406 c 3
 337 198 438 185 505 185 c 2
 530 185 l 2
 687 185 834 303 922 706 c 2
 936 770 l 2
 956 860 968 948 968 1017 c 3
EndSplineSet
Validated: 3073
EndChar

StartChar: P
Encoding: 80 80 47
Width: 1229
VWidth: 1947
GlyphClass: 2
Flags: W
HStem: 0 21G<16 235.158> 582 210<395 872.75> 1190 210<478 996.203>
VStem: 1006 210<938.743 1169.94>
LayerCount: 2
Fore
SplineSet
659 792 m 2
 884 792 955 871 985 1008 c 2
 1001 1082 l 2
 1004 1099 1006 1112 1006 1123 c 3
 1006 1163 980 1190 785 1190 c 2
 478 1190 l 1
 395 792 l 1
 659 792 l 2
16 0 m 1
 308 1400 l 1
 785 1400 l 2
 1126 1400 1216 1312 1216 1124 c 3
 1216 1096 1213 1067 1207 1038 c 2
 1191 964 l 2
 1135 707 961 582 659 582 c 2
 352 582 l 1
 231 0 l 1
 16 0 l 1
EndSplineSet
Validated: 3073
EndChar

StartChar: Q
Encoding: 81 81 48
Width: 1229
VWidth: 1947
GlyphClass: 2
Flags: W
HStem: -25 210<387.927 576.409> 1215 210<606.139 923.77>
VStem: 129 210<241.155 728.278> 968 210<711 1174.86>
LayerCount: 2
Fore
SplineSet
968 1017 m 3
 968 1212 870 1215 787 1215 c 2
 771 1215 l 2
 537 1215 447 1028 382 724 c 2
 369 663 l 2
 351 577 339 491 339 418 c 3
 339 236 402 185 514 185 c 2
 530 185 l 2
 546 185 570 186 577 189 c 1
 494 362 l 1
 684 452 l 1
 758 298 l 1
 824 377 878 506 922 706 c 2
 936 770 l 2
 955 856 968 948 968 1017 c 3
787 1425 m 2
 891 1425 1178 1408 1178 1017 c 3
 1178 925 1163 826 1142 726 c 2
 1128 662 l 2
 1087 476 1014 236 855 96 c 1
 948 -99 l 1
 758 -189 l 1
 670 -6 l 1
 627 -18 581 -25 530 -25 c 2
 514 -25 l 2
 338 -25 129 64 129 418 c 3
 129 533 151 648 163 705 c 2
 176 768 l 2
 246 1100 381 1425 771 1425 c 2
 787 1425 l 2
EndSplineSet
Validated: 3073
EndChar

StartChar: R
Encoding: 82 82 49
Width: 1229
VWidth: 1947
GlyphClass: 2
Flags: W
HStem: 0 21G<15 234.181 841.936 1082> 598 210<399 580> 1190 210<478 997.598>
VStem: 1006 210<919.98 1169.67>
LayerCount: 2
Fore
SplineSet
662 808 m 2
 905 808 958 880 976 965 c 2
 1001 1081 l 2
 1005 1098 1006 1111 1006 1122 c 3
 1006 1158 989 1190 785 1190 c 2
 478 1190 l 1
 399 808 l 1
 662 808 l 2
785 1400 m 2
 1105 1400 1216 1313 1216 1124 c 3
 1216 1096 1213 1068 1207 1039 c 2
 1182 921 l 2
 1142 733 1011 636 807 607 c 1
 1082 0 l 1
 851 0 l 1
 580 598 l 1
 355 598 l 1
 230 0 l 1
 15 0 l 1
 308 1400 l 1
 785 1400 l 2
EndSplineSet
Validated: 3073
EndChar

StartChar: S
Encoding: 83 83 50
Width: 1229
VWidth: 2334
GlyphClass: 2
Flags: W
HStem: -25 210<358.113 709.221> 1215 210<621.297 975.719>
VStem: 292 210<886.206 1104.89> 868 210<323.043 546.194>
LayerCount: 2
Fore
SplineSet
300 327 m 1
 311 200 460 185 510 185 c 2
 533 185 l 2
 702 185 839 303 857 388 c 2
 862 416 l 2
 864 426 868 457 868 464 c 3
 868 523 834 547 781 567 c 2
 450 692 l 2
 393 713 292 785 292 974 c 3
 292 998 293 1023 300 1055 c 2
 306 1082 l 2
 339 1244 519 1425 775 1425 c 2
 785 1425 l 2
 861 1425 1144 1424 1203 1187 c 1
 999 1137 l 1
 980 1212 837 1215 785 1215 c 2
 775 1215 l 2
 608 1215 523 1090 512 1038 c 2
 506 1011 l 2
 504 1000 502 989 502 974 c 3
 502 919 517 890 529 886 c 10
 855 763 l 2
 1071 682 1078 541 1078 464 c 3
 1078 435 1074 406 1068 376 c 2
 1063 348 l 2
 1023 158 794 -25 533 -25 c 2
 510 -25 l 2
 394 -25 116 20 90 327 c 1
 300 327 l 1
EndSplineSet
Validated: 3073
EndChar

StartChar: T
Encoding: 84 84 51
Width: 1229
VWidth: 1947
GlyphClass: 2
Flags: W
HStem: 0 21G<396 615.168> 1190 210<310 645 859 1235>
LayerCount: 2
Fore
SplineSet
266 1190 m 1
 310 1400 l 1
 1279 1400 l 1
 1235 1190 l 1
 859 1190 l 1
 611 0 l 1
 396 0 l 1
 645 1190 l 1
 266 1190 l 1
EndSplineSet
Validated: 3073
EndChar

StartChar: U
Encoding: 85 85 52
Width: 1229
VWidth: 1947
GlyphClass: 2
Flags: W
HStem: -25 210<350.042 711.069> 1380 20G<302.849 522 1061.85 1281>
VStem: 94 210<231.81 568.891>
LayerCount: 2
Fore
SplineSet
307 375 m 2
 304 359 304 344 304 330 c 3
 304 214 411 185 510 185 c 2
 533 185 l 2
 726 185 837 297 862 417 c 2
 1066 1400 l 1
 1281 1400 l 1
 1066 375 l 2
 1021 159 827 -25 533 -25 c 2
 510 -25 l 2
 238 -25 94 135 94 330 c 3
 94 359 97 388 103 417 c 2
 307 1400 l 1
 522 1400 l 1
 307 375 l 2
EndSplineSet
Validated: 3073
EndChar

StartChar: V
Encoding: 86 86 53
Width: 1229
VWidth: 1708
GlyphClass: 2
Flags: W
HStem: -25 21G<400.796 619.568> 1380 20G<246 458.241 1113.44 1362>
LayerCount: 2
Fore
SplineSet
403 -25 m 1
 246 1400 l 1
 456 1400 l 1
 573 356 l 1
 1124 1400 l 1
 1362 1400 l 1
 609 -25 l 1
 403 -25 l 1
EndSplineSet
Validated: 3073
EndChar

StartChar: W
Encoding: 87 87 54
Width: 1229
VWidth: 1947
GlyphClass: 2
Flags: W
HStem: 0 21G<103 334.832 691.56 915.2> 1380 20G<251.842 464 1117.78 1343>
LayerCount: 2
Fore
SplineSet
103 0 m 1
 103 3 104 7 104 10 c 2
 254 1400 l 1
 464 1400 l 1
 376 579 l 1
 669 1174 l 1
 819 1174 l 1
 863 561 l 1
 1124 1400 l 1
 1343 1400 l 1
 909 0 l 1
 693 0 l 1
 646 653 l 1
 325 0 l 1
 103 0 l 1
EndSplineSet
Validated: 3073
EndChar

StartChar: X
Encoding: 88 88 55
Width: 1229
VWidth: 1947
GlyphClass: 2
Flags: W
HStem: 0 21G<-47 239.098 802.236 1036> 1380 20G<265 498.789 1062.94 1349>
LayerCount: 2
Fore
SplineSet
-47 0 m 1
 531 718 l 1
 265 1400 l 1
 491 1400 l 1
 683 907 l 1
 1079 1400 l 1
 1349 1400 l 1
 771 681 l 1
 1036 0 l 1
 810 0 l 1
 619 492 l 1
 223 0 l 1
 -47 0 l 1
EndSplineSet
Validated: 3073
EndChar

StartChar: Y
Encoding: 89 89 56
Width: 1229
VWidth: 1947
GlyphClass: 2
Flags: W
HStem: -25 21G<391 610.153> 1380 20G<260 483.46 1081.21 1350>
LayerCount: 2
Fore
SplineSet
391 -25 m 1
 503 510 l 1
 260 1400 l 1
 478 1400 l 1
 653 759 l 1
 1095 1400 l 1
 1350 1400 l 1
 709 471 l 1
 606 -25 l 1
 391 -25 l 1
EndSplineSet
Validated: 3073
EndChar

StartChar: Z
Encoding: 90 90 57
Width: 1229
VWidth: 1947
GlyphClass: 2
Flags: W
HStem: 0 211<346 987> 1190 210<310 955>
LayerCount: 2
Fore
SplineSet
266 1190 m 1
 310 1400 l 1
 1279 1400 l 1
 1234 1184 l 1
 346 211 l 1
 1031 211 l 1
 987 0 l 1
 18 0 l 1
 62 212 l 1
 955 1190 l 1
 266 1190 l 1
EndSplineSet
Validated: 3073
EndChar

StartChar: bracketleft
Encoding: 91 91 58
Width: 1229
VWidth: 1947
GlyphClass: 2
Flags: W
HStem: -185 210<467 741> 1375 210<747 1064>
LayerCount: 2
Fore
SplineSet
747 1375 m 1
 467 25 l 1
 785 25 l 1
 741 -185 l 1
 209 -185 l 1
 577 1585 l 1
 1108 1585 l 1
 1064 1375 l 1
 747 1375 l 1
EndSplineSet
Validated: 3073
EndChar

StartChar: backslash
Encoding: 92 92 59
Width: 1229
VWidth: 1708
GlyphClass: 2
Flags: W
VStem: 320 657
LayerCount: 2
Fore
SplineSet
320 1393 m 1
 520 1457 l 1
 977 7 l 1
 777 -57 l 1
 320 1393 l 1
EndSplineSet
Validated: 3073
EndChar

StartChar: bracketright
Encoding: 93 93 60
Width: 1229
VWidth: 1947
GlyphClass: 2
Flags: W
HStem: -185 210<202 553> 1375 210<525 833>
LayerCount: 2
Fore
SplineSet
481 1375 m 1
 525 1585 l 1
 1091 1585 l 1
 723 -185 l 1
 158 -185 l 1
 202 25 l 1
 553 25 l 1
 833 1375 l 1
 481 1375 l 1
EndSplineSet
Validated: 3073
EndChar

StartChar: asciicircum
Encoding: 94 94 61
Width: 1229
VWidth: 1947
GlyphClass: 2
Flags: W
HStem: 891 534
LayerCount: 2
Fore
SplineSet
885 1425 m 1
 1124 1018 l 1
 942 912 l 1
 769 1208 l 1
 451 891 l 1
 303 1039 l 1
 690 1425 l 1
 885 1425 l 1
EndSplineSet
Validated: 3073
EndChar

StartChar: underscore
Encoding: 95 95 62
Width: 1229
VWidth: 1947
GlyphClass: 2
Flags: W
HStem: -197 210<141 828>
LayerCount: 2
Fore
SplineSet
828 13 m 1
 828 -197 l 1
 141 -197 l 1
 141 13 l 1
 828 13 l 1
EndSplineSet
Validated: 3073
EndChar

StartChar: grave
Encoding: 96 96 63
Width: 1229
VWidth: 1708
GlyphClass: 2
Flags: W
HStem: 938 528
VStem: 557 399
LayerCount: 2
Fore
SplineSet
948 1038 m 2
 952 1032 956 1023 956 998 c 3
 956 968 927 938 891 938 c 3
 870 938 849 947 834 965 c 2
 606 1232 l 2
 573 1271 557 1312 557 1352 c 3
 557 1424 614 1466 677 1466 c 3
 725 1466 774 1437 800 1378 c 2
 948 1038 l 2
EndSplineSet
Validated: 3073
EndChar

StartChar: a
Encoding: 97 97 64
Width: 1229
VWidth: 1947
GlyphClass: 2
Flags: W
HStem: -25 210<372.413 720.44 1067.63 1073> 839 210<512.005 895.05>
VStem: 103 210<243.89 471.985>
LayerCount: 2
Fore
SplineSet
712 1049 m 2
 792 1049 890 1045 983 990 c 1
 996 1050 l 1
 1211 1050 l 1
 1060 329 l 2
 1057 316 1056 304 1056 291 c 3
 1056 243 1074 183 1116 182 c 1
 1073 -25 l 1
 957 -24 927 36 901 100 c 1
 807 20 682 -25 535 -25 c 2
 510 -25 l 2
 267 -25 103 143 103 360 c 3
 103 391 107 422 113 454 c 2
 145 613 l 2
 198 877 400 1049 688 1049 c 2
 712 1049 l 2
917 717 m 3
 917 827 840 839 712 839 c 2
 688 839 l 2
 488 839 383 724 351 571 c 2
 319 412 l 2
 315 393 313 376 313 360 c 3
 313 253 389 185 510 185 c 2
 535 185 l 2
 725 185 838 286 867 431 c 2
 904 613 l 2
 914 664 917 696 917 717 c 3
EndSplineSet
Validated: 3073
EndChar

StartChar: b
Encoding: 98 98 65
Width: 1229
VWidth: 2334
GlyphClass: 2
Flags: W
HStem: -23 208<376.955 702.365> 839 210<505.11 872.805> 1380 20G<302.84 521>
VStem: 911 210<561.183 795.236>
LayerCount: 2
Fore
SplineSet
689 1049 m 2
 712 1049 l 2
 900 1049 1121 976 1121 685 c 3
 1121 648 1117 609 1109 570 c 2
 1079 430 l 2
 1027 187 851 -23 584 -23 c 2
 465 -23 l 2
 378 -23 303 16 244 65 c 1
 226 -23 l 1
 11 -23 l 1
 307 1400 l 1
 521 1400 l 1
 437 997 l 1
 510 1031 595 1049 689 1049 c 2
911 685 m 3
 911 829 795 839 712 839 c 2
 689 839 l 2
 489 839 383 723 350 570 c 2
 319 428 l 2
 315 409 314 391 314 374 c 3
 314 261 390 185 510 185 c 2
 533 185 l 2
 727 185 838 313 873 474 c 2
 903 614 l 2
 908 641 911 664 911 685 c 3
EndSplineSet
Validated: 3073
EndChar

StartChar: c
Encoding: 99 99 66
Width: 1229
VWidth: 2334
GlyphClass: 2
Flags: W
HStem: -25 210<366.121 741.464> 838 210<501.87 904.038>
VStem: 101 210<243.362 593.93>
LayerCount: 2
Fore
SplineSet
925 766 m 1
 916 792 873 838 712 838 c 2
 689 838 l 2
 488 838 382 724 350 571 c 2
 317 412 l 2
 313 392 311 373 311 356 c 3
 311 248 390 185 510 185 c 2
 533 185 l 2
 718 185 796 256 826 299 c 1
 998 179 l 1
 908 49 745 -25 533 -25 c 2
 510 -25 l 2
 276 -25 101 127 101 356 c 3
 101 388 104 421 111 454 c 2
 144 613 l 2
 199 876 402 1048 689 1048 c 2
 712 1048 l 2
 1044 1048 1113 862 1129 814 c 1
 925 766 l 1
EndSplineSet
Validated: 3073
EndChar

StartChar: d
Encoding: 100 100 67
Width: 1229
VWidth: 1947
GlyphClass: 2
Flags: W
HStem: -23 208<372.387 719.433> 839 210<502.285 870.694> 1380 20G<1060.88 1280>
VStem: 101 210<242.358 593.933>
LayerCount: 2
Fore
SplineSet
712 839 m 2
 689 839 l 2
 489 839 382 724 350 571 c 2
 317 412 l 2
 313 392 311 373 311 356 c 3
 311 247 390 185 510 185 c 2
 533 185 l 2
 723 185 834 285 865 430 c 2
 910 639 l 2
 914 656 916 673 916 690 c 3
 916 769 870 839 712 839 c 2
689 1049 m 2
 712 1049 l 2
 789 1049 889 1040 978 978 c 1
 1065 1400 l 1
 1280 1400 l 1
 985 -23 l 1
 770 -23 l 1
 780 25 l 1
 726 -15 600 -23 546 -23 c 10
 462 -23 l 18
 330 -23 102 21 101 356 c 3
 101 388 104 421 111 454 c 2
 144 613 l 2
 199 876 401 1049 689 1049 c 2
EndSplineSet
Validated: 3073
EndChar

StartChar: e
Encoding: 101 101 68
Width: 1229
VWidth: 1947
GlyphClass: 2
Flags: W
HStem: -25 210<359.347 744.068> 453 210<372 919.993> 839 210<493.634 881.66>
VStem: 93 210<233.753 450.656> 920 210<663 796.814>
LayerCount: 2
Fore
SplineSet
712 1049 m 2
 1070 1049 1130 803 1130 713 c 3
 1130 689 1127 656 1121 628 c 2
 1084 453 l 1
 326 453 l 1
 306 357 l 2
 304 349 303 339 303 328 c 3
 303 242 379 185 510 185 c 2
 533 185 l 2
 654 185 777 218 829 306 c 1
 1009 198 l 1
 920 48 743 -25 533 -25 c 2
 510 -25 l 2
 236 -25 93 146 93 328 c 3
 93 357 96 378 100 399 c 2
 156 670 l 2
 202 889 398 1049 689 1049 c 2
 712 1049 l 2
914 663 m 1
 919 689 920 699 920 709 c 3
 920 808 827 839 712 839 c 2
 689 839 l 2
 513 839 409 762 372 663 c 1
 914 663 l 1
EndSplineSet
Validated: 3073
EndChar

StartChar: g
Encoding: 103 103 70
Width: 1229
VWidth: 2334
GlyphClass: 2
Flags: W
HStem: -399 210<193 639.453> -25 210<372.413 725.186> 839 210<512.005 895.452> 1003 20G<985.758 1205>
VStem: 103 210<243.89 471.985>
LayerCount: 2
Fore
SplineSet
712 1049 m 2xe8
 794 1049 890 1044 983 990 c 1
 990 1023 l 1
 1205 1023 l 1xd8
 983 -22 l 2
 934 -252 729 -399 439 -399 c 2
 149 -399 l 1
 193 -189 l 1
 439 -189 l 2
 641 -189 752 -100 778 23 c 1
 707 -8 625 -25 535 -25 c 2
 510 -25 l 2
 267 -25 103 143 103 360 c 3
 103 391 107 422 113 454 c 2
 145 613 l 2
 198 877 400 1049 688 1049 c 2
 712 1049 l 2xe8
917 717 m 3
 917 827 842 839 712 839 c 2
 688 839 l 2xe8
 488 839 383 724 351 571 c 2
 319 412 l 2
 315 393 313 376 313 360 c 3
 313 253 389 185 510 185 c 2
 535 185 l 2
 712 185 830 270 858 402 c 2
 911 654 l 2
 915 675 917 703 917 717 c 3
EndSplineSet
Validated: 3073
EndChar

StartChar: h
Encoding: 104 104 71
Width: 1229
VWidth: 2334
GlyphClass: 2
Flags: W
HStem: 0 21G<16 235.175 775 994.183> 839 210<537.783 877.984> 1380 20G<302.843 522>
VStem: 923 211<492.539 797.621>
LayerCount: 2
Fore
SplineSet
912 645 m 2
 919 678 923 704 923 722 c 3
 923 803 824 839 712 839 c 2
 689 839 l 2
 529 839 375 691 350 570 c 2
 231 0 l 1
 16 0 l 1
 307 1400 l 1
 522 1400 l 1
 433 971 l 1
 510 1018 598 1049 689 1049 c 2
 712 1049 l 2
 912 1049 1119 968 1134 721 c 3
 1134 700 1132 680 1127 655 c 2
 990 0 l 1
 775 -0 l 1
 912 645 l 2
EndSplineSet
Validated: 3073
EndChar

StartChar: k
Encoding: 107 107 74
Width: 1229
VWidth: 1947
GlyphClass: 2
Flags: W
HStem: 0 21G<16 234.234 739.288 1081> 1405 20G<309.818 528>
LayerCount: 2
Fore
SplineSet
1004 831 m 2
 898 782 815 741 747 687 c 2
 635 599 l 1
 662 466 772 273 833 219 c 2
 1081 0 l 1
 762 0 l 1
 695 59 l 2
 619 126 521 281 465 434 c 1
 383 335 314 228 259 137 c 1
 230 0 l 1
 16 0 l 1
 314 1425 l 1
 528 1425 l 1
 363 635 l 1
 404 678 448 720 495 757 c 2
 617 851 l 2
 701 916 808 973 916 1023 c 2
 1045 1081 l 1
 1133 891 l 1
 1004 831 l 2
EndSplineSet
Validated: 3073
EndChar

StartChar: l
Encoding: 108 108 75
Width: 1229
VWidth: 1947
GlyphClass: 2
Flags: W
HStem: 0 210<165 442 656 877> 1190 210<413 645>
LayerCount: 2
Fore
SplineSet
369 1190 m 1
 413 1400 l 1
 903 1400 l 1
 656 210 l 1
 921 210 l 1
 877 0 l 1
 121 0 l 1
 165 210 l 1
 442 210 l 1
 645 1190 l 1
 369 1190 l 1
EndSplineSet
Validated: 3073
EndChar

StartChar: m
Encoding: 109 109 76
Width: 1229
VWidth: 2334
GlyphClass: 2
Flags: W
HStem: 0 21G<-9 211.244 395 615.214 798 1018.19> 839 209<424.842 564.997 824.578 967.997>
VStem: 968 210<716.97 836.441>
LayerCount: 2
Fore
SplineSet
-9 0 m 1
 211 1048 l 1
 425 1048 l 1
 422 1032 l 1
 458 1044 489 1048 512 1048 c 2
 564 1048 l 2
 627 1048 691 1013 721 979 c 1
 799 1038 867 1048 901 1048 c 2
 960 1048 l 2
 1166 1048 1178 870 1178 819 c 3
 1178 795 1176 770 1169 739 c 2
 1014 0 l 1
 798 0 l 1
 963 783 l 2
 965 790 968 804 968 819 c 3
 968 832 964 839 932 839 c 2
 918 839 l 2
 810 839 757 692 749 655 c 2
 611 0 l 1
 395 0 l 1
 560 782 l 2
 564 800 565 812 565 823 c 3
 565 833 561 839 536 839 c 2
 522 839 l 2
 414 839 356 701 346 655 c 2
 207 0 l 1
 -9 0 l 1
EndSplineSet
Validated: 3073
EndChar

StartChar: n
Encoding: 110 110 77
Width: 1229
VWidth: 2334
GlyphClass: 2
Flags: W
HStem: 0 21G<16 235.167 775 994.18> 839 209<557.332 888.323>
VStem: 924 210<623.612 804.988>
LayerCount: 2
Fore
SplineSet
16 0 m 1
 233 1048 l 1
 448 1048 l 1
 431 966 l 1
 502 1011 594 1048 661 1048 c 2
 755 1048 l 2
 1080 1048 1134 858 1134 729 c 3
 1134 696 1131 674 1125 646 c 2
 990 0 l 1
 775 0 l 1
 919 690 l 2
 922 705 924 719 924 731 c 3
 924 817 816 839 712 839 c 2
 689 839 l 2
 532 839 363 634 346 552 c 2
 231 0 l 1
 16 0 l 1
EndSplineSet
Validated: 3073
EndChar

StartChar: o
Encoding: 111 111 78
Width: 1229
VWidth: 1947
GlyphClass: 2
Flags: W
HStem: -25 210<358.957 712.146> 838 210<504.083 865.222>
VStem: 105 210<229.111 595.702> 907 210<437.833 798.499>
LayerCount: 2
Fore
SplineSet
907 676 m 3
 907 833 804 838 724 838 c 2
 672 838 l 2
 476 838 378 711 343 537 c 2
 328 463 l 2
 320 424 315 388 315 357 c 3
 315 193 418 185 494 185 c 2
 541 185 l 2
 625 185 817 205 880 504 c 2
 896 581 l 2
 903 617 907 648 907 676 c 3
724 1048 m 2
 837 1048 1117 1035 1117 676 c 3
 1117 631 1112 584 1102 537 c 2
 1086 462 l 2
 1028 191 853 -25 541 -25 c 2
 494 -25 l 2
 411 -25 105 -15 105 357 c 3
 105 406 111 454 122 505 c 2
 137 579 l 2
 192 847 372 1048 672 1048 c 2
 724 1048 l 2
EndSplineSet
Validated: 3073
EndChar

StartChar: p
Encoding: 112 112 79
Width: 1229
VWidth: 1947
GlyphClass: 2
Flags: W
HStem: -375 21G<-63 156.147> -25 210<367.118 699.773> 839 209<502.817 871.008>
VStem: 911 210<561.183 796.885>
LayerCount: 2
Fore
SplineSet
911 685 m 3
 911 829 795 839 712 839 c 2
 689 839 l 2
 489 839 382 724 350 571 c 2
 317 412 l 2
 313 392 311 373 311 356 c 3
 311 247 390 185 510 185 c 2
 533 185 l 2
 727 185 838 313 873 474 c 2
 903 614 l 2
 908 641 911 664 911 685 c 3
152 -375 m 1
 -63 -375 l 1
 234 1048 l 1
 449 1048 l 1
 438 997 l 1
 501 1026 573 1048 651 1048 c 2
 730 1048 l 2
 1042 1048 1121 834 1121 685 c 3
 1121 648 1117 609 1109 570 c 2
 1079 430 l 2
 1024 172 827 -25 533 -25 c 2
 510 -25 l 2
 405 -25 312 5 242 59 c 1
 152 -375 l 1
EndSplineSet
Validated: 3073
EndChar

StartChar: q
Encoding: 113 113 80
Width: 1229
VWidth: 1947
GlyphClass: 2
Flags: W
HStem: -375 21G<697 915.174> -25 210<373.961 704.389> 839 209<509.235 870.673>
VStem: 103 210<244.201 600.291>
LayerCount: 2
Fore
SplineSet
911 685 m 3
 911 829 792 839 712 839 c 2
 689 839 l 2
 489 839 382 724 350 571 c 2
 319 422 l 2
 315 401 313 381 313 364 c 3
 313 250 393 185 510 185 c 2
 533 185 l 2
 727 185 840 313 873 474 c 2
 907 638 l 2
 910 655 911 671 911 685 c 3
697 -375 m 1
 781 30 l 1
 709 -5 626 -25 533 -25 c 2
 510 -25 l 2
 271 -25 103 139 103 364 c 3
 103 397 106 430 113 464 c 2
 144 613 l 2
 197 864 383 1048 651 1048 c 2
 730 1048 l 2
 803 1048 896 1035 978 978 c 1
 993 1048 l 1
 1208 1048 l 1
 911 -375 l 1
 697 -375 l 1
EndSplineSet
Validated: 3073
EndChar

StartChar: r
Encoding: 114 114 81
Width: 1229
VWidth: 1947
GlyphClass: 2
Flags: W
HStem: 0 21G<16 235.169> 839 209<627.834 967.858>
LayerCount: 2
Fore
SplineSet
977 789 m 1
 965 806 912 839 807 839 c 2
 784 839 l 2
 594 839 360 618 325 451 c 2
 231 -0 l 1
 16 0 l 1
 234 1048 l 1
 448 1048 l 1
 421 917 l 1
 522 991 639 1048 754 1048 c 2
 849 1048 l 2
 1041 1048 1132 934 1161 891 c 1
 977 789 l 1
EndSplineSet
Validated: 3073
EndChar

StartChar: s
Encoding: 115 115 82
Width: 1229
VWidth: 1947
GlyphClass: 2
Flags: W
HStem: -25 210<325.388 759.648> 839 210<472.541 877.53>
VStem: 214 210<692.371 791.995> 846 210<250.723 382.357>
LayerCount: 2
Fore
SplineSet
842 317 m 2
 845 329 846 336 846 345 c 3
 846 355 839 373 817 379 c 2
 397 494 l 2
 270 529 214 638 214 733 c 3
 214 846 294 1049 689 1049 c 2
 712 1049 l 2
 894 1049 1036 978 1118 831 c 1
 924 749 l 1
 890 812 794 839 712 839 c 2
 689 839 l 2
 552 839 424 797 424 733 c 3
 424 723 427 703 453 696 c 2
 873 581 l 2
 995 548 1056 439 1056 340 c 0
 1056 332 1054 303 1052 295 c 2
 1043 251 l 2
 1009 87 793 -25 533 -25 c 2
 468 -25 l 2
 205 -25 84 159 84 296 c 1
 294 298 l 1
 294 259 326 185 468 185 c 2
 533 185 l 2
 653 185 821 224 837 295 c 2
 842 317 l 2
EndSplineSet
Validated: 3073
EndChar

StartChar: t
Encoding: 116 116 83
Width: 1229
VWidth: 1947
GlyphClass: 2
Flags: W
HStem: -25 210<527.596 749.002> 799 210<227 428 698 954> 1405 20G<580 802>
VStem: 306 210<202.731 362.566>
LayerCount: 2
Fore
SplineSet
637 -25 m 2
 614 -25 l 2
 438 -25 306 105 306 270 c 3
 306 303 310 329 316 352 c 2
 428 799 l 1
 184 799 l 1
 227 1009 l 1
 481 1009 l 1
 585 1425 l 1
 802 1425 l 1
 698 1009 l 1
 997 1009 l 1
 954 799 l 1
 645 799 l 1
 522 308 l 2
 519 295 516 281 516 270 c 3
 516 222 555 185 614 185 c 2
 637 185 l 2
 704 185 771 235 805 288 c 1
 981 174 l 1
 931 96 808 -25 637 -25 c 2
EndSplineSet
Validated: 3073
EndChar

StartChar: u
Encoding: 117 117 84
Width: 1229
VWidth: 2334
GlyphClass: 2
Flags: W
HStem: -27 212<326.789 638.802> 1003 20G<224.865 443 982.88 1202>
VStem: 89 210<218.41 423.304>
LayerCount: 2
Fore
SplineSet
481 -27 m 2
 216 -27 89 118 89 301 c 3
 89 334 93 366 100 399 c 2
 229 1023 l 1
 443 1023 l 1
 306 357 l 2
 302 336 299 317 299 301 c 3
 299 240 322 185 481 185 c 2
 506 185 l 2
 654 185 858 395 877 489 c 2
 987 1023 l 1
 1202 1023 l 1
 984 -27 l 1
 770 -27 l 1
 792 79 l 1
 704 17 604 -27 506 -27 c 2
 481 -27 l 2
EndSplineSet
Validated: 3073
EndChar

StartChar: v
Encoding: 118 118 85
Width: 1229
VWidth: 1947
GlyphClass: 2
Flags: W
HStem: -25 21G<443.465 597.39> 1003 20G<189.919 401 979.308 1276>
VStem: 184 211<604.885 1023>
LayerCount: 2
Fore
SplineSet
397 939 m 2
 396 917 395 895 395 875 c 3
 395 736 420 652 459 548 c 2
 538 337 l 1
 656 564 l 2
 723 693 869 877 905 919 c 2
 997 1023 l 1
 1276 1023 l 1
 1065 783 l 2
 1028 740 904 584 840 462 c 2
 587 -25 l 1
 451 -25 l 1
 263 474 l 2
 208 619 184 713 184 859 c 3
 184 887 185 917 187 949 c 2
 191 1023 l 1
 401 1023 l 1
 397 939 l 2
EndSplineSet
Validated: 3073
EndChar

StartChar: w
Encoding: 119 119 86
Width: 1229
VWidth: 1947
GlyphClass: 2
Flags: W
HStem: 0 21G<138.059 327.376 741.536 924.878> 1003 20G<171.833 391 1006.44 1261>
VStem: 117 212<559 941.062>
LayerCount: 2
Fore
SplineSet
592 588 m 1
 557 540 514 464 484 394 c 2
 319 0 l 1
 139 0 l 1
 119 425 l 2
 118 455 117 486 117 518 c 3
 117 650 129 796 156 927 c 2
 176 1023 l 1
 391 1023 l 1
 362 885 l 2
 349 821 334 677 329 559 c 1
 368 635 420 717 468 767 c 2
 616 919 l 1
 779 919 l 1
 790 697 l 2
 794 606 808 548 826 500 c 1
 872 679 933 875 981 959 c 2
 1018 1023 l 1
 1261 1023 l 1
 1165 859 l 2
 1118 778 1059 571 1020 410 c 2
 920 0 l 1
 747 0 l 1
 638 399 l 2
 621 461 603 536 592 588 c 1
EndSplineSet
Validated: 3073
EndChar

StartChar: x
Encoding: 120 120 87
Width: 1229
VWidth: 1947
GlyphClass: 2
Flags: W
HStem: 0 21G<-94 288.246 777.887 1036> 1003 20G<167 426.167 975.047 1253>
LayerCount: 2
Fore
SplineSet
-94 0 m 1
 231 239 l 2
 323 307 417 385 506 467 c 1
 167 1023 l 1
 414 1023 l 1
 661 617 l 1
 761 721 844 826 910 916 c 2
 990 1023 l 1
 1253 1023 l 1
 1082 794 l 2
 998 681 895 553 774 431 c 1
 1036 0 l 1
 790 0 l 1
 618 284 l 1
 532 207 443 133 355 69 c 2
 261 0 l 1
 -94 0 l 1
EndSplineSet
Validated: 3073
EndChar

StartChar: y
Encoding: 121 121 88
Width: 1229
VWidth: 1947
GlyphClass: 2
Flags: W
HStem: -399 210<151.598 386.562> 1003 20G<202 419.941 1022.28 1272>
LayerCount: 2
Fore
SplineSet
638 -158 m 2
 560 -304 435 -399 271 -399 c 2
 244 -399 l 2
 170 -399 56 -361 -36 -256 c 2
 -50 -240 l 1
 106 -100 l 1
 130 -126 l 2
 161 -159 201 -189 244 -189 c 2
 271 -189 l 2
 379 -189 431 -102 452 -62 c 2
 555 131 l 1
 421 325 278 630 248 786 c 2
 202 1023 l 1
 416 1023 l 1
 456 820 l 2
 470 747 552 533 668 342 c 1
 1033 1023 l 1
 1272 1023 l 1
 638 -158 l 2
EndSplineSet
Validated: 3073
EndChar

StartChar: z
Encoding: 122 122 89
Width: 1229
VWidth: 1947
GlyphClass: 2
Flags: W
HStem: 0 210<384 985> 814 209<287 801>
LayerCount: 2
Fore
SplineSet
243 814 m 1
 287 1023 l 1
 1199 1023 l 1
 1159 832 l 1
 384 210 l 1
 1029 210 l 1
 985 0 l 1
 17 0 l 1
 64 223 l 1
 801 814 l 1
 243 814 l 1
EndSplineSet
Validated: 3073
EndChar

StartChar: braceleft
Encoding: 123 123 90
Width: 1229
VWidth: 1947
GlyphClass: 2
Flags: W
HStem: -185 210<620.182 769> 612 210<367 461.314> 1375 210<906.5 1092>
VStem: 400 210<37.5581 347.141> 469 210<272.031 609.821>
LayerCount: 2
Fore
SplineSet
1032 1375 m 2xe8
 940 1375 856 1316 832 1200 c 2
 774 919 l 2
 756 833 706 751 635 693 c 1
 663 643 679 581 679 511 c 3xe8
 679 478 676 447 669 415 c 2
 616 161 l 2
 612 142 610 127 610 113 c 3
 610 83 614 25 708 25 c 2
 813 25 l 1
 769 -185 l 1
 708 -185 l 2
 528 -185 400 -68 400 113 c 3xf0
 400 143 403 174 410 205 c 2
 463 457 l 2
 467 475 469 493 469 511 c 3
 469 558 457 612 412 612 c 2
 323 612 l 1
 367 822 l 1
 412 822 l 2
 491 822 555 896 568 961 c 2
 626 1242 l 2
 672 1464 848 1585 1032 1585 c 2
 1136 1585 l 1
 1092 1375 l 1
 1032 1375 l 2xe8
EndSplineSet
Validated: 3073
EndChar

StartChar: bar
Encoding: 124 124 91
Width: 1229
VWidth: 1947
GlyphClass: 2
Flags: W
VStem: 381 536
LayerCount: 2
Fore
SplineSet
381 -72 m 1
 702 1473 l 1
 917 1473 l 1
 596 -72 l 1
 381 -72 l 1
EndSplineSet
Validated: 3073
EndChar

StartChar: braceright
Encoding: 125 125 92
Width: 1229
VWidth: 1947
GlyphClass: 2
Flags: W
HStem: -185 210<202 373.736> 612 210<823.075 934> 1375 210<525 667.958>
VStem: 607 210<825.088 1119.94> 678 210<1179.83 1361.01>
LayerCount: 2
Fore
SplineSet
579 1585 m 2xe8
 762 1585 888 1467 888 1290 c 3xe8
 888 1260 884 1230 878 1199 c 2
 820 919 l 2
 818 911 817 903 817 893 c 3
 817 822 867 822 884 822 c 2
 978 822 l 1
 934 612 l 1
 884 612 l 2
 771 612 724 459 715 415 c 2
 662 161 l 2
 615 -62 440 -185 255 -185 c 2
 158 -185 l 1
 202 25 l 1
 255 25 l 2
 341 25 429 78 456 205 c 2
 509 457 l 2
 527 541 574 649 656 726 c 1
 624 774 607 832 607 893 c 3xf0
 607 920 610 941 614 961 c 2
 672 1243 l 2
 676 1261 678 1277 678 1290 c 3
 678 1335 661 1375 579 1375 c 2
 481 1375 l 1
 525 1585 l 1
 579 1585 l 2xe8
EndSplineSet
Validated: 3073
EndChar

StartChar: asciitilde
Encoding: 126 126 93
Width: 1229
VWidth: 1947
GlyphClass: 2
Flags: W
HStem: 706 210<801.197 892.316> 842 210<492.484 591.757>
LayerCount: 2
Fore
SplineSet
253 843 m 1x40
 363 1000 492 1052 545 1052 c 2
 559 1052 l 2x40
 561 1052 678 1047 745 979 c 2
 801 922 l 2
 805 918 822 916 826 916 c 2
 834 916 l 2
 852 916 915 969 936 1013 c 1
 1124 921 l 1
 1108 889 996 706 834 706 c 2
 821 706 l 2x80
 776 706 698 727 651 774 c 2
 592 835 l 2
 587 840 570 842 564 842 c 2
 554 842 l 2
 541 842 485.5 804 435 737 c 1
 253 843 l 1x40
EndSplineSet
Validated: 3073
EndChar

StartChar: cent
Encoding: 162 162 96
Width: 1229
VWidth: 2334
GlyphClass: 2
Flags: W
HStem: -26 210<583 773.133> 839 211<504.701 666>
VStem: 101 210<236.842 593.586>
LayerCount: 2
Fore
SplineSet
369 225 m 1
 666 839 l 1
 481 830 381 719 350 571 c 2
 317 412 l 2
 313 392 311 372 311 355 c 3
 311 298 332 254 369 225 c 1
846 1213 m 1
 1036 1121 l 1
 981 1008 l 1
 1068 976 1122 862 1133 832 c 1
 929 784 l 1
 927 790 916 806 889 818 c 1
 583 184 l 1
 745 192 795 236 820 272 c 1
 992 150 l 1
 897 16 736 -26 532 -26 c 2
 481 -26 l 1
 419 -156 l 1
 229 -64 l 1
 277 34 l 1
 168 100 101 214 101 355 c 3
 101 387 104 420 111 454 c 2
 144 613 l 2
 199 876 401 1050 689 1050 c 2
 712 1050 l 2
 732 1050 750 1050 767 1049 c 1
 846 1213 l 1
EndSplineSet
Validated: 3073
EndChar

StartChar: sterling
Encoding: 163 163 97
Width: 1229
VWidth: 1947
GlyphClass: 2
Flags: W
HStem: -25 210<662.25 927.603> 611 210<228 310 627 940> 1215 210<592.948 1005.1>
VStem: 271 210<861.573 1120.99> 418 210<455.576 611>
LayerCount: 2
Fore
SplineSet
830 1215 m 2xf0
 807 1215 l 2
 690 1215 519 1186 491 1057 c 2
 485 1029 l 2
 483 1021 481 1006 481 998 c 3xf0
 481 954 500 906 510 889 c 2
 549 821 l 1
 984 821 l 1
 940 611 l 1
 627 611 l 1
 628 600 628 588 628 577 c 3
 628 548 626 521 621 495 c 2
 612 451 l 2
 597 380 555 313 499 252 c 1
 547 247 587 235 618 217 c 2
 662 191 l 2
 667 188 693 185 721 185 c 2
 768 185 l 2
 811 185 863 191 938 234 c 1
 1042 52 l 1
 964 8 878 -25 768 -25 c 2
 721 -25 l 2
 691 -25 604 -19 554 11 c 2
 514 35 l 2
 503 42 465 46 441 46 c 2
 402 46 l 2
 306 46 192 31 106 -9 c 2
 59 -31 l 1
 -33 157 l 1
 26 187 l 2
 172 261 385 396 406 495 c 2
 415 537 l 2
 418 553 418 569 418 577 c 3
 418 585 420 597 418 611 c 1xe8
 185 611 l 1
 228 821 l 1
 310 821 l 1
 290 868 271 932 271 998 c 3
 271 1025 274 1044 278 1064 c 2
 285 1099 l 2
 328 1306 530 1425 807 1425 c 2
 830 1425 l 2
 969 1425 1117 1384 1199 1275 c 1
 1031 1149 l 1
 1010 1177 946 1215 830 1215 c 2xf0
EndSplineSet
Validated: 3073
EndChar

StartChar: euro
Encoding: 8364 8364 98
Width: 1229
VWidth: 1947
GlyphClass: 2
Flags: W
HStem: -25 210<408.86 723.319> 429 210<122 191 449 624> 729 210<236 253 511 862> 1215 210<644.065 961.417>
VStem: 174 210<212.057 405.517> 996 210<1077.77 1178.22>
LayerCount: 2
Fore
SplineSet
384 301 m 3
 384 186 498 185 560 185 c 2
 585 185 l 2
 688 185 751 227 833 368 c 1
 1015 262 l 1
 922 102 804 -25 585 -25 c 2
 560 -25 l 2
 384 -25 174 40 174 301 c 3
 174 335 178 368 184 399 c 2
 191 429 l 1
 77 429 l 1
 122 639 l 1
 234 639 l 1
 253 729 l 1
 192 729 l 1
 236 939 l 1
 297 939 l 1
 326 1081 l 2
 353 1212 499 1425 817 1425 c 2
 843 1425 l 2
 918 1425 1176 1416 1206 1079 c 1
 996 1061 l 1
 984 1200 927 1215 843 1215 c 2
 817 1215 l 2
 607 1215 541 1082 532 1039 c 2
 511 939 l 1
 906 939 l 1
 862 729 l 1
 467 729 l 1
 449 639 l 1
 668 639 l 1
 624 429 l 1
 405 429 l 1
 390 355 l 2
 386 336 384 318 384 301 c 3
EndSplineSet
Validated: 3073
EndChar

StartChar: yen
Encoding: 165 165 99
Width: 1229
VWidth: 1947
GlyphClass: 2
Flags: W
HStem: -54 210<155 386 644 867> 287 210<225 456 728 937> 1380 20G<260 483.46 1081.21 1350>
LayerCount: 2
Fore
SplineSet
225 497 m 1
 500 497 l 1
 503 510 l 1
 260 1400 l 1
 478 1400 l 1
 653 759 l 1
 1095 1400 l 1
 1350 1400 l 1
 728 497 l 1
 981 497 l 1
 937 287 l 1
 671 287 l 1
 644 156 l 5
 911 156 l 5
 867 -54 l 5
 600 -54 l 5
 577 -160 l 1
 362 -160 l 1
 386 -54 l 5
 111 -54 l 5
 155 156 l 5
 430 156 l 5
 456 287 l 1
 181 287 l 1
 225 497 l 1
EndSplineSet
Validated: 3073
EndChar

StartChar: section
Encoding: 167 167 101
Width: 1229
VWidth: 1947
GlyphClass: 2
Flags: W
HStem: -199 210<458.54 701.723> 1384 210<609 841.063>
VStem: 161 210<93.4478 161.929 600.767 820.162> 338 211<1143.47 1328.52> 759 208<141 232.154> 921 209<610 759.893>
LayerCount: 2
Fore
SplineSet
741 1071 m 2xd0
 1076 1000 1130 780 1130 665 c 3xd4
 1130 641 1128 621 1125 608 c 2
 1116 566 l 2
 1111 541 1082 406 912 327 c 1
 958 261 967 198 967 158 c 3
 967 149 964 125 963 118 c 2
 959 97 l 2
 923 -71 778 -199 596 -199 c 3
 569 -199 540 -196 511 -190 c 2
 490 -185 l 2
 320 -149 184 -2 151 161 c 1
 357 203 l 1
 375 114 452 37 534 20 c 2
 555 16 l 2
 569 13 582 11 595 11 c 3
 679 11 733 72 753 141 c 2
 756 153 l 2
 757 156 759 167 759 169 c 3
 759 214 673 274 576 295 c 2
 553 300 l 2
 284 357 161 540 161 703 c 3xe8
 161 725 164 746 168 767 c 2
 177 809 l 2
 181 826 234 1011 397 1052 c 1
 349 1122 338 1183 338 1225 c 3
 338 1235 342 1270 344 1280 c 2
 349 1300 l 2
 382 1453 523 1594 708 1594 c 3
 734 1594 761 1591 788 1585 c 2
 810 1581 l 2
 978 1545 1110 1401 1145 1243 c 1
 939 1196 l 1
 920 1281 847 1358 766 1375 c 2
 744 1380 l 2
 737 1382 714 1384 710 1384 c 3
 627 1384 567 1317 554 1257 c 2
 550 1236 l 2
 549 1232 549 1229 549 1225 c 3
 549 1170 624 1096 719 1076 c 2
 741 1071 l 2xd0
915 628 m 2
 916 633 921 662 921 668 c 3
 921 743 823 839 697 866 c 2
 674 870 l 2
 645 876 617 879 591 879 c 3
 479 879 395 829 382 766 c 2
 373 724 l 2
 372 718 371 711 371 704 c 3xe4
 371 642 424 543 597 506 c 2
 619 501 l 2
 647 495 675 492 701 492 c 3
 811 492 892 543 910 610 c 2
 915 628 l 2
EndSplineSet
Validated: 3073
EndChar

StartChar: copyright
Encoding: 169 169 103
Width: 1229
VWidth: 1947
GlyphClass: 2
Flags: W
HStem: -5 170<418.225 808.941> 270 210<534.285 740.778> 694 210<534.82 738.626> 1041 170<425.464 823.962>
VStem: 5 170<418.261 782.485> 306 210<498.048 675.97> 1052 170<403.637 793.392>
LayerCount: 2
Fore
SplineSet
854 364 m 1
 830 337 762 270 623 270 c 3
 428 270 306 413 306 587 c 3
 306 765 449 904 624 904 c 3
 672 904 774 897 855 811 c 1
 703 667 l 1
 683 688 649 694 627 694 c 3
 589 694 516 681 516 587 c 3
 516 534 540 480 623 480 c 3
 672 480 693 498 704 510 c 1
 854 364 l 1
1052 579 m 3
 1052 738 979 1041 623 1041 c 3
 345 1041 175 812 175 595 c 3
 175 441 296 165 613 165 c 3
 893 165 1052 379 1052 579 c 3
622 1211 m 3
 1093 1211 1222 816 1222 581 c 3
 1222 286 987 -5 613 -5 c 3
 188 -5 5 368 5 596 c 3
 5 901 246 1211 622 1211 c 3
EndSplineSet
Validated: 3073
EndChar

StartChar: ordfeminine
Encoding: 170 170 104
Width: 1229
VWidth: 1947
GlyphClass: 2
Flags: W
HStem: 200 210<203 920> 483 210<507.113 726.525> 899 210<568.242 834> 1268 210<644.287 880.814>
VStem: 292 211<707.561 837.086> 888 210<1109.28 1258.65>
LayerCount: 2
Fore
SplineSet
628 693 m 2
 706 693 817 810 827 862 c 2
 834 899 l 1
 697 899 l 2
 609 899 520 831 510 782 c 0
 507 768 503 749 503 745 c 3
 503 712 580 693 611 693 c 2
 628 693 l 2
965 410 m 1
 920 200 l 1
 159 200 l 1
 203 410 l 1
 965 410 l 1
785 530 m 1
 707 485 661 483 628 483 c 2
 611 483 l 2
 388 483 292 625 292 743 c 3
 292 758 294 773 297 787 c 2
 304 822 l 2
 334 972 508 1109 697 1109 c 2
 878 1109 l 1
 883 1134 l 2
 886 1150 888 1165 888 1178 c 3
 888 1237 863 1268 791 1268 c 2
 774 1268 l 2
 693 1268 637 1226 605 1182 c 1
 435 1304 l 1
 514 1414 636 1478 774 1478 c 2
 791 1478 l 2
 977 1478 1098 1357 1098 1178 c 3
 1098 1149 1095 1120 1089 1092 c 2
 968 510 l 1
 790 510 l 1
 785 530 l 1
EndSplineSet
Validated: 3073
EndChar

StartChar: guillemotleft
Encoding: 171 171 105
Width: 1229
VWidth: 1947
GlyphClass: 2
Flags: W
LayerCount: 2
Fore
SplineSet
745 113 m 1
 626 423 l 1
 654 558 l 1
 895 859 l 1
 1059 729 l 1
 850 466 l 1
 844 441 l 1
 941 189 l 1
 745 113 l 1
316 113 m 1
 197 423 l 1
 225 558 l 1
 466 859 l 1
 630 729 l 1
 421 466 l 1
 415 441 l 1
 512 189 l 1
 316 113 l 1
EndSplineSet
Validated: 3073
EndChar

StartChar: logicalnot
Encoding: 172 172 106
Width: 1229
VWidth: 1708
GlyphClass: 2
Flags: W
HStem: 489 210<269 756>
LayerCount: 2
Fore
SplineSet
704 234 m 1
 756 489 l 1
 225 489 l 1
 269 699 l 1
 1014 699 l 1
 918 234 l 1
 704 234 l 1
EndSplineSet
Validated: 3073
EndChar

StartChar: softhyphen
Encoding: 173 173 107
Width: 1229
VWidth: 1947
GlyphClass: 2
Flags: W
HStem: 489 210<406 848>
VStem: 406 442<489 699>
LayerCount: 2
Fore
SplineSet
848 699 m 1
 848 489 l 1
 406 489 l 1
 406 699 l 1
 848 699 l 1
EndSplineSet
Validated: 3073
EndChar

StartChar: registered
Encoding: 174 174 108
Width: 1229
VWidth: 1947
GlyphClass: 2
Flags: W
HStem: -5 170<418.225 808.941> 737 140<576 690.112> 1041 170<425.464 823.962>
VStem: 5 170<418.261 782.485> 386 210<310 437> 386 190<597 737> 700 190<600.107 734.45> 1052 170<403.637 793.392>
LayerCount: 2
Fore
SplineSet
1052 579 m 3xf3
 1052 738 979 1041 623 1041 c 3
 345 1041 175 812 175 595 c 3
 175 441 296 165 613 165 c 3
 893 165 1052 379 1052 579 c 3xf3
622 1211 m 3
 1093 1211 1222 816 1222 581 c 3
 1222 286 987 -5 613 -5 c 3
 188 -5 5 368 5 596 c 3
 5 901 246 1211 622 1211 c 3
576 597 m 1xf7
 643 597 l 2
 672 597 700 622 700 660 c 2
 700 665 l 2
 700 712 674 737 643 737 c 2
 576 737 l 1
 576 597 l 1xf7
386 877 m 1
 643 877 l 2
 858 877 890 761 890 684 c 2
 890 648 l 2
 890 575 857 523 809 490 c 1
 886 385 l 1
 706 275 l 1
 596 437 l 1
 596 310 l 1
 386 310 l 1xfb
 386 877 l 1
EndSplineSet
Validated: 3073
EndChar

StartChar: degree
Encoding: 176 176 110
Width: 1229
VWidth: 1947
GlyphClass: 2
Flags: W
HStem: 777 188<666.11 822.759> 1211 188<666.11 822.759>
VStem: 444 189<993.628 1182.75> 856 189<993.249 1182.75>
LayerCount: 2
Fore
SplineSet
744 1399 m 3
 822 1399 901 1369 958 1307 c 0
 1016 1246 1045 1167 1045 1088 c 3
 1045 1009 1016 930 958 869 c 0
 901 807 822 777 744 777 c 3
 667 777 588 807 531 869 c 0
 456 949 444 1039 444 1088 c 3
 444 1167 474 1246 531 1307 c 0
 588 1369 667 1399 744 1399 c 3
670 1180 m 0
 648 1156 633 1125 633 1088 c 3
 633 1051 648 1020 670 996 c 0
 689 976 716 965 744 965 c 3
 773 965 800 976 819 996 c 0
 841 1020 856 1051 856 1088 c 3
 856 1125 841 1156 819 1180 c 0
 800 1200 773 1211 744 1211 c 3
 716 1211 689 1200 670 1180 c 0
EndSplineSet
Validated: 3073
EndChar

StartChar: plusminus
Encoding: 177 177 111
Width: 1229
VWidth: 1947
GlyphClass: 2
Flags: W
HStem: 78 210<181 896> 733 210<319 548 806 1034>
LayerCount: 2
Fore
SplineSet
485 430 m 1
 548 733 l 1
 275 733 l 1
 319 943 l 1
 592 943 l 1
 655 1247 l 1
 869 1247 l 1
 806 943 l 1
 1078 943 l 1
 1034 733 l 1
 762 733 l 1
 700 430 l 1
 485 430 l 1
940 288 m 1
 896 78 l 1
 137 78 l 1
 181 288 l 1
 940 288 l 1
EndSplineSet
Validated: 3073
EndChar

StartChar: twosuperior
Encoding: 178 178 112
Width: 1229
VWidth: 2334
GlyphClass: 2
Flags: W
HStem: 536 210<689 889> 1238 210<722.554 850.471>
VStem: 858 210<1144.14 1236.97>
LayerCount: 2
Fore
SplineSet
527 1285 m 6
 527 1285 618 1448 802 1448 c 6
 814 1448 l 6
 1018 1448 1068 1317 1068 1233 c 7
 1068 1222 1063 1187 1061 1175 c 6
 1056 1154 l 6
 1044 1103 998 1026 935 969 c 6
 689 746 l 5
 933 746 l 5
 889 536 l 5
 370 536 l 5
 412 739 l 5
 456 811 525 880 561 913 c 6
 801 1131 l 6
 843 1169 858 1189 858 1222 c 6
 858 1227 l 6
 858 1235 827 1238 814 1238 c 6
 802 1238 l 6
 758 1238 737 1216 692 1158 c 5
 527 1285 l 6
EndSplineSet
Validated: 3073
EndChar

StartChar: threesuperior
Encoding: 179 179 113
Width: 1229
VWidth: 2334
GlyphClass: 2
Flags: W
HStem: 519 210<600.016 710.845> 917 190<636 745.189> 1239 200<675.906 790.995>
VStem: 746 210<758.181 916.491> 791 211<1122.86 1237.37>
LayerCount: 2
Fore
SplineSet
775 1439 m 2xe8
 787 1439 l 2
 916 1439 1002 1343 1002 1226 c 0xe8
 1002 1216 999 1184 997 1173 c 2
 993 1153 l 2
 988 1127 972 1072 916 1016 c 1
 941 974 956 923 956 870 c 0
 956 852 955 835 950 812 c 2
 946 792 l 1
 907 646 823 519 639 519 c 2
 628 519 l 2
 506 519 390 624 390 763 c 1
 600 763 l 1
 600 739 622 729 628 729 c 2
 639 729 l 2
 706 729 727 782 740 834 c 2
 743 847 l 2
 744 852 746 864 746 870 c 0xf0
 746 899 735 917 715 917 c 2
 597 917 l 1
 636 1107 l 1
 711 1107 l 2
 735 1107 791 1146 791 1212 c 3
 791 1216 784 1239 770 1239 c 2
 758 1239 l 2
 733 1238 698 1225 669 1191 c 1
 515 1299 l 1
 529 1320 618 1439 775 1439 c 2xe8
EndSplineSet
Validated: 3073
EndChar

StartChar: micro
Encoding: 181 181 115
Width: 1229
VWidth: 2334
GlyphClass: 2
Flags: W
HStem: -25 210<354.655 682.985> -0 21G<806.5 1024> 1003 20G<224.833 444 983.828 1203>
LayerCount: 2
Fore
SplineSet
-161 -348 m 1xa0
 -164 -345 l 1
 -92 -280 -14 -143 15 -4 c 2
 229 1023 l 1
 444 1023 l 1
 311 384 l 2
 308 368 306 353 306 339 c 3
 306 216 414 185 510 185 c 2
 533 185 l 2xa0
 692 185 845 338 862 419 c 2
 988 1023 l 1
 1203 1023 l 1
 1012 107 l 2
 1010 99 1010 91 1010 82 c 3
 1010 54 1017 23 1024 0 c 1
 808 -0 l 1x60
 805 17 803 35 802 54 c 1
 722 6 630 -25 533 -25 c 2
 510 -25 l 2
 397 -25 308 4 241 51 c 1
 221 -46 l 2
 201 -145 158 -254 100 -348 c 1
 -161 -348 l 1xa0
EndSplineSet
Validated: 3073
EndChar

StartChar: paragraph
Encoding: 182 182 116
Width: 1229
VWidth: 1947
GlyphClass: 2
Flags: W
HStem: 0 21G<397 615.17 775 994.159> 1295 210<881 1045>
LayerCount: 2
Fore
SplineSet
530 638 m 1
 351 644 223 746 223 947 c 3
 223 987 227 1029 237 1076 c 2
 250 1138 l 2
 294 1350 516 1505 699 1505 c 2
 1303 1505 l 1
 990 0 l 1
 775 0 l 1
 1045 1295 l 1
 881 1295 l 1
 611 0 l 1
 397 0 l 1
 530 638 l 1
EndSplineSet
Validated: 3073
EndChar

StartChar: periodcentered
Encoding: 183 183 117
Width: 1229
VWidth: 1947
GlyphClass: 2
Flags: W
HStem: 576 310<555.563 770.162>
VStem: 510 306<622.375 840>
LayerCount: 2
Fore
SplineSet
816 731 m 0
 816 648 752 576 662 576 c 0
 574 576 510 647 510 731 c 0
 510 812 572 886 663 886 c 0
 753 886 816 815 816 731 c 0
EndSplineSet
Validated: 3073
EndChar

StartChar: onesuperior
Encoding: 185 185 119
Width: 1229
VWidth: 1708
GlyphClass: 2
Flags: W
HStem: 1405 20G<819.857 984>
VStem: 606 378
LayerCount: 2
Fore
SplineSet
606 631 m 1
 717 1171 l 1
 667 1147 l 1
 619 1215 l 1
 841 1425 l 1
 984 1425 l 1
 820 631 l 1
 606 631 l 1
EndSplineSet
Validated: 3073
EndChar

StartChar: ordmasculine
Encoding: 186 186 120
Width: 1229
VWidth: 1947
GlyphClass: 2
Flags: W
HStem: 200 210<209 923> 488 210<531.712 751.388> 1273 210<675.746 886.558>
VStem: 290 210<732.197 1028.79> 907 210<901.42 1254.63>
LayerCount: 2
Fore
SplineSet
907 1130 m 3
 907 1260 846 1273 791 1273 c 3
 587 1273 500 935 500 837 c 3
 500 714 596 698 628 698 c 3
 864 698 907 1043 907 1130 c 3
290 837 m 3
 290 1056 472 1483 791 1483 c 3
 948 1483 1117 1432 1117 1130 c 3
 1117 924 1019 488 628 488 c 3
 592 488 290 498 290 837 c 3
966 410 m 1
 923 200 l 1
 165 200 l 1
 209 410 l 1
 966 410 l 1
EndSplineSet
Validated: 3073
EndChar

StartChar: guillemotright
Encoding: 187 187 121
Width: 1229
VWidth: 1947
GlyphClass: 2
Flags: W
LayerCount: 2
Fore
SplineSet
355 478 m 1
 360 503 l 1
 263 756 l 1
 459 832 l 1
 578 521 l 1
 551 386 l 1
 309 85 l 1
 145 217 l 1
 355 478 l 1
783 478 m 1
 789 503 l 1
 692 756 l 1
 888 832 l 1
 1007 521 l 1
 979 386 l 1
 738 85 l 1
 574 217 l 1
 783 478 l 1
EndSplineSet
Validated: 3073
EndChar

StartChar: OE
Encoding: 338 338 122
Width: 1229
VWidth: 1947
GlyphClass: 2
Flags: W
HStem: 0 210<237.386 465.911 699 1027> 612 210<827 1065> 1190 210<460.375 668.032 903 1275>
VStem: 23 210<220.374 482.656>
LayerCount: 2
Fore
SplineSet
580 1190 m 2
 495 1190 407 1115 397 1068 c 2
 243 319 l 2
 239 302 233 266 233 263 c 3
 233 252 257 210 332 210 c 2
 361 210 l 2
 435 210 499 277 507 316 c 2
 661 1057 l 2
 667 1084 672 1112 672 1123 c 3
 672 1152 654 1190 609 1190 c 2
 580 1190 l 2
580 1400 m 2
 609 1400 l 2
 653 1400 693 1390 727 1374 c 1
 733 1400 l 1
 1319 1400 l 1
 1275 1190 l 1
 903 1190 l 1
 827 822 l 1
 1109 822 l 1
 1065 612 l 1
 783 612 l 1
 699 210 l 1
 1071 210 l 1
 1027 0 l 1
 441 0 l 1
 443 11 l 1
 416 4 389 0 361 0 c 2
 332 0 l 2
 154 0 23 130 23 275 c 3
 23 283 26 314 28 322 c 2
 191 1112 l 2
 239 1344 474 1400 580 1400 c 2
EndSplineSet
Validated: 3073
EndChar

StartChar: oe
Encoding: 339 339 123
Width: 1229
VWidth: 1947
GlyphClass: 2
Flags: W
HStem: -25 210<280.138 425.527 661.854 807.822> 435 210<747 910> 839 210<413.718 560.584 797.302 940.922>
VStem: 69 210<189.229 313.135> 941 210<646.859 837.44>
LayerCount: 2
Fore
SplineSet
890 839 m 3
 816 839 773 773 766 736 c 2
 747 645 l 1
 910 645 l 1
 938 778 l 2
 939 783 941 793 941 803 c 3
 941 828 936 839 890 839 c 3
667 266 m 2
 664 253 661 235 661 229 c 3
 661 198 673 185 710 185 c 3
 789 185 825 238 835 288 c 1
 1041 248 l 1
 1013 105 895 -25 710 -25 c 3
 635 -25 573 -1 529 40 c 1
 474 -1 407 -25 333 -25 c 3
 168 -25 69 79 69 222 c 3
 69 242 71 263 76 289 c 2
 179 778 l 2
 209 922 328 1049 512 1049 c 3
 587 1049 648 1024 692 984 c 1
 745 1023 812 1049 890 1049 c 3
 1052 1049 1151 947 1151 803 c 3
 1151 783 1149 762 1144 736 c 2
 1080 435 l 1
 702 435 l 1
 667 266 l 2
385 736 m 2
 282 247 l 2
 280 234 279 227 279 222 c 3
 279 197 284 185 333 185 c 3
 407 185 449 252 457 289 c 2
 560 778 l 2
 561 784 562 788 562 795 c 3
 562 826 549 839 512 839 c 3
 433 839 395 785 385 736 c 2
EndSplineSet
Validated: 3073
EndChar

StartChar: AE
Encoding: 198 198 132
Width: 1229
VWidth: 1947
GlyphClass: 2
Flags: W
HStem: 0 210<755 1027> 642 210<533 630 888 1071> 1190 210<664.013 743 958 1275>
LayerCount: 2
Fore
SplineSet
674 852 m 1
 743 1187 l 1
 680 1178 666 1156 647 1112 c 2
 533 852 l 1
 674 852 l 1
-71 0 m 1
 455 1196 l 2
 487 1268 551 1400 788 1400 c 2
 1319 1400 l 1
 1275 1190 l 1
 958 1190 l 1
 888 852 l 1
 1115 852 l 1
 1071 642 l 1
 845 642 l 1
 755 210 l 1
 1071 210 l 1
 1027 0 l 1
 497 0 l 1
 630 642 l 1
 441 642 l 1
 158 0 l 1
 -71 0 l 1
EndSplineSet
Validated: 3073
EndChar

StartChar: Eth
Encoding: 208 208 142
Width: 1229
VWidth: 1947
GlyphClass: 2
Flags: W
HStem: 0 210<359 660.463> 635 210<144 233 491 619> 1190 210<562 907.526>
VStem: 960 210<681.954 1134.87>
LayerCount: 2
Fore
SplineSet
746 1190 m 2
 562 1190 l 1
 491 845 l 1
 662 845 l 1
 619 635 l 1
 447 635 l 1
 359 210 l 1
 499 210 l 2
 739 210 860 422 921 708 c 2
 933 767 l 2
 954 872 960 938 960 981 c 3
 960 1128 910 1190 746 1190 c 2
101 0 m 1
 233 635 l 1
 100 635 l 1
 144 845 l 1
 276 845 l 1
 392 1400 l 1
 746 1400 l 2
 950 1400 1170 1316 1170 981 c 3
 1170 937 1169 873 1149 777 c 2
 1114 609 l 2
 992 22 621 0 499 0 c 2
 101 0 l 1
EndSplineSet
Validated: 3073
EndChar

StartChar: multiply
Encoding: 215 215 149
Width: 1229
VWidth: 1708
GlyphClass: 2
Flags: W
LayerCount: 2
Fore
SplineSet
890 974 m 1
 1028 816 l 1
 772 593 l 1
 925 386 l 1
 755 262 l 1
 613 455 l 1
 371 245 l 1
 233 403 l 1
 488 625 l 1
 335 833 l 1
 505 957 l 1
 647 763 l 1
 890 974 l 1
EndSplineSet
Validated: 3073
EndChar

StartChar: Thorn
Encoding: 222 222 156
Width: 1229
VWidth: 1947
GlyphClass: 2
Flags: W
HStem: 0 21G<16 235.174> 345 210<347 797.988> 1105 210<506 938.851>
VStem: 972 210<852.137 1073.79>
LayerCount: 2
Fore
SplineSet
767 1315 m 2
 1069 1315 1182 1183 1182 973 c 3
 1182 945 1178 900 1170 862 c 2
 1144 737 l 2
 1098 521 905 345 609 345 c 2
 303 345 l 1
 231 0 l 1
 16 0 l 1
 336 1533 l 1
 551 1533 l 1
 506 1315 l 1
 767 1315 l 2
972 973 m 3
 972 1036 965 1105 767 1105 c 2
 462 1105 l 1
 347 555 l 1
 609 555 l 2
 804 555 912 661 938 781 c 2
 964 904 l 2
 969 930 972 953 972 973 c 3
EndSplineSet
Validated: 3073
EndChar

StartChar: germandbls
Encoding: 223 223 157
Width: 1229
VWidth: 1947
GlyphClass: 2
Flags: W
HStem: -25 210<478.24 730.91> 663 210<584 832.604> 1215 210<532.675 928.379>
VStem: 886 210<453.31 628.316> 942 210<981.869 1195.21>
LayerCount: 2
Fore
SplineSet
942 1138 m 3xe8
 942 1214 840 1215 790 1215 c 2
 767 1215 l 2
 533 1215 470 1150 453 1069 c 2
 153 -366 l 1
 -61 -366 l 1
 247 1111 l 2
 294 1335 489 1425 767 1425 c 2
 790 1425 l 2
 1101 1425 1152 1253 1152 1138 c 3xe8
 1152 1117 1151 1094 1145 1066 c 2
 1138 1032 l 2
 1115 921 1067 836 996 776 c 1
 1064 717 1096 636 1096 549 c 3
 1096 521 1093 493 1087 465 c 2
 1066 366 l 2
 1020 151 829 -25 594 -25 c 2
 584 -25 l 2
 509 -25 427 -19 347 44 c 1
 477 208 l 1
 503 187 559 185 584 185 c 2
 594 185 l 2
 722 185 834 282 860 408 c 2
 881 509 l 2
 884 524 886 537 886 549 c 3xf0
 886 662 730 663 675 663 c 2
 584 663 l 1
 584 873 l 1
 609 873 l 2
 839 873 906 949 932 1074 c 2
 939 1108 l 2
 942 1123 942 1132 942 1138 c 3xe8
EndSplineSet
Validated: 3073
EndChar

StartChar: ae
Encoding: 230 230 164
Width: 1229
VWidth: 1947
GlyphClass: 2
Flags: W
HStem: -25 210<244.695 421.482 663.12 837.698> 435 210<300.213 488 747 962.617> 839 210<381.178 559.681 798.936 978.389>
VStem: 33 210<191.693 373.711> 980 210<647.726 835.144>
LayerCount: 2
Fore
SplineSet
425 435 m 2
 290 435 267 343 263 327 c 0
 256 296 243 237 243 234 c 3
 243 201 276 185 324 185 c 3
 388 185 448 244 456 283 c 10
 488 435 l 1
 425 435 l 2
951 645 m 1
 973 727 980 765 980 789 c 3
 980 823 947 839 899 839 c 3
 832 839 776 786 766 736 c 2
 747 645 l 1
 951 645 l 1
532 645 m 1
 554 739 561 777 561 791 c 3
 561 823 542 839 503 839 c 3
 371 839 350 751 347 736 c 1
 141 778 l 1
 183 983 394 1049 496 1049 c 3
 567 1049 636 1031 692 979 c 1
 748 1021 818 1049 899 1049 c 3
 1076 1049 1190 933 1190 789 c 3
 1190 778 1187 747 1185 736 c 2
 1121 435 l 1
 702 435 l 1
 664 254 662 243 662 233 c 3
 662 201 680 185 720 185 c 3
 784 185 856 222 876 288 c 1
 1082 248 l 1
 1015 24 828 -25 720 -25 c 3
 642 -25 578 2 532 44 c 1
 460 -6 378 -25 324 -25 c 3
 148 -25 33 91 33 234 c 3
 33 249 39 286 43 305 c 2
 52 344 l 2
 118 628 370 645 425 645 c 2
 532 645 l 1
EndSplineSet
Validated: 3073
EndChar

StartChar: eth
Encoding: 240 240 174
Width: 1229
VWidth: 1947
GlyphClass: 2
Flags: W
HStem: -25 210<382.668 699.567> 721 210<496.768 832.969> 1401 20G<1057.67 1133.74>
VStem: 104 210<250.59 542.881> 885 237<429.829 767>
LayerCount: 2
Fore
SplineSet
326 457 m 2
 319 429 l 2
 315 409 314 392 314 374 c 3
 314 261 390 185 510 185 c 2
 533 185 l 2
 727 185 841 314 874 475 c 2
 880 499 l 2
 884 519 885 530 885 550 c 3
 885 627 846 721 688 721 c 2
 664 721 l 2
 472 721 352 586 326 457 c 2
664 931 m 2
 688 931 l 2
 750 931 805 922 854 904 c 1
 824 965 783 1029 735 1091 c 1
 383 991 l 1
 325 1193 l 1
 578 1265 l 1
 547 1295 514 1323 480 1350 c 1
 612 1514 l 1
 673 1465 742 1402 808 1330 c 1
 1128 1421 l 1
 1186 1219 l 1
 950 1152 l 1
 1049 1008 1122 846 1122 688 c 3
 1122 656 1120 624 1113 592 c 2
 1078 429 l 2
 1022 171 827 -25 533 -25 c 2
 510 -25 l 2
 268 -25 104 151 104 374 c 3
 104 407 108 441 115 475 c 2
 122 503 l 2
 168 727 370 931 664 931 c 2
EndSplineSet
Validated: 3073
EndChar

StartChar: divide
Encoding: 247 247 181
Width: 1229
VWidth: 1947
GlyphClass: 2
Flags: W
HStem: 146 230<470.635 645.991> 489 210<269 985> 836 230<605.635 780.991>
VStem: 443 229<173.231 349.836> 578 229<863.231 1039.84>
LayerCount: 2
Fore
SplineSet
672 262 m 0xf0
 672 204 626 146 559 146 c 0
 493 146 443 206 443 262 c 0
 443 313 491 376 559 376 c 0
 628 376 672 313 672 262 c 0xf0
807 952 m 0xe8
 807 894 761 836 694 836 c 0
 628 836 578 896 578 952 c 0
 578 1003 626 1066 694 1066 c 0
 763 1066 807 1003 807 952 c 0xe8
1029 699 m 1
 985 489 l 1
 225 489 l 1
 269 699 l 1
 1029 699 l 1
EndSplineSet
Validated: 3073
EndChar

StartChar: oslash
Encoding: 248 248 182
Width: 1229
VWidth: 1947
GlyphClass: 2
Flags: W
HStem: -25 211<463.447 697.447> 836 212<518.481 761.619>
LayerCount: 2
Fore
SplineSet
885 657 m 1
 463 186 l 1
 541 186 l 2
 726 186 813 295 855 494 c 2
 873 580 l 2
 876 596 884 642 885 657 c 1
672 836 m 2
 495 836 407 727 368 537 c 2
 351 453 l 2
 347 434 338 380 337 361 c 1
 764 836 l 1
 672 836 l 2
724 1048 m 2
 793 1048 849 1042 919 1009 c 1
 1027 1129 l 1
 1183 989 l 1
 1066 858 l 1
 1085 813 1097 760 1097 694 c 3
 1097 643 1090 591 1079 538 c 2
 1061 452 l 2
 1039 345 957 -25 541 -25 c 2
 494 -25 l 2
 427 -25 373 -20 306 12 c 1
 189 -118 l 1
 33 22 l 1
 158 162 l 1
 138 208 126 263 126 330 c 3
 126 384 134 438 145 495 c 2
 162 579 l 2
 182 677 264 1048 672 1048 c 2
 724 1048 l 2
EndSplineSet
Validated: 3073
EndChar

StartChar: thorn
Encoding: 254 254 188
Width: 1229
VWidth: 1947
GlyphClass: 2
Flags: W
HStem: -25 210<351.915 707.257> 839 210<515.58 860.705> 1380 20G<302.845 522>
VStem: 904 210<430.862 801.074>
LayerCount: 2
Fore
SplineSet
904 670 m 3
 904 834 795 839 721 839 c 2
 683 839 l 2
 509 839 380 716 355 597 c 2
 307 372 l 2
 304 357 303 343 303 331 c 3
 303 214 419 185 508 185 c 2
 535 185 l 2
 749 185 847 327 883 516 c 2
 890 553 l 2
 899 599 904 636 904 670 c 3
1114 670 m 3
 1114 618 1104 555 1096 511 c 2
 1089 474 l 2
 999 -4 652 -25 535 -25 c 2
 508 -25 l 2
 401 -25 310 2 241 49 c 1
 151 -381 l 1
 -63 -381 l 1
 307 1400 l 1
 522 1400 l 1
 437 992 l 1
 510 1028 594 1049 683 1049 c 2
 721 1049 l 2
 849 1049 1114 1024 1114 670 c 3
EndSplineSet
Validated: 3073
EndChar

StartChar: minus
Encoding: 8722 8722 190
Width: 1229
VWidth: 1708
GlyphClass: 2
Flags: W
HStem: 489 210<247 1006>
LayerCount: 2
Fore
SplineSet
1006 699 m 1
 1006 489 l 1
 247 489 l 1
 247 699 l 1
 1006 699 l 1
EndSplineSet
Validated: 3073
EndChar

StartChar: gravemodifier
Encoding: 715 715 193
Width: 1229
VWidth: 2334
GlyphClass: 2
Flags: MW
HStem: 1329 387
VStem: 706 356
DStem2: 862 1716 706 1601 0.59239 -0.805651<0.236946 337.615>
LayerCount: 2
Fore
SplineSet
1062 1444 m 5
 906 1329 l 5
 706 1601 l 5
 862 1716 l 5
 1062 1444 l 5
EndSplineSet
Validated: 3073
EndChar

StartChar: acute
Encoding: 180 180 194
Width: 1229
VWidth: 1947
GlyphClass: 2
Flags: MW
HStem: 1180 495
VStem: 572 478
DStem2: 572 1312 715 1180 0.678196 0.734881<0 493.935>
LayerCount: 2
Fore
SplineSet
715 1180 m 5
 572 1312 l 5
 907 1675 l 5
 1050 1543 l 5
 715 1180 l 5
EndSplineSet
Validated: 3073
EndChar

StartChar: circumflex
Encoding: 710 710 195
Width: 1229
VWidth: 1947
GlyphClass: 2
Flags: W
HStem: 1396 242
VStem: 521 581
LayerCount: 2
Fore
SplineSet
918 1638 m 1
 1102 1524 l 1
 1022 1396 l 1
 833 1514 l 1
 587 1393 l 1
 521 1527 l 1
 744 1638 l 1
 918 1638 l 1
EndSplineSet
Validated: 3073
EndChar

StartChar: tilde
Encoding: 732 732 196
Width: 1229
VWidth: 1947
GlyphClass: 2
Flags: W
HStem: 1447 150<893.476 1031.55> 1537 150<628.391 768.47>
LayerCount: 2
Fore
SplineSet
502 1576 m 2x40
 567 1653 662 1687 702 1687 c 2
 718 1687 l 2x40
 781 1687 845 1660 876 1627 c 2
 893 1609 l 2
 903 1599 923 1597 940 1597 c 2
 957 1597 l 2
 988 1597 1020 1625 1044 1655 c 2
 1063 1679 l 1
 1181 1585 l 1
 1162 1561 l 2
 1079 1456 984 1447 957 1447 c 2
 940 1447 l 2x80
 856 1447 805 1484 782 1508 c 2
 769 1522 l 2
 758 1533 727 1537 718 1537 c 2
 701 1537 l 2
 685 1536 661 1533 616 1480 c 2
 594 1454 l 1
 480 1550 l 1
 502 1576 l 2x40
EndSplineSet
Validated: 3073
EndChar

StartChar: macronmodifier
Encoding: 713 713 197
Width: 1229
VWidth: 1947
GlyphClass: 2
Flags: W
HStem: 1463 150<596 1049>
VStem: 596 453<1463 1613>
LayerCount: 2
Fore
SplineSet
596 1463 m 1
 596 1613 l 1
 1049 1613 l 1
 1049 1463 l 1
 596 1463 l 1
EndSplineSet
Validated: 3073
EndChar

StartChar: breve
Encoding: 728 728 198
Width: 1229
VWidth: 1947
GlyphClass: 2
Flags: W
HStem: 1405 150<692.925 951.666>
VStem: 539 580
LayerCount: 2
Fore
SplineSet
809 1405 m 0
 694 1405 597 1461 539 1552 c 1
 665 1632 l 1
 711 1560 780 1555 809 1555 c 0
 834 1555 922 1559 1015 1647 c 1
 1119 1539 l 1
 981 1408 843 1405 809 1405 c 0
EndSplineSet
Validated: 3073
EndChar

StartChar: dotaccent
Encoding: 729 729 199
Width: 1229
VWidth: 1947
GlyphClass: 2
Flags: W
HStem: 1347 320<717.455 938.726>
VStem: 669 320<1396.75 1617.25>
LayerCount: 2
Fore
SplineSet
669 1507 m 0
 669 1595 738 1667 828 1667 c 0
 916 1667 989 1595 989 1507 c 0
 989 1419 916 1347 828 1347 c 0
 738 1347 669 1419 669 1507 c 0
EndSplineSet
Validated: 3073
EndChar

StartChar: dieresis
Encoding: 168 168 200
Width: 1229
VWidth: 1947
GlyphClass: 2
Flags: W
HStem: 1381 284<491.109 675.625 930.591 1113.68>
VStem: 453 262<1420.36 1626.62> 892 261<1420.73 1627.09>
LayerCount: 2
Fore
SplineSet
583 1381 m 3
 515 1381 453 1445 453 1523 c 3
 453 1610 523 1665 585 1665 c 3
 657 1665 715 1601 715 1528 c 3
 715 1448 654 1381 583 1381 c 3
1021 1381 m 3
 954 1381 892 1446 892 1523 c 3
 892 1605 957 1665 1024 1665 c 3
 1087 1665 1153 1613 1153 1528 c 3
 1153 1442 1086 1381 1021 1381 c 3
EndSplineSet
Validated: 3073
EndChar

StartChar: ring
Encoding: 730 730 202
Width: 1229
VWidth: 1947
GlyphClass: 2
Flags: W
HStem: 1223 110<726.515 881.788> 1517 110<726.515 881.788>
VStem: 602 110<1346.23 1503.77> 896 110<1348.51 1501.49>
LayerCount: 2
Fore
SplineSet
712 1425 m 0
 712 1374 752 1333 803 1333 c 0
 854 1333 896 1374 896 1425 c 0
 896 1476 854 1517 803 1517 c 0
 752 1517 712 1476 712 1425 c 0
602 1425 m 0
 602 1537 690 1627 802 1627 c 0
 914 1627 1006 1537 1006 1425 c 0
 1006 1313 914 1223 802 1223 c 0
 690 1223 602 1313 602 1425 c 0
EndSplineSet
Validated: 3073
EndChar

StartChar: cedilla
Encoding: 184 184 203
Width: 1229
VWidth: 1947
GlyphClass: 2
Flags: W
HStem: -486 150<337.533 576.959> -187 199<458 597.439>
VStem: 458 140<-54.3457 12> 602 150<-307.485 -194.353>
LayerCount: 2
Fore
SplineSet
602 -237 m 3
 602 -193 534 -187 508 -187 c 2
 415 -187 l 1
 458 12 l 1
 611 12 l 1
 598 -48 l 1
 705 -76 752 -156 752 -237 c 3
 752 -395 599 -486 458 -486 c 3
 359 -486 275 -445 219 -386 c 1
 327 -282 l 1
 336 -291 385 -336 458 -336 c 3
 523 -336 602 -301 602 -237 c 3
EndSplineSet
Validated: 3073
EndChar

StartChar: ogonek
Encoding: 731 731 204
Width: 1229
VWidth: 1947
GlyphClass: 2
Flags: W
HStem: -420 150<440.756 572.253>
VStem: 289 150<-268.495 -171.632>
LayerCount: 2
Fore
SplineSet
601 -375 m 2
 571 -397 532 -420 467 -420 c 3
 380 -420 289 -352 289 -242 c 3
 289 -170 327 -106 371 -69 c 2
 504 41 l 1
 510 75 l 1
 663 75 l 1
 640 -41 l 1
 469 -183 l 2
 444 -204 439 -222 439 -239 c 3
 439 -257 450 -270 467 -270 c 3
 486 -270 500 -263 513 -253 c 2
 544 -230 l 1
 634 -350 l 1
 601 -375 l 2
EndSplineSet
Validated: 3073
EndChar

StartChar: caron
Encoding: 711 711 205
Width: 1229
VWidth: 1947
GlyphClass: 2
Flags: W
HStem: 1422 245
VStem: 543 581
LayerCount: 2
Fore
SplineSet
812 1546 m 1
 1058 1667 l 1
 1124 1533 l 1
 901 1422 l 1
 727 1422 l 1
 543 1536 l 1
 623 1664 l 1
 812 1546 l 1
EndSplineSet
Validated: 3073
EndChar

StartChar: dotlessi
Encoding: 305 305 206
Width: 1229
VWidth: 1947
GlyphClass: 2
Flags: W
HStem: 0 210<167 442 656 880> 814 209<402 567>
LayerCount: 2
Fore
SplineSet
880 0 m 1
 123 0 l 1
 167 210 l 1
 442 210 l 1
 567 814 l 1
 358 814 l 1
 402 1023 l 1
 825 1023 l 1
 656 210 l 1
 924 210 l 1
 880 0 l 1
EndSplineSet
Validated: 3073
EndChar

StartChar: currency
Encoding: 164 164 210
Width: 1229
VWidth: 1947
GlyphClass: 2
Flags: W
HStem: 361 210<493.581 737.982> 995 210<503.021 741.774>
VStem: 215 210<641.874 918.125> 809 210<645.862 918.358>
LayerCount: 2
Fore
SplineSet
1019 802 m 2
 1019 773 l 2
 1019 687 987 583 938 516 c 1
 1040 361 l 1
 864 244 l 1
 770 388 l 1
 726 371 677 361 624 361 c 2
 605 361 l 2
 506 361 421 394 356 448 c 1
 203 330 l 1
 75 496 l 1
 237 621 l 1
 223 662 215 728 215 773 c 2
 215 802 l 2
 215 885 246 953 300 1029 c 1
 166 1185 l 1
 326 1321 l 1
 458 1168 l 1
 505 1191 557 1205 613 1205 c 2
 631 1205 l 2
 733 1205 816 1165 879 1104 c 1
 998 1221 l 1
 1146 1071 l 1
 992 920 l 1
 1008 885 1019 848 1019 802 c 2
631 995 m 2
 613 995 l 2
 515 995 425 895 425 802 c 2
 425 773 l 2
 425 682 489 571 605 571 c 2
 624 571 l 2
 742 571 809 683 809 773 c 2
 809 802 l 2
 809 893 742 995 631 995 c 2
EndSplineSet
Validated: 3073
EndChar

StartChar: brokenbar
Encoding: 166 166 211
Width: 1229
VWidth: 1947
GlyphClass: 2
Flags: W
VStem: 378 539
LayerCount: 2
Fore
SplineSet
564 809 m 1
 702 1473 l 1
 917 1473 l 1
 779 809 l 1
 564 809 l 1
378 -84 m 1
 518 586 l 1
 732 586 l 1
 593 -84 l 1
 378 -84 l 1
EndSplineSet
Validated: 3073
EndChar

StartChar: onequarter
Encoding: 188 188 212
Width: 1229
VWidth: 1708
GlyphClass: 2
Flags: W
HStem: -37 206<696 767 1026 1075>
LayerCount: 2
Fore
SplineSet
1094 1487 m 1
 1264 1363 l 1
 203 -87 l 1
 33 37 l 1
 1094 1487 l 1
900 385 m 5
 696 169 l 5
 852 169 l 5
 900 385 l 5
576 246 m 5
 890 571 l 5
 1109 571 l 5
 1026 173 l 5
 1119 173 l 5
 1075 -37 l 5
 982 -37 l 5
 946 -209 l 5
 731 -209 l 5
 767 -37 l 5
 517 -37 l 5
 576 246 l 5
605 1569 m 1
 437 762 l 1
 231 804 l 1
 339 1323 l 1
 242 1279 l 1
 206 1376 l 1
 471 1569 l 1
 605 1569 l 1
EndSplineSet
Validated: 3073
EndChar

StartChar: onehalf
Encoding: 189 189 213
Width: 1229
VWidth: 1708
GlyphClass: 2
Flags: W
HStem: -315 210<841 1041> 387 210<874.554 1002.47>
VStem: 1010 210<293.144 385.971>
LayerCount: 2
Fore
SplineSet
679 434 m 2
 679 434 770 597 954 597 c 2
 966 597 l 2
 1170 597 1220 466 1220 382 c 3
 1220 371 1215 336 1213 324 c 2
 1208 303 l 2
 1196 252 1150 175 1087 118 c 2
 841 -105 l 1
 1085 -105 l 1
 1041 -315 l 1
 522 -315 l 1
 564 -112 l 1
 608 -40 677 29 713 62 c 2
 953 280 l 2
 995 318 1010 338 1010 371 c 2
 1010 376 l 2
 1010 384 979 387 966 387 c 2
 954 387 l 2
 910 387 889 365 844 307 c 1
 679 434 l 2
1094 1487 m 5
 1264 1363 l 5
 203 -87 l 5
 33 37 l 5
 1094 1487 l 5
605 1569 m 1
 437 762 l 1
 231 804 l 1
 339 1323 l 1
 242 1279 l 1
 206 1376 l 1
 471 1569 l 1
 605 1569 l 1
EndSplineSet
Validated: 3073
EndChar

StartChar: threequarters
Encoding: 190 190 214
Width: 1229
VWidth: 1708
GlyphClass: 2
Flags: W
HStem: -37 206<716 787 1046 1095> 717 210<319.016 429.845> 1115 190<355 464.189> 1437 200<394.906 509.995>
VStem: 465 210<956.181 1114.49> 510 211<1320.86 1435.37>
LayerCount: 2
Fore
SplineSet
1144 1487 m 1xf0
 1314 1363 l 1
 253 -87 l 1
 83 37 l 1
 1144 1487 l 1xf0
494 1637 m 2
 506 1637 l 2
 635 1637 721 1541 721 1424 c 0xf4
 721 1414 718 1382 716 1371 c 2
 712 1351 l 2
 707 1325 691 1270 635 1214 c 1
 660 1172 675 1121 675 1068 c 0
 675 1050 674 1034 669 1011 c 2
 665 990 l 1
 626 844 542 717 358 717 c 2
 347 717 l 2
 225 717 109 822 109 961 c 1
 319 961 l 1
 319 937 341 927 347 927 c 2
 358 927 l 2
 425 927 446 980 459 1032 c 2
 462 1045 l 2
 463 1050 465 1062 465 1068 c 0xf8
 465 1097 454 1115 434 1115 c 2
 316 1115 l 1
 355 1305 l 1
 430 1305 l 2
 454 1305 510 1344 510 1410 c 3xf4
 510 1414 503 1437 489 1437 c 2
 477 1437 l 2
 452 1436 417 1423 388 1389 c 1
 234 1497 l 1
 248 1518 337 1637 494 1637 c 2
920 385 m 1
 716 169 l 1
 872 169 l 1
 920 385 l 1
596 246 m 1
 910 571 l 1
 1129 571 l 1
 1046 173 l 1
 1139 173 l 1
 1095 -37 l 1
 1002 -37 l 1
 966 -209 l 1
 751 -209 l 1
 787 -37 l 1
 537 -37 l 1
 596 246 l 1
EndSplineSet
Validated: 3073
EndChar

StartChar: Lslash
Encoding: 321 321 216
Width: 1229
VWidth: 1947
GlyphClass: 2
Flags: W
HStem: 0 211<352 987> 1380 20G<375.903 594>
LayerCount: 2
Fore
SplineSet
987 0 m 1
 94 0 l 1
 182 430 l 1
 100 410 l 1
 50 614 l 1
 228 658 l 1
 380 1400 l 1
 594 1400 l 1
 454 714 l 1
 873 817 l 1
 923 613 l 1
 408 486 l 1
 352 211 l 1
 1031 211 l 1
 987 0 l 1
EndSplineSet
Validated: 3073
EndChar

StartChar: lslash
Encoding: 322 322 257
Width: 1229
VWidth: 1947
GlyphClass: 2
Flags: W
HStem: 0 210<165 442 656 882> 1190 210<413 645>
LayerCount: 2
Fore
SplineSet
1056 817 m 1
 1102 613 l 1
 722 526 l 1
 656 210 l 1
 926 210 l 1
 882 0 l 1
 121 0 l 1
 165 210 l 1
 442 210 l 1
 496 475 l 1
 211 410 l 1
 165 614 l 1
 543 701 l 1
 645 1190 l 1
 369 1190 l 1
 413 1400 l 1
 903 1400 l 1
 769 752 l 1
 1056 817 l 1
EndSplineSet
Validated: 3073
EndChar

StartChar: dotlessj
Encoding: 567 567 260
Width: 1229
VWidth: 1947
GlyphClass: 2
Flags: W
HStem: -399 210<399.443 589.689> 814 209<525 820>
VStem: 172 210<-169.541 -92>
LayerCount: 2
Fore
SplineSet
382 -97 m 3
 382 -126 416 -189 463 -189 c 3
 543 -189 617 -157 640 -48 c 2
 820 814 l 1
 481 814 l 1
 525 1023 l 1
 1078 1023 l 1
 846 -90 l 2
 807 -276 653 -399 463 -399 c 3
 312 -399 172 -255 172 -97 c 3
 172 -95 172 -94 172 -92 c 1
 382 -92 l 1
 382 -97 l 3
EndSplineSet
Validated: 3073
EndChar

StartChar: eng
Encoding: 331 331 261
Width: 1229
VWidth: 2334
GlyphClass: 2
Flags: W
HStem: -399 210<390.379 654.339> 0 21G<15 234.203> 839 209<560.271 887.229>
VStem: 924 210<505.5 803.378>
LayerCount: 2
Fore
SplineSet
367 -118 m 1
 374 -129 425 -189 462 -189 c 2
 531 -189 l 2
 646 -189 759 -80 784 40 c 2
 919 690 l 2
 922 705 924 719 924 731 c 3
 924 817 816 839 712 839 c 2
 689 839 l 2
 536 839 360 620 342 533 c 2
 230 0 l 1
 15 0 l 1
 234 1048 l 1
 449 1048 l 1
 431 962 l 1
 501 1009 580 1048 662 1048 c 2
 755 1048 l 2
 1114 1048 1134 864 1134 729 c 3
 1134 696 1131 674 1125 646 c 2
 990 -4 l 2
 947 -211 759 -399 531 -399 c 2
 462 -399 l 2
 344 -399 264 -319 218 -268 c 1
 367 -118 l 1
EndSplineSet
Validated: 3073
EndChar

StartChar: ellipsis
Encoding: 8230 8230 266
Width: 1229
VWidth: 1947
GlyphClass: 2
Flags: W
HStem: 24 204<103.294 269.75 494.707 658.277 916.218 1070.58>
VStem: 85 204<42.9114 209.089> 475 204<45.9114 212.089> 892 204<51.9114 218.089>
LayerCount: 2
Fore
SplineSet
892 135 m 0
 892 191 936 237 993 237 c 0
 1049 237 1096 191 1096 135 c 0
 1096 79 1049 33 993 33 c 0
 936 33 892 79 892 135 c 0
85 126 m 0
 85 182 129 228 186 228 c 0
 242 228 289 182 289 126 c 0
 289 70 242 24 186 24 c 0
 129 24 85 70 85 126 c 0
475 129 m 0
 475 185 519 231 576 231 c 0
 632 231 679 185 679 129 c 0
 679 73 632 27 576 27 c 0
 519 27 475 73 475 129 c 0
EndSplineSet
Validated: 3073
EndChar

StartChar: uparrow
Encoding: 8593 8593 267
Width: 1229
VWidth: 1708
GlyphClass: 2
Flags: W
HStem: 1024 20G<535.598 694.402>
VStem: 535 160<177 794>
LayerCount: 2
Fore
SplineSet
695 177 m 1
 535 177 l 1
 535 794 l 1
 312 564 l 1
 198 676 l 1
 555 1044 l 1
 675 1044 l 1
 1032 676 l 1
 918 564 l 1
 695 794 l 1
 695 177 l 1
EndSplineSet
Validated: 3073
EndChar

StartChar: downarrow
Encoding: 8595 8595 268
Width: 1229
VWidth: 1708
GlyphClass: 2
Flags: W
VStem: 535 160<387 991>
LayerCount: 2
Fore
SplineSet
535 991 m 1
 695 991 l 1
 695 387 l 1
 915 633 l 1
 1035 527 l 1
 675 124 l 1
 555 124 l 1
 195 527 l 1
 315 633 l 1
 535 387 l 1
 535 991 l 1
EndSplineSet
Validated: 3073
EndChar

StartChar: spaceopenbox
Encoding: 9251 9251 269
Width: 1229
VWidth: 1708
GlyphClass: 2
Flags: W
HStem: -197 350<49 234 808 948> -197 210<234 778>
LayerCount: 2
Fore
SplineSet
808 153 m 1x80
 1023 153 l 1
 948 -197 l 1x80
 -26 -197 l 1x40
 49 153 l 1
 264 153 l 1x80
 234 13 l 1
 778 13 l 1x40
 808 153 l 1x80
EndSplineSet
Validated: 3073
EndChar

StartChar: foursuperior
Encoding: 8308 8308 271
Width: 1229
VWidth: 1947
GlyphClass: 2
Flags: W
HStem: 712 210<610 735 993 1031> 1405 20G<832.755 1098>
LayerCount: 2
Fore
SplineSet
818 1110 m 1
 610 922 l 1
 779 922 l 1
 818 1110 l 1
320 944 m 1
 855 1425 l 1
 1098 1425 l 1
 993 922 l 1
 1075 922 l 1
 1031 712 l 1
 950 712 l 1
 915 542 l 1
 700 542 l 1
 735 712 l 1
 272 712 l 1
 320 944 l 1
EndSplineSet
Validated: 3073
EndChar

StartChar: Eng
Encoding: 330 330 273
Width: 1229
VWidth: 2334
GlyphClass: 2
Flags: W
HStem: -399 210<386.253 654.425> -0 21G<16 234.189> 1215 210<643.882 953.907>
VStem: 996 211<858.141 1171.91>
LayerCount: 2
Fore
SplineSet
462 -189 m 2
 531 -189 l 2
 646 -189 759 -82 784 40 c 2
 992 1044 l 2
 995 1058 996 1071 996 1083 c 3
 996 1170 926 1215 790 1215 c 2
 767 1215 l 2
 615 1215 438 991 412 869 c 2
 230 0 l 1
 16 -0 l 1
 312 1425 l 1
 527 1425 l 1
 508 1336 l 1
 586 1390 675 1425 767 1425 c 2
 790 1425 l 2
 1047 1425 1207 1295 1207 1085 c 27
 1207 1052 1204 1030 1198 1002 c 2
 990 -4 l 2
 948 -205 759 -399 531 -399 c 2
 462 -399 l 2
 358 -399 241 -341 194 -237 c 1
 386 -149 l 1
 391 -161 422 -189 462 -189 c 2
EndSplineSet
Validated: 3073
EndChar

StartChar: dcroat
Encoding: 273 273 274
Width: 1229
VWidth: 1947
GlyphClass: 2
Flags: W
HStem: -25 210<356.673 692.031> 0 21G<741 959.124> 839 210<496.278 841.709> 1125 210<736 973 1231 1286> 1380 20G<1025.69 1243>
VStem: 100 210<233.74 468.986>
LayerCount: 2
Fore
SplineSet
694 1049 m 2xbc
 768 1049 856 1043 944 985 c 1
 973 1125 l 1
 693 1125 l 1
 736 1335 l 1
 1016 1335 l 1
 1030 1400 l 1
 1243 1400 l 1
 1231 1335 l 1
 1330 1335 l 1
 1286 1125 l 1
 1187 1125 l 1
 955 0 l 1
 741 0 l 1x7c
 744 20 l 1
 677 -9 601 -25 514 -25 c 2
 491 -25 l 2
 252 -25 100 133 100 348 c 3
 100 383 103 418 111 454 c 2
 144 613 l 2
 198 875 381 1049 671 1049 c 2
 694 1049 l 2xbc
875 696 m 3
 875 833 771 839 694 839 c 2
 671 839 l 2
 471 839 382 725 350 571 c 2
 317 412 l 2
 312 389 310 367 310 348 c 3
 310 217 406 185 491 185 c 2
 514 185 l 2xbc
 713 185 799 298 832 454 c 2
 865 613 l 2
 871 644 875 672 875 696 c 3
EndSplineSet
Validated: 3073
EndChar

StartChar: bullet
Encoding: 8226 8226 280
Width: 1229
VWidth: 1947
GlyphClass: 2
Flags: W
HStem: 450 415<548.823 780.026>
VStem: 462 399<534.8 774.869>
LayerCount: 2
Fore
SplineSet
861 659 m 0
 861 555 771 450 662 450 c 0
 552 450 462 552 462 650 c 0
 462 757 557 865 663 865 c 0
 769 865 861 765 861 659 c 0
EndSplineSet
Validated: 3073
EndChar

StartChar: florin
Encoding: 402 402 281
Width: 1229
VWidth: 1947
GlyphClass: 2
Flags: W
HStem: -416 210<106.976 293.119> 701 210<379 558 834 1031> 1215 210<924.469 1133.12>
LayerCount: 2
Fore
SplineSet
379 911 m 1
 616 911 l 1
 682 1150 l 2
 729 1320 859 1425 1018 1425 c 3
 1162 1425 1220 1350 1264 1289 c 1
 1094 1167 l 1
 1065 1207 1056 1215 1018 1215 c 3
 959 1215 909 1177 884 1092 c 2
 834 911 l 1
 1075 911 l 1
 1031 701 l 1
 776 701 l 1
 552 -105 l 2
 489 -332 341 -416 201 -416 c 3
 71 -416 -41 -313 -56 -181 c 1
 152 -159 l 1
 155 -189 181 -206 201 -206 c 3
 231 -206 310 -194 350 -49 c 2
 558 701 l 1
 336 701 l 1
 379 911 l 1
EndSplineSet
Validated: 3073
EndChar

StartChar: dagger
Encoding: 8224 8224 282
Width: 1229
VWidth: 1947
GlyphClass: 2
Flags: W
HStem: 814 209<191 565 823 1196> 1405 20G<687.871 907>
LayerCount: 2
Fore
SplineSet
191 1023 m 1
 609 1023 l 1
 692 1425 l 1
 907 1425 l 1
 823 1023 l 1
 1240 1023 l 1
 1196 814 l 1
 780 814 l 1
 529 -390 l 1
 314 -390 l 1
 565 814 l 1
 147 814 l 1
 191 1023 l 1
EndSplineSet
Validated: 3073
EndChar

StartChar: daggerdbl
Encoding: 8225 8225 283
Width: 1229
VWidth: 1947
GlyphClass: 2
Flags: W
HStem: 14 210<25 399 657 1030> 814 209<191 565 823 1196> 1405 20G<687.871 907>
LayerCount: 2
Fore
SplineSet
191 1023 m 1
 609 1023 l 1
 692 1425 l 1
 907 1425 l 1
 823 1023 l 1
 1240 1023 l 1
 1196 814 l 1
 780 814 l 1
 657 224 l 1
 1074 224 l 1
 1030 14 l 1
 614 14 l 1
 530 -390 l 1
 315 -390 l 1
 399 14 l 1
 -19 14 l 1
 25 224 l 1
 443 224 l 1
 565 814 l 1
 147 814 l 1
 191 1023 l 1
EndSplineSet
Validated: 3073
EndChar

StartChar: trademark
Encoding: 8482 8482 284
Width: 1229
VWidth: 1947
GlyphClass: 2
Flags: W
HStem: 1190 210<256 334 548 629>
LayerCount: 2
Fore
SplineSet
180 466 m 1
 334 1190 l 1
 211 1190 l 1
 256 1400 l 1
 887 1400 l 1
 913 1013 l 1
 1103 1400 l 1
 1325 1400 l 1
 1129 466 l 1
 913 466 l 1
 961 706 l 1
 863 519 l 1
 775 519 l 1
 739 701 l 1
 690 466 l 1
 474 466 l 1
 629 1190 l 1
 548 1190 l 1
 394 466 l 1
 180 466 l 1
EndSplineSet
Validated: 3073
EndChar

StartChar: Ecyrillic
Encoding: 1028 1028 290
Width: 1229
VWidth: 1947
GlyphClass: 2
Flags: W
HStem: -25 210<387.927 678.75> 616 210<405 682> 1215 210<607.721 919.149>
VStem: 129 210<241.155 613.915> 967 210<1077.77 1165.4>
LayerCount: 2
Fore
SplineSet
967 1061 m 1
 957 1200 846 1215 787 1215 c 2
 771 1215 l 2
 565 1215 469 1070 405 826 c 1
 725 825 l 1
 682 615 l 1
 360 616 l 1
 347 546 339 478 339 418 c 3
 339 236 402 185 514 185 c 2
 530 185 l 2
 641 186 730 238 805 368 c 1
 987 262 l 1
 892 99 745 -24 530 -25 c 2
 514 -25 l 2
 338 -25 129 64 129 418 c 3
 129 533 151 648 163 705 c 2
 176 768 l 2
 246 1100 381 1425 771 1425 c 2
 787 1425 l 2
 840 1425 1152 1416 1177 1079 c 1
 967 1061 l 1
EndSplineSet
Validated: 3073
EndChar

StartChar: Becyrillic
Encoding: 1041 1041 298
Width: 1229
VWidth: 1947
GlyphClass: 2
Flags: W
HStem: 0 210<275 711.503> 663 210<413 835.779> 1190 210<478 1127>
VStem: 884 210<448.701 617.064>
LayerCount: 2
Fore
SplineSet
638 873 m 2
 1023 873 1094 672 1094 538 c 3
 1094 516 1093 494 1087 466 c 2
 1068 375 l 2
 1027 179 833 0 501 0 c 2
 17 0 l 1
 308 1400 l 1
 1171 1400 l 1
 1127 1190 l 1
 478 1190 l 1
 413 873 l 1
 638 873 l 2
884 538 m 3
 884 651 715 663 638 663 c 2
 369 663 l 1
 275 210 l 1
 501 210 l 2
 716 210 839 309 862 417 c 2
 881 508 l 2
 883 520 884 529 884 538 c 3
EndSplineSet
Validated: 3073
EndChar

StartChar: Gecyrillic
Encoding: 1043 1043 299
Width: 1229
VWidth: 1947
GlyphClass: 2
Flags: W
HStem: 0 21G<16 234.168> 1190 210<478 1232>
LayerCount: 2
Fore
SplineSet
230 0 m 1
 16 0 l 1
 308 1400 l 1
 1276 1400 l 1
 1232 1190 l 1
 478 1190 l 1
 230 0 l 1
EndSplineSet
Validated: 3073
EndChar

StartChar: Decyrillic
Encoding: 1044 1044 300
Width: 1229
VWidth: 1947
GlyphClass: 2
Flags: W
HStem: 0 211<358 755> 1380 20G<858.5 1217>
LayerCount: 2
Fore
SplineSet
466 976 m 2
 547 1161 751 1400 966 1400 c 2
 1217 1400 l 1
 969 211 l 1
 1081 211 l 1
 1038 0 l 1
 913 -170 l 1
 790 -170 l 1
 825 0 l 1
 183 0 l 1
 148 -170 l 1
 31 -170 l 1
 -31 5 l 1
 11 211 l 1
 129 211 l 1
 466 976 l 2
959 1190 m 1
 856 1183 713 1017 660 896 c 2
 358 211 l 1
 755 211 l 1
 959 1190 l 1
EndSplineSet
Validated: 3073
EndChar

StartChar: Zhecyrillic
Encoding: 1046 1046 302
Width: 1229
VWidth: 1947
GlyphClass: 2
Flags: W
HStem: 0 21G<-69 189.284 397 615.124 842.98 1061> 1380 20G<242 458.549 1108.15 1362>
LayerCount: 2
Fore
SplineSet
-69 0 m 1
 365 706 l 1
 242 1400 l 1
 455 1400 l 1
 562 797 l 1
 669 1320 l 1
 885 1320 l 1
 783 831 l 1
 1120 1400 l 1
 1362 1400 l 1
 928 664 l 1
 1061 0 l 1
 847 0 l 1
 768 393 l 1
 651 194 l 1
 611 -0 l 1
 397 0 l 1
 447 241 l 1
 419 394 l 1
 177 0 l 1
 -69 0 l 1
EndSplineSet
Validated: 3073
EndChar

StartChar: Zecyrillic
Encoding: 1047 1047 303
Width: 1229
VWidth: 1947
GlyphClass: 2
Flags: W
HStem: -24 209<332.931 714.914> 684 210<473 824.819> 1215 210<551.271 930.696>
VStem: 882 210<364.176 648.608> 949 210<1038.64 1197.72>
LayerCount: 2
Fore
SplineSet
949 1140 m 3xe8
 949 1185 905 1215 790 1215 c 2
 738 1215 l 2
 617 1215 524 1171 477 1110 c 1
 311 1238 l 1
 411 1368 577 1425 738 1425 c 2
 790 1425 l 2
 1106 1425 1159 1240 1159 1140 c 3xe8
 1159 1121 1157 1099 1152 1074 c 2
 1144 1037 l 2
 1123 939 1067 856 989 795 c 1
 1057 734 1092 646 1092 544 c 3
 1092 310 943 -24 571 -24 c 2
 464 -24 l 2
 177 -24 87 172 87 302 c 1
 297 302 l 1
 297 255 333 185 481 185 c 2
 533 185 l 2
 836 185 882 452 882 544 c 3xf0
 882 677 764 684 680 684 c 2
 431 684 l 1
 473 894 l 1
 655 894 l 2
 795 894 912 971 938 1081 c 2
 943 1102 l 2
 945 1113 949 1135 949 1140 c 3xe8
EndSplineSet
Validated: 3073
EndChar

StartChar: Iicyrillic
Encoding: 1048 1048 304
Width: 1229
VWidth: 1947
GlyphClass: 2
Flags: W
HStem: 0 21G<18 228.377 775 993.171> 1380 20G<302.871 521 1070.61 1281>
LayerCount: 2
Fore
SplineSet
18 0 m 1
 307 1400 l 1
 521 1400 l 1
 330 476 l 1
 1087 1400 l 1
 1281 1400 l 1
 989 0 l 1
 775 0 l 1
 967 922 l 1
 212 0 l 1
 18 0 l 1
EndSplineSet
Validated: 3073
EndChar

StartChar: Elcyrillic
Encoding: 1051 1051 307
Width: 1229
VWidth: 1947
GlyphClass: 2
Flags: W
HStem: 0 21G<-62 184.37 774 993.171> 1190 210<885.261 1023>
LayerCount: 2
Fore
SplineSet
446 981 m 2
 533 1149 705 1339 953 1400 c 1
 1281 1400 l 1
 989 0 l 1
 774 0 l 1
 1023 1190 l 1
 980 1190 l 1
 846 1153 706 1026 636 891 c 2
 174 0 l 1
 -62 0 l 1
 446 981 l 2
EndSplineSet
Validated: 3073
EndChar

StartChar: Pecyrillic
Encoding: 1055 1055 311
Width: 1229
VWidth: 1947
GlyphClass: 2
Flags: W
HStem: 0 21G<16 234.168 775 993.171> 1190 210<478 1023>
LayerCount: 2
Fore
SplineSet
230 0 m 1
 16 0 l 1
 308 1400 l 1
 1281 1400 l 1
 989 0 l 1
 775 0 l 1
 1023 1190 l 1
 478 1190 l 1
 230 0 l 1
EndSplineSet
Validated: 3073
EndChar

StartChar: Ucyrillic
Encoding: 1059 1059 315
Width: 1229
VWidth: 1947
GlyphClass: 2
Flags: W
HStem: -25 210<221.266 423.613> 1380 20G<288 523 1098.48 1353>
VStem: 288 213<1185.02 1400>
LayerCount: 2
Fore
SplineSet
650 183 m 2
 544 0 404 -24 303 -25 c 2
 265 -25 l 2
 246 -25 166 -20 116 23 c 2
 81 53 l 1
 221 211 l 1
 238 196 l 2
 243 192 253 186 265 185 c 2
 301 185 l 2
 368 186 417 198 468 287 c 2
 570 464 l 1
 438 741 343 1051 288 1400 c 1
 501 1400 l 1
 545 1138 612 902 700 688 c 1
 1110 1400 l 1
 1353 1400 l 1
 650 183 l 2
EndSplineSet
Validated: 3073
EndChar

StartChar: Efcyrillic
Encoding: 1060 1060 316
Width: 1229
VWidth: 1947
GlyphClass: 2
Flags: W
HStem: -24 21G<391 609.133> 1406 20G<692 902.824>
VStem: 150 210<355.672 805.057> 953 210<671.865 1097.54>
LayerCount: 2
Fore
SplineSet
422 127 m 1
 244 138 150 325 150 555 c 3
 150 613 156 674 169 735 c 2
 180 786 l 2
 264 1145 460 1335 639 1335 c 2
 673 1335 l 1
 692 1425 l 1
 907 1426 l 1
 888 1335 l 1
 1129 1319 1163 1017 1163 911 c 3
 1163 858 1158 802 1146 744 c 2
 1134 691 l 2
 1053 349 857 126 673 126 c 2
 636 126 l 1
 605 -24 l 1
 391 -24 l 1
 422 127 l 1
953 911 m 3
 953 1050 899 1125 881 1125 c 2
 844 1125 l 1
 680 337 l 1
 744 351 870 489 928 735 c 2
 940 788 l 2
 949 832 953 873 953 911 c 3
360 555 m 3
 360 449 393 336 433 336 c 2
 466 336 l 1
 629 1124 l 1
 584 1115 453 1030 386 744 c 2
 375 691 l 2
 365 644 360 598 360 555 c 3
EndSplineSet
Validated: 3073
EndChar

StartChar: Tsecyrillic
Encoding: 1062 1062 318
Width: 1229
VWidth: 1947
GlyphClass: 2
Flags: W
HStem: 0 210<275 726> 1380 20G<302.857 522 967.866 1187>
LayerCount: 2
Fore
SplineSet
275 210 m 1
 726 210 l 1
 972 1400 l 1
 1187 1400 l 1
 940 210 l 1
 1062 210 l 1
 1013 -26 l 1
 850 -251 l 1
 680 -127 l 1
 772 0 l 1
 17 0 l 1
 307 1400 l 1
 522 1400 l 1
 275 210 l 1
EndSplineSet
Validated: 3073
EndChar

StartChar: Checyrillic
Encoding: 1063 1063 319
Width: 1229
VWidth: 1947
GlyphClass: 2
Flags: W
HStem: 0 21G<775 994.157> 407 210<448.001 860> 1380 20G<302.844 522 1061.84 1281>
VStem: 186 210<667.555 885.105>
LayerCount: 2
Fore
SplineSet
990 0 m 1
 775 0 l 1
 860 407 l 1
 599 407 l 2
 323 407 186 580 186 773 c 3
 186 802 189 832 195 861 c 2
 307 1400 l 1
 522 1400 l 1
 401 819 l 2
 398 803 396 787 396 773 c 3
 396 648 503 617 599 617 c 2
 903 617 l 1
 1066 1400 l 1
 1281 1400 l 1
 990 0 l 1
EndSplineSet
Validated: 3073
EndChar

StartChar: Shacyrillic
Encoding: 1064 1064 320
Width: 1229
VWidth: 1947
GlyphClass: 2
Flags: W
HStem: 0 210<275 442 656 820> 1380 20G<302.857 522 1061.87 1281>
LayerCount: 2
Fore
SplineSet
656 210 m 1
 820 210 l 1
 1066 1400 l 1
 1281 1400 l 1
 990 0 l 1
 17 0 l 1
 307 1400 l 1
 522 1400 l 1
 275 210 l 1
 442 210 l 1
 639 1165 l 1
 854 1165 l 1
 656 210 l 1
EndSplineSet
Validated: 3073
EndChar

StartChar: Shchacyrillic
Encoding: 1065 1065 321
Width: 1229
VWidth: 1947
GlyphClass: 2
Flags: W
HStem: -0 210<275 441 656 820> 1380 20G<302.857 522 1061.87 1281>
LayerCount: 2
Fore
SplineSet
830 0 m 1
 17 -0 l 1
 307 1400 l 1
 522 1400 l 1
 275 210 l 1
 441 210 l 1
 639 1165 l 1
 853 1165 l 1
 656 210 l 1
 820 210 l 1
 1066 1400 l 1
 1281 1400 l 1
 1034 210 l 1
 1113 210 l 1
 1058 -55 l 1
 890 -256 l 1
 728 -122 l 1
 830 0 l 1
EndSplineSet
Validated: 3073
EndChar

StartChar: Hardsigncyrillic
Encoding: 1066 1066 322
Width: 1229
VWidth: 1947
GlyphClass: 2
Flags: W
HStem: 0 210<452 752.109> 626 210<583 869.283> 1380 20G<257.796 700>
VStem: 883 210<439.267 604.704>
LayerCount: 2
Fore
SplineSet
732 836 m 2
 819 836 1093 811 1093 533 c 3
 1093 510 1091 487 1085 457 c 2
 1065 357 l 1
 1018 131 802 0 602 0 c 2
 194 0 l 1
 442 1190 l 1
 412 1190 l 1
 251 929 l 1
 163 929 l 1
 262 1400 l 1
 700 1400 l 1
 583 836 l 1
 732 836 l 2
883 533 m 3
 883 608 813 626 732 626 c 2
 539 626 l 1
 452 210 l 1
 602 210 l 2
 722 210 836 289 859 399 c 2
 879 499 l 2
 882 516 883 526 883 533 c 3
EndSplineSet
Validated: 3073
EndChar

StartChar: Yericyrillic
Encoding: 1067 1067 323
Width: 1229
VWidth: 1947
GlyphClass: 2
Flags: W
HStem: 0 210<250 423.236> 673 210<389 554.948> 1380 20G<277.857 496 1087.83 1306>
VStem: 589 210<372.757 637.576>
LayerCount: 2
Fore
SplineSet
589 560 m 3
 589 673 432 673 378 673 c 2
 346 673 l 1
 250 210 l 1
 444 214 542 317 567 436 c 2
 584 519 l 2
 587 535 589 548 589 560 c 3
389 883 m 1
 734 868 799 689 799 560 c 3
 799 532 796 503 790 475 c 2
 773 394 l 2
 729 182 549 0 238 0 c 2
 -8 0 l 1
 282 1400 l 1
 496 1400 l 1
 389 883 l 1
1014 0 m 1
 800 0 l 1
 1092 1400 l 1
 1306 1400 l 1
 1014 0 l 1
EndSplineSet
Validated: 3073
EndChar

StartChar: Softsigncyrillic
Encoding: 1068 1068 324
Width: 1229
VWidth: 1947
GlyphClass: 2
Flags: W
HStem: 0 210<275 744.109> 626 210<405 844.395> 1405 20G<307.86 527>
VStem: 878 210<335.721 592.801>
LayerCount: 2
Fore
SplineSet
668 836 m 2
 787 836 1088 814 1088 514 c 3
 1088 486 1085 457 1079 428 c 2
 1066 366 l 2
 1021 150 846 0 538 0 c 2
 17 0 l 1
 312 1425 l 1
 527 1425 l 1
 405 836 l 1
 668 836 l 2
878 514 m 3
 878 626 724 626 668 626 c 2
 361 626 l 1
 275 210 l 1
 538 210 l 2
 813 210 850 357 860 408 c 2
 873 472 l 2
 876 488 878 502 878 514 c 3
EndSplineSet
Validated: 3073
EndChar

StartChar: Ereversedcyrillic
Encoding: 1069 1069 325
Width: 1229
VWidth: 1947
GlyphClass: 2
Flags: W
HStem: -25 210<388.469 682.16> 624 210<625 903> 1215 210<606.328 928.819>
VStem: 136 208<233.461 316.068> 968 210<837.472 1176.38>
LayerCount: 2
Fore
SplineSet
968 1017 m 3
 968 1212 876 1215 787 1215 c 2
 771 1215 l 2
 612 1215 529 1131 473 1020 c 1
 285 1114 l 1
 377 1295 530 1425 771 1425 c 2
 787 1425 l 2
 888 1425 1178 1408 1178 1017 c 3
 1178 925 1163 826 1142 726 c 2
 1128 662 l 2
 1068 373 925 -24 530 -25 c 2
 514 -25 l 2
 287 -25 164 114 136 314 c 1
 344 344 l 1
 360 231 409 185 514 185 c 2
 530 185 l 2
 677 185 816 281 903 624 c 1
 581 624 l 1
 625 834 l 1
 949 834 l 1
 961 902 968 964 968 1017 c 3
EndSplineSet
Validated: 3073
EndChar

StartChar: IUcyrillic
Encoding: 1070 1070 326
Width: 1229
VWidth: 1947
GlyphClass: 2
Flags: W
HStem: -25 210<624.924 742.202> 0 21G<-10 209.192> 1215 210<832.429 976.885> 1380 20G<279.8 499>
VStem: 397 210<188.059 579.118> 994 210<716.33 1205.76>
LayerCount: 2
Fore
SplineSet
994 1037 m 3xac
 994 1197 963 1215 928 1215 c 2
 915 1215 l 2
 755 1215 665 777 652 718 c 2
 642 671 l 2
 621 569 607 461 607 371 c 3
 607 311 616 185 652 185 c 2
 676 185 l 2
 717 185 860 303 951 721 c 2
 962 767 l 2
 984 870 994 962 994 1037 c 3xac
-10 0 m 1x4c
 284 1400 l 1
 499 1400 l 1x5c
 371 792 l 1
 453 792 l 1
 487 946 595 1425 915 1425 c 2
 928 1425 l 2
 1005 1425 1204 1413 1204 1037 c 3
 1204 911 1179 783 1166 721 c 2
 1155 675 l 2
 1127 547 969 -25 676 -25 c 2
 652 -25 l 2xac
 621 -25 397 -15 397 371 c 3
 397 445 404 519 413 582 c 1
 327 582 l 1
 205 0 l 1
 -10 0 l 1x4c
EndSplineSet
Validated: 3073
EndChar

StartChar: IAcyrillic
Encoding: 1071 1071 327
Width: 1229
VWidth: 1947
GlyphClass: 2
Flags: W
HStem: 0 21G<-97 206.225 775 994.157> 552 210<691 890> 1190 210<524.409 1023>
VStem: 204 210<792.452 961.816>
LayerCount: 2
Fore
SplineSet
430 578 m 1
 278 625 204 733 204 863 c 3
 204 890 207 917 213 944 c 2
 237 1063 l 2
 285 1292 455 1400 762 1400 c 2
 1281 1400 l 1
 990 0 l 1
 775 0 l 1
 890 552 l 1
 691 552 l 1
 188 0 l 1
 -97 0 l 1
 430 578 l 1
414 863 m 3
 414 803 454 762 629 762 c 2
 934 762 l 1
 1023 1190 l 1
 762 1190 l 2
 509 1190 462 1114 443 1023 c 2
 419 902 l 2
 416 887 414 874 414 863 c 3
EndSplineSet
Validated: 3073
EndChar

StartChar: becyrillic
Encoding: 1073 1073 329
Width: 1229
VWidth: 1947
GlyphClass: 2
Flags: W
HStem: -25 210<372.413 721.521> 1190 210<713 1133>
VStem: 103 210<242.579 598.659> 916 210<451.758 794.075>
LayerCount: 2
Fore
SplineSet
712 839 m 2
 688 839 l 2
 488 839 383 724 351 571 c 2
 319 412 l 2
 315 393 313 376 313 360 c 3
 313 253 389 185 510 185 c 2
 535 185 l 2
 736 185 840 299 872 454 c 2
 904 612 l 2
 914 664 916 696 916 717 c 3
 916 825 752 839 712 839 c 2
312 1400 m 1
 1176 1400 l 1
 1133 1190 l 1
 713 1190 l 1
 979 993 l 1
 1061 947 1126 862 1126 717 c 3
 1126 688 1124 644 1110 572 c 2
 1078 412 l 2
 1025 146 822 -25 535 -25 c 2
 510 -25 l 2
 267 -25 103 143 103 360 c 3
 103 391 107 422 113 454 c 2
 145 613 l 2
 192 837 344 996 566 1038 c 1
 281 1250 l 1
 312 1400 l 1
EndSplineSet
Validated: 3073
EndChar

StartChar: vecyrillic
Encoding: 1074 1074 330
Width: 1229
VWidth: 2334
GlyphClass: 2
Flags: W
HStem: 0 210<317.969 892.531> 442 211<366 476.955 768 940.051> 1214 210<514.456 836.905>
VStem: 88 210<238.848 402.539> 838 211<1100.84 1205.07> 958 210<282.798 414.005>
LayerCount: 2
Fore
SplineSet
768 650 m 1xf8
 1102 636 1168 486 1168 377 c 3xf4
 1168 356 1165 335 1160 314 c 2
 1151 277 l 2
 1131 196 1065 0 631 0 c 2
 514 0 l 2
 155 0 88 184 88 306 c 3
 88 330 90 354 96 386 c 2
 227 1017 l 2
 253 1143 312 1424 651 1424 c 2
 694 1424 l 2
 814 1424 1049 1395 1049 1186 c 3
 1049 1177 1046 1146 1044 1136 c 2
 1024 1039 l 2
 998 919 896 769 768 650 c 1xf8
298 306 m 3
 298 256 327 210 514 210 c 2
 631 210 l 2
 894 210 937 272 948 325 c 2
 953 349 l 2
 954 352 958 371 958 377 c 3
 958 403 909 442 721 442 c 2
 322 442 l 1
 302 344 l 2
 299 331 298 318 298 306 c 3
838 1183 m 3xf8
 838 1203 774 1214 694 1214 c 2
 651 1214 l 2
 515 1214 470 1155 433 975 c 2
 366 653 l 1
 515 668 781 928 818 1083 c 2
 833 1146 l 2
 836 1159 838 1178 838 1183 c 3xf8
EndSplineSet
Validated: 3073
EndChar

StartChar: gecyrillic
Encoding: 1075 1075 331
Width: 1229
VWidth: 1947
GlyphClass: 2
Flags: W
HStem: -25 210<303.851 730.062> 839 210<480.404 893.258>
VStem: 75 211<207.395 311> 900 210<712.703 832.741>
LayerCount: 2
Fore
SplineSet
468 -25 m 2
 91 -25 75 171 75 253 c 3
 75 264 78 296 81 308 c 2
 89 351 l 2
 114 484 260 564 332 581 c 2
 825 697 l 2
 856 705 900 732 900 806 c 3
 900 832 859 839 728 839 c 2
 647 839 l 2
 539 839 454 791 398 723 c 1
 236 857 l 1
 331 973 475 1049 647 1049 c 2
 728 1049 l 2
 901 1049 1110 1017 1110 803 c 3
 1110 694 1052 535 875 493 c 2
 382 377 l 2
 310 360 298 322 295 311 c 2
 289 287 l 2
 287 278 286 259 286 252 c 3
 286 198 420 185 468 185 c 2
 579 185 l 2
 714 185 837 294 853 371 c 1
 1059 329 l 1
 1024 159 819 -25 579 -25 c 2
 468 -25 l 2
EndSplineSet
Validated: 3073
EndChar

StartChar: decyrillic
Encoding: 1076 1076 332
Width: 1229
VWidth: 1947
GlyphClass: 2
Flags: W
HStem: -25 210<372.413 721.521> 839 210<512.005 891.963> 1190 210<472.967 943.214>
VStem: 103 210<242.579 598.659> 987 210<990 1141.14>
LayerCount: 2
Fore
SplineSet
351 571 m 2
 319 412 l 2
 315 393 313 376 313 360 c 3
 313 253 389 185 510 185 c 2
 535 185 l 2
 736 185 840 299 872 454 c 2
 904 612 l 2
 914 664 916 696 916 717 c 3
 916 790 892 839 712 839 c 2
 688 839 l 2
 488 839 383 724 351 571 c 2
787 1400 m 2
 827 1400 1197 1388 1197 1038 c 3
 1197 1003 1193 968 1186 932 c 2
 1078 412 l 2
 1022 147 822 -25 535 -25 c 2
 510 -25 l 2
 267 -25 103 143 103 360 c 3
 103 391 107 422 113 454 c 2
 145 613 l 2
 198 877 400 1049 688 1049 c 2
 712 1049 l 2
 796 1049 891 1044 983 990 c 1
 986 1007 987 1024 987 1038 c 3
 987 1166 881 1190 783 1190 c 2
 762 1190 l 2
 585 1190 556 1181 417 1124 c 1
 337 1318 l 1
 470 1378 546 1400 762 1400 c 2
 787 1400 l 2
EndSplineSet
Validated: 3073
EndChar

StartChar: zhecyrillic
Encoding: 1078 1078 334
Width: 1229
VWidth: 1947
GlyphClass: 2
Flags: W
HStem: 0 21G<42 301.166 396 614.275 731.962 951> 1003 20G<605.835 825>
LayerCount: 2
Fore
SplineSet
42 0 m 1
 347 499 l 1
 209 1020 l 1
 413 1074 l 1
 529 634 l 1
 610 1023 l 1
 825 1023 l 1
 753 678 l 1
 1040 1106 l 1
 1214 988 l 1
 858 459 l 1
 951 0 l 1
 736 0 l 1
 693 213 l 1
 638 131 l 1
 610 0 l 1
 396 0 l 1
 433 175 l 1
 421 217 l 1
 289 0 l 1
 42 0 l 1
EndSplineSet
Validated: 3073
EndChar

StartChar: zecyrillic
Encoding: 1079 1079 335
Width: 1229
VWidth: 1947
GlyphClass: 2
Flags: W
HStem: -25 210<320.765 759.376> 443 210<506 824.218> 835 214<474.22 874.919>
VStem: 855 210<273.407 432.514> 877 210<705.136 825.924>
LayerCount: 2
Fore
SplineSet
764 1049 m 2xe8
 1006 1049 1087 854 1087 785 c 3xe8
 1087 737 1071 647 991 565 c 1
 1058 504 1065 427 1065 392 c 3
 1065 227 939 -25 588 -25 c 2
 473 -25 l 2
 187 -25 85 156 80 288 c 1
 290 296 l 1
 294 196 420 185 473 185 c 2
 588 185 l 2
 835 185 855 360 855 392 c 3xf0
 855 423 825 443 685 443 c 2
 462 443 l 1
 506 653 l 1
 670 653 l 2
 855 653 877 770 877 785 c 3
 877 829 798 835 758 835 c 2
 642 835 l 2
 536 835 456 800 400 725 c 1
 232 851 l 1
 314 959 491 1049 640 1049 c 2
 764 1049 l 2xe8
EndSplineSet
Validated: 3073
EndChar

StartChar: kacyrillic
Encoding: 1082 1082 338
Width: 1229
VWidth: 1947
GlyphClass: 2
Flags: W
HStem: 0 21G<15 233.4 755.588 1068> 1003 20G<224.816 444 1000.23 1049.21>
LayerCount: 2
Fore
SplineSet
229 0 m 1
 15 0 l 1
 229 1023 l 1
 444 1023 l 1
 338 518 l 1
 523 722 696 870 882 966 c 2
 1039 1047 l 1
 1135 859 l 1
 986 784 l 2
 880 731 787 652 686 565 c 1
 699 521 l 2
 736 406 828 246 859 216 c 2
 1068 0 l 1
 775 0 l 1
 709 68 l 2
 642 138 560 298 518 404 c 1
 251 100 l 1
 229 0 l 1
EndSplineSet
Validated: 3073
EndChar

StartChar: elcyrillic
Encoding: 1083 1083 339
Width: 1229
VWidth: 1947
GlyphClass: 2
Flags: W
HStem: 0 21G<-54 201.648 775 994.164> 813 210<759.869 945>
LayerCount: 2
Fore
SplineSet
326 650 m 2
 411 796 663 1023 888 1023 c 2
 1203 1023 l 1
 990 0 l 1
 775 0 l 1
 945 813 l 1
 888 813 l 2
 766 813 569 652 508 546 c 2
 190 0 l 1
 -54 0 l 1
 326 650 l 2
EndSplineSet
Validated: 3073
EndChar

StartChar: emcyrillic
Encoding: 1084 1084 340
Width: 1229
VWidth: 1947
GlyphClass: 2
Flags: W
HStem: 0 21G<-26 202.63 816 1028.54> 1003 20G<306.372 533.519 870.361 1106>
LayerCount: 2
Fore
SplineSet
196 0 m 1
 -26 0 l 1
 313 1023 l 1
 531 1023 l 1
 598 491 l 1
 881 1023 l 1
 1106 1023 l 1
 1027 0 l 1
 816 0 l 1
 858 532 l 1
 632 106 l 1
 435 106 l 1
 379 552 l 1
 196 0 l 1
EndSplineSet
Validated: 3073
EndChar

StartChar: encyrillic
Encoding: 1085 1085 341
Width: 1229
VWidth: 1947
GlyphClass: 2
Flags: W
HStem: 0 21G<16 234.185 775 992.184> 368 210<351 851> 1003 20G<224.836 444 983.82 1202>
LayerCount: 2
Fore
SplineSet
230 0 m 1
 16 0 l 1
 229 1023 l 1
 444 1023 l 1
 351 578 l 1
 895 578 l 1
 988 1023 l 1
 1202 1023 l 1
 988 0 l 1
 775 0 l 1
 851 368 l 1
 307 368 l 1
 230 0 l 1
EndSplineSet
Validated: 3073
EndChar

StartChar: efcyrillic
Encoding: 1092 1092 348
Width: 1229
VWidth: 1947
GlyphClass: 2
Flags: W
HStem: -24 209<264.855 396 654 812.611> 761 211<388.173 559 817 953.774> 1028 20G<614.789 833>
VStem: 0 210<236.334 565.039> 1003 210<401.227 717.352>
LayerCount: 2
Fore
SplineSet
817 970 m 1
 1149 951 1213 753 1213 608 c 3
 1213 568 1208 528 1200 488 c 2
 1187 430 l 2
 1135 169 949 -24 614 -24 c 2
 610 -24 l 1
 536 -384 l 1
 321 -384 l 1
 396 -24 l 1
 113 -12 0 161 0 353 c 3
 0 393 5 434 13 474 c 2
 25 531 l 2
 80 792 273 972 591 972 c 2
 603 972 l 1
 619 1048 l 1
 833 1048 l 1
 817 970 l 1
1003 608 m 3
 1003 757 872 761 781 761 c 2
 774 761 l 1
 654 186 l 1
 871 201 953 334 981 474 c 2
 994 532 l 2
 1000 560 1003 585 1003 608 c 3
439 185 m 1
 559 761 l 1
 344 750 259 623 231 489 c 2
 219 432 l 2
 213 404 210 377 210 353 c 3
 210 265 244 185 429 185 c 2
 439 185 l 1
EndSplineSet
Validated: 3073
EndChar

StartChar: tsecyrillic
Encoding: 1094 1094 350
Width: 1229
VWidth: 2334
GlyphClass: 2
Flags: W
HStem: -25 210<328.268 635.317> 1003 20G<224.837 443 983.9 1202>
VStem: 91 210<215.351 432.329> 881 210<-25.1132 136.978>
LayerCount: 2
Fore
SplineSet
481 -25 m 2
 100 -25 91 303 91 310 c 3
 91 334 96 384 101 408 c 2
 229 1023 l 1
 443 1023 l 1
 307 366 l 2
 303 343 301 325 301 307 c 3
 301 234 344 185 481 185 c 2
 506 185 l 2
 655 185 862 407 881 501 c 2
 988 1023 l 1
 1202 1023 l 1
 1042 248 l 1
 1073 202 1091 153 1091 87 c 3
 1091 -140 891 -267 771 -323 c 1
 683 -133 l 1
 724 -114 881 -39 881 72 c 27
 881 99 868 132 863 138 c 1
 759 46 632 -25 506 -25 c 2
 481 -25 l 2
EndSplineSet
Validated: 3073
EndChar

StartChar: checyrillic
Encoding: 1095 1095 351
Width: 1229
VWidth: 1947
GlyphClass: 2
Flags: W
HStem: -24 21G<770 988.183> 300 210<390.871 740.127> 1003 20G<224.833 444 983.821 1203>
VStem: 159 210<535.132 756.078>
LayerCount: 2
Fore
SplineSet
369 637 m 27
 369 551 388 510 548 510 c 2
 620 510 l 2
 760 510 924 718 946 822 c 2
 988 1023 l 1
 1203 1023 l 1
 984 -24 l 1
 770 -24 l 1
 853 378 l 1
 782 331 704 300 620 300 c 2
 548 300 l 2
 298 300 159 398 159 637 c 3
 159 675 162 702 169 735 c 2
 229 1023 l 1
 444 1023 l 1
 375 693 l 2
 371 672 369 659 369 637 c 27
EndSplineSet
Validated: 3073
EndChar

StartChar: shacyrillic
Encoding: 1096 1096 352
Width: 1229
VWidth: 2334
GlyphClass: 2
Flags: W
HStem: -25 210<257.273 388.549 660.594 794.336> 1003 20G<198.854 418 602.906 822 1008.85 1228>
VStem: 44 210<190.996 311.183>
LayerCount: 2
Fore
SplineSet
501 65 m 1
 416 -22 325 -25 301 -25 c 2
 288 -25 l 2
 155 -25 44 80 44 224 c 3
 44 245 46 264 50 285 c 2
 203 1023 l 1
 418 1023 l 1
 256 243 l 2
 255 239 254 232 254 224 c 3
 254 199 266 185 288 185 c 2
 301 185 l 2
 378 185 458 294 477 388 c 2
 607 1023 l 1
 822 1023 l 1
 662 243 l 2
 660 235 660 230 660 224 c 3
 660 185 678 185 686 185 c 2
 700 185 l 2
 782 185 860 286 880 382 c 2
 1013 1023 l 1
 1228 1023 l 1
 1010 -25 l 1
 794 -25 l 1
 799 -3 l 1
 768 -24 720 -25 700 -25 c 2
 686 -25 l 2
 607 -25 542 10 501 65 c 1
EndSplineSet
Validated: 3073
EndChar

StartChar: shchacyrillic
Encoding: 1097 1097 353
Width: 1229
VWidth: 2334
GlyphClass: 2
Flags: W
HStem: -25 210<257.273 383.045 660.594 786.921> 1003 20G<197.881 417 604.833 824 1006.93 1226>
VStem: 44 210<190.398 347.172>
LayerCount: 2
Fore
SplineSet
501 65 m 1
 414 -18 328 -25 301 -25 c 2
 288 -25 l 2
 155 -25 44 77 44 224 c 3
 44 242 45 261 50 285 c 2
 202 1023 l 1
 417 1023 l 1
 264 282 l 2
 259 260 254 230 254 224 c 3
 254 191 273 185 288 185 c 2
 301 185 l 2
 378 185 461 314 479 399 c 2
 609 1023 l 1
 824 1023 l 1
 667 267 l 2
 663 248 660 230 660 224 c 3
 660 185 678 185 686 185 c 2
 700 185 l 2
 778 185 865 312 884 399 c 2
 1011 1023 l 1
 1226 1023 l 1
 1068 252 l 1
 1112 192 1116 138 1116 111 c 3
 1116 -166 826 -313 790 -323 c 1
 702 -133 l 1
 750 -118 867 -62 899 60 c 1
 818 -18 719 -25 700 -25 c 2
 686 -25 l 2
 607 -25 542 10 501 65 c 1
EndSplineSet
Validated: 3073
EndChar

StartChar: hardsigncyrillic
Encoding: 1098 1098 354
Width: 1229
VWidth: 1947
GlyphClass: 2
Flags: W
HStem: 0 210<461 758.741> 458 210<556 851.923> 1003 20G<182.912 630>
VStem: 858 210<297.03 439.816>
LayerCount: 2
Fore
SplineSet
670 668 m 2
 932 668 1068 545 1068 397 c 3
 1068 388 1065 356 1063 346 c 2
 1053 302 l 2
 995 46 725 0 575 0 c 2
 203 0 l 1
 372 813 l 1
 298 813 l 1
 188 568 l 1
 94 568 l 1
 187 1023 l 1
 630 1023 l 1
 556 668 l 1
 670 668 l 2
670 458 m 2
 513 458 l 1
 461 210 l 1
 575 210 l 2
 695 210 821 261 847 346 c 2
 852 362 l 2
 855 373 858 388 858 392 c 3
 858 431 821 458 670 458 c 2
EndSplineSet
Validated: 3073
EndChar

StartChar: yericyrillic
Encoding: 1099 1099 355
Width: 1229
VWidth: 1947
GlyphClass: 2
Flags: W
HStem: 0 210<249 483.285> 453 210<341 559.682> 1003 20G<195.953 414 1005.91 1224>
VStem: 571 210<286.203 430.422>
LayerCount: 2
Fore
SplineSet
249 210 m 1
 311 210 l 2
 488 210 545 292 562 346 c 2
 566 360 l 2
 568 366 571 384 571 386 c 3
 571 435 463 453 405 453 c 2
 299 453 l 1
 249 210 l 1
405 663 m 2
 759 663 781 470 781 390 c 3
 781 380 778 348 776 337 c 2
 768 302 l 2
 748 204 666 0 311 0 c 2
 -7 -0 l 1
 200 1023 l 1
 414 1023 l 1
 341 663 l 1
 405 663 l 2
801 0 m 1
 1010 1023 l 1
 1224 1023 l 1
 1016 0 l 1
 801 0 l 1
EndSplineSet
Validated: 3073
EndChar

StartChar: softsigncyrillic
Encoding: 1100 1100 356
Width: 1229
VWidth: 1947
GlyphClass: 2
Flags: W
HStem: 0 210<275 741.516> 453 210<368 836.922> 1027 20G<228.874 448>
VStem: 855 211<300.033 430.43>
LayerCount: 2
Fore
SplineSet
632 453 m 2
 325 453 l 1
 275 210 l 1
 538 210 l 2
 746 210 836 309 847 346 c 2
 852 362 l 2
 854 369 855 375 855 381 c 3
 855 435 768 453 632 453 c 2
368 663 m 1
 632 663 l 2
 957 663 1066 520 1066 385 c 3
 1066 378 1063 346 1061 337 c 2
 1053 302 l 2
 1022 153 840 0 538 0 c 2
 17 0 l 1
 233 1047 l 1
 448 1047 l 1
 368 663 l 1
EndSplineSet
Validated: 3073
EndChar

StartChar: ereversedcyrillic
Encoding: 1101 1101 357
Width: 1229
VWidth: 1947
GlyphClass: 2
Flags: W
HStem: -25 210<314.256 679.604> 407 210<442 832> 838 209<461.561 855.713>
VStem: 891 210<617 800.453>
LayerCount: 2
Fore
SplineSet
758 1047 m 2
 1047 1047 1101 806 1101 686 c 3
 1101 649 1097 609 1089 570 c 2
 1059 430 l 2
 1003 168 771 -25 560 -25 c 2
 488 -25 l 2
 413 -25 151 -23 85 210 c 1
 287 268 l 1
 309 190 424 185 488 185 c 2
 560 185 l 2
 657 185 778 279 832 407 c 1
 398 407 l 1
 442 617 l 1
 884 617 l 1
 889 642 891 665 891 686 c 3
 891 836 782 838 739 838 c 2
 668 838 l 2
 510 838 425 787 384 723 c 1
 208 837 l 1
 289 962 432 1047 626 1047 c 2
 758 1047 l 2
EndSplineSet
Validated: 3073
EndChar

StartChar: iucyrillic
Encoding: 1102 1102 358
Width: 1229
VWidth: 1947
GlyphClass: 2
Flags: W
HStem: -25 210<599.488 766.738> 0 21G<-10 207.226> 839 210<743.849 907.565> 1003 20G<198.836 418>
VStem: 376 210<189.372 405.711> 931 210<444.556 816.9>
LayerCount: 2
Fore
SplineSet
652 -25 m 2xac
 547 -25 376 31 376 337 c 3
 376 360 377 384 379 407 c 1
 289 407 l 1
 203 0 l 1
 -10 0 l 1
 203 1023 l 1
 418 1023 l 1x5c
 333 617 l 1
 418 617 l 1
 475 826 601 1049 837 1049 c 2
 850 1049 l 2
 866 1049 1141 1024 1141 687 c 3
 1141 629 1134 570 1122 511 c 2
 1115 478 l 2
 1034 126 852 -25 676 -25 c 2
 652 -25 l 2xac
931 687 m 3
 931 822 862 839 850 839 c 2
 837 839 l 2
 745 839 655 726 608 507 c 2
 601 474 l 2
 592 430 586 381 586 337 c 3
 586 191 628 185 652 185 c 2
 676 185 l 2xac
 742 185 851 269 909 520 c 2
 916 553 l 2
 926 600 931 646 931 687 c 3
EndSplineSet
Validated: 3073
EndChar

StartChar: iacyrillic
Encoding: 1103 1103 359
Width: 1229
VWidth: 1947
GlyphClass: 2
Flags: W
HStem: 0 15G<189.457 230.011 774 993.184> 368 210<655 852> 813 210<442.485 945>
VStem: 157 210<600.211 752.282>
LayerCount: 2
Fore
SplineSet
945 813 m 1
 666 813 l 2
 448 813 384 740 378 708 c 2
 371 674 l 2
 369 664 367 647 367 641 c 3
 367 588 497 578 572 578 c 2
 896 578 l 1
 945 813 l 1
852 368 m 1
 655 368 l 1
 206 -6 l 1
 72 156 l 1
 360 395 l 1
 168 453 157 592 157 641 c 3
 157 657 160 687 163 702 c 2
 172 748 l 2
 187 820 255 1023 666 1023 c 2
 1203 1023 l 1
 989 0 l 1
 774 0 l 1
 852 368 l 1
EndSplineSet
Validated: 3073
EndChar

StartChar: ecyrillic
Encoding: 1108 1108 362
Width: 1229
VWidth: 1947
GlyphClass: 2
Flags: W
HStem: -25 210<367.758 762.726> 407 210<387 787> 838 209<523.241 907.721>
VStem: 127 210<215.916 406.492>
LayerCount: 2
Fore
SplineSet
946 755 m 1
 944 762 912 838 734 838 c 2
 673 838 l 2
 518 838 429 738 387 617 c 1
 831 617 l 1
 787 407 l 1
 341 407 l 1
 338 388 337 374 337 353 c 27
 337 263 348 185 494 185 c 2
 555 185 l 2
 740 185 817 256 847 299 c 1
 1019 179 l 1
 929 49 766 -25 555 -25 c 2
 494 -25 l 2
 349 -25 127 21 127 353 c 3
 127 404 132 439 141 482 c 2
 163 594 l 2
 210 834 377 1047 639 1047 c 2
 776 1047 l 2
 1068 1047 1138 843 1150 805 c 1
 946 755 l 1
EndSplineSet
Validated: 3073
EndChar

StartChar: numero
Encoding: 8470 8470 372
Width: 1229
VWidth: 1947
Flags: W
HStem: 0 21G<-80 139.209 326.448 547.229> 1380 20G<209.8 430.575 619.78 839>
VStem: 750 190<687.228 982.382> 1096 190<850.281 1129.06>
LayerCount: 2
Fore
SplineSet
1068 1130 m 3
 1017 1130 940 885 940 726 c 3
 940 696 952 684 967 684 c 3
 1021 684 1096 984 1096 1095 c 3
 1096 1118 1083 1130 1068 1130 c 3
1090 1362 m 3
 1125 1362 1286 1341 1286 1095 c 3
 1286 891 1164 440 939 440 c 3
 903 440 750 462 750 726 c 3
 750 930 852 1362 1090 1362 c 3
-80 0 m 1
 214 1400 l 1
 429 1400 l 1
 482 727 l 1
 624 1400 l 1
 839 1400 l 1
 543 0 l 1
 328 0 l 1
 276 670 l 1
 135 0 l 1
 -80 0 l 1
EndSplineSet
Validated: 3073
EndChar

StartChar: caroncomb
Encoding: 780 780 377
Width: 1229
VWidth: 1947
Flags: W
HStem: 1422 245
VStem: 543 581
LayerCount: 2
Fore
SplineSet
812 1546 m 1
 1058 1667 l 1
 1124 1533 l 1
 901 1422 l 1
 727 1422 l 1
 543 1536 l 1
 623 1664 l 1
 812 1546 l 1
EndSplineSet
Validated: 3073
EndChar

StartChar: gravecomb
Encoding: 768 768 379
Width: 1229
VWidth: 2334
Flags: MW
HStem: 1329 387
VStem: 646 356
DStem2: 802 1716 646 1601 0.59239 -0.805651<0.236946 337.615>
LayerCount: 2
Fore
SplineSet
1002 1444 m 5
 846 1329 l 5
 646 1601 l 5
 802 1716 l 5
 1002 1444 l 5
EndSplineSet
Validated: 3073
EndChar

StartChar: acutecomb
Encoding: 769 769 380
Width: 1229
VWidth: 2334
Flags: MW
HStem: 1313 419
VStem: 553 442
DStem2: 553 1461 680 1313 0.758066 0.652178<0 415.283>
LayerCount: 2
Fore
SplineSet
680 1313 m 5
 553 1461 l 5
 868 1732 l 5
 995 1584 l 5
 680 1313 l 5
EndSplineSet
Validated: 3073
EndChar

StartChar: tildecomb
Encoding: 771 771 381
Width: 1229
VWidth: 1947
Flags: W
HStem: 1447 150<893.476 1031.55> 1537 150<628.391 768.47>
LayerCount: 2
Fore
SplineSet
502 1576 m 2x40
 567 1653 662 1687 702 1687 c 2
 718 1687 l 2x40
 781 1687 845 1660 876 1627 c 2
 893 1609 l 2
 903 1599 923 1597 940 1597 c 2
 957 1597 l 2
 988 1597 1020 1625 1044 1655 c 2
 1063 1679 l 1
 1181 1585 l 1
 1162 1561 l 2
 1079 1456 984 1447 957 1447 c 2
 940 1447 l 2x80
 856 1447 805 1484 782 1508 c 2
 769 1522 l 2
 758 1533 727 1537 718 1537 c 2
 701 1537 l 2
 685 1536 661 1533 616 1480 c 2
 594 1454 l 1
 480 1550 l 1
 502 1576 l 2x40
EndSplineSet
Validated: 3073
EndChar

StartChar: hookabovecomb
Encoding: 777 777 382
Width: 1229
VWidth: 1947
Flags: W
HStem: 1268 168<735 852> 1541 140<668.124 944.731>
VStem: 946 150<1455.57 1537.03>
LayerCount: 2
Fore
SplineSet
856 1681 m 3
 1071 1681 1096 1559 1096 1513 c 3
 1096 1385 992 1312 859 1299 c 1
 852 1268 l 1
 699 1268 l 1
 735 1436 l 1
 796 1436 l 2
 896 1436 946 1469 946 1511 c 3
 946 1532 902 1541 856 1541 c 3
 779 1541 737 1526 682 1494 c 1
 606 1614 l 1
 692 1664 762 1681 856 1681 c 3
EndSplineSet
Validated: 3073
EndChar

StartChar: dotbelowcomb
Encoding: 803 803 383
Width: 1229
VWidth: 2334
Flags: W
HStem: -423 338<330.31 557.307>
VStem: 276 337<-366.705 -139.462>
LayerCount: 2
Fore
SplineSet
613 -254 m 0
 613 -344 544 -423 444 -423 c 0
 348 -423 276 -345 276 -254 c 0
 276 -166 342 -85 444 -85 c 0
 543 -85 613 -163 613 -254 c 0
EndSplineSet
Validated: 3073
EndChar

StartChar: commaturnedabovecmb
Encoding: 786 786 396
Width: 1229
VWidth: 1947
Flags: W
HStem: -486 150<337.533 576.959> -187 199<458 597.439>
VStem: 458 140<-54.3457 12> 602 150<-307.485 -194.353>
LayerCount: 2
Fore
SplineSet
602 -237 m 3
 602 -193 534 -187 508 -187 c 2
 415 -187 l 1
 458 12 l 1
 611 12 l 1
 598 -48 l 1
 705 -76 752 -156 752 -237 c 3
 752 -395 599 -486 458 -486 c 3
 359 -486 275 -445 219 -386 c 1
 327 -282 l 1
 336 -291 385 -336 458 -336 c 3
 523 -336 602 -301 602 -237 c 3
EndSplineSet
Validated: 3073
EndChar

StartChar: Hbar
Encoding: 294 294 400
Width: 1229
VWidth: 1947
Flags: W
HStem: 0 21G<98 317.183 694 914.186> 612 210<485 823> 1051 210<231 319 577 915 1174 1256> 1380 20G<387.827 606 983.827 1203>
LayerCount: 2
Fore
SplineSet
485 822 m 1
 867 822 l 1
 915 1051 l 1
 533 1051 l 1
 485 822 l 1
313 0 m 1
 98 0 l 1
 319 1051 l 1
 187 1051 l 1
 231 1261 l 1
 363 1261 l 1
 392 1400 l 1
 606 1400 l 1
 577 1261 l 1
 959 1261 l 1
 988 1400 l 1
 1203 1400 l 1
 1174 1261 l 1
 1300 1261 l 1
 1256 1051 l 1
 1130 1051 l 1
 910 0 l 1
 694 0 l 1
 823 612 l 1
 441 612 l 1
 313 0 l 1
EndSplineSet
Validated: 3073
EndChar

StartChar: hbar
Encoding: 295 295 401
Width: 1229
VWidth: 1947
Flags: W
HStem: 0 21G<90 309.203 775 994.18> 839 210<606.194 897.077> 1150 210<242 331 589 784> 1380 20G<379 598>
VStem: 923 210<495.266 809.301>
LayerCount: 2
Fore
SplineSet
919 690 m 2
 922 703 923 715 923 725 c 3
 923 817 833 839 749 839 c 2
 726 839 l 2
 580 839 437 628 417 533 c 2
 305 0 l 1
 90 0 l 1
 331 1150 l 1
 198 1150 l 1
 242 1360 l 1
 375 1360 l 1
 383 1400 l 1
 598 1400 l 1
 589 1360 l 1
 828 1360 l 1
 784 1150 l 1
 546 1150 l 1
 511 985 l 1
 575 1024 648 1049 726 1049 c 2
 749 1049 l 2
 889 1049 1118 1001 1133 727 c 3
 1133 703 1132 678 1125 646 c 2
 990 0 l 1
 775 0 l 1
 919 690 l 2
EndSplineSet
Validated: 3073
EndChar

StartChar: IJ
Encoding: 306 306 410
Width: 1229
VWidth: 1947
Flags: W
HStem: -19 210<8 214 428 617> 246 210<580 703.19> 1190 210<260 421 635 867 1081 1285>
LayerCount: 2
Fore
SplineSet
617 -19 m 1
 -36 -19 l 1
 8 191 l 1
 214 191 l 1
 421 1190 l 1
 216 1190 l 1
 260 1400 l 1
 1329 1400 l 1
 1285 1190 l 1
 1081 1190 l 1
 953 571 l 2
 893 280 705 246 641 246 c 2
 537 246 l 1
 580 456 l 1
 641 456 l 2
 690 456 730 529 747 613 c 2
 867 1190 l 1
 635 1190 l 1
 428 191 l 1
 659 191 l 1
 617 -19 l 1
EndSplineSet
Validated: 3073
EndChar

StartChar: Tbar
Encoding: 358 358 430
Width: 1229
VWidth: 1947
Flags: W
HStem: 0 21G<396 615.159> 452 210<156 491 749 1081> 1190 210<310 645 859 1235>
LayerCount: 2
Fore
SplineSet
396 0 m 1
 491 452 l 1
 112 452 l 1
 156 662 l 1
 535 662 l 1
 645 1190 l 1
 266 1190 l 1
 310 1400 l 1
 1279 1400 l 1
 1235 1190 l 1
 859 1190 l 1
 749 662 l 1
 1125 662 l 1
 1081 452 l 1
 705 452 l 1
 611 0 l 1
 396 0 l 1
EndSplineSet
Validated: 3073
EndChar

StartChar: tbar
Encoding: 359 359 431
Width: 1229
VWidth: 1947
Flags: W
HStem: -25 210<527.596 749.002> 452 210<156 341 610 1081> 799 210<276 428 698 955> 1405 20G<580 802>
VStem: 306 210<199.896 450.094>
LayerCount: 2
Fore
SplineSet
276 1009 m 1
 481 1009 l 1
 585 1425 l 1
 802 1425 l 1
 698 1009 l 1
 998 1009 l 1
 955 799 l 1
 645 799 l 1
 610 662 l 1
 1125 662 l 1
 1081 452 l 1
 558 452 l 1
 522 308 l 2
 519 295 516 281 516 270 c 3
 516 222 555 185 614 185 c 2
 637 185 l 2
 704 185 771 235 805 288 c 1
 981 174 l 1
 931 96 808 -25 637 -25 c 2
 614 -25 l 2
 438 -25 306 105 306 270 c 3
 306 303 308 319 316 352 c 2
 341 452 l 1
 112 452 l 1
 156 662 l 1
 394 662 l 1
 428 799 l 1
 232 799 l 1
 276 1009 l 1
EndSplineSet
Validated: 3073
EndChar

StartChar: A
Encoding: 65 65 461
Width: 1229
VWidth: 1708
Flags: W
HStem: 0 21G<-43 205.558 828.597 1042> 233 210<430 778> 1405 20G<702.389 876.358>
LayerCount: 2
Fore
SplineSet
430 443 m 1
 778 443 l 1
 715 981 l 1
 430 443 l 1
195 0 m 1
 -43 0 l 1
 713 1425 l 1
 874 1425 l 1
 1042 0 l 1
 831 0 l 1
 803 233 l 1
 318 233 l 1
 195 0 l 1
EndSplineSet
Validated: 3073
EndChar

StartChar: Lambda
Encoding: 923 923 462
Width: 1229
VWidth: 1708
Flags: W
HStem: 0 21G<-52 195.594 826.842 1039> 1405 20G<692.404 889.133>
LayerCount: 2
Fore
SplineSet
185 0 m 1
 -52 0 l 1
 703 1425 l 1
 887 1425 l 1
 1039 0 l 1
 829 0 l 1
 720 1010 l 1
 185 0 l 1
EndSplineSet
Validated: 3073
EndChar

StartChar: Delta
Encoding: 916 916 463
Width: 1229
VWidth: 1708
Flags: W
HStem: -0 210<318 790> 1405 20G<691.782 889.853>
LayerCount: 2
Fore
SplineSet
790 211 m 1
 717 992 l 1
 318 210 l 1
 790 211 l 1
-26 -0 m 1
 702 1425 l 1
 888 1425 l 1
 1020 0 l 1
 -26 -0 l 1
EndSplineSet
Validated: 3073
EndChar

StartChar: Theta
Encoding: 920 920 464
Width: 1229
VWidth: 1947
Flags: W
HStem: -25 210<406.767 656.963> 582 210<536 756> 1215 210<635.248 898.704>
VStem: 136 210<253.552 762.776> 957 210<662.666 1151.62>
LayerCount: 2
Fore
SplineSet
1167 958 m 3
 1167 884 1157 795 1142 726 c 2
 1128 662 l 2
 1070 382 891 -25 530 -25 c 2
 514 -25 l 2
 362 -25 136 64 136 459 c 3
 136 540 146 623 163 705 c 2
 176 768 l 2
 243 1089 427 1425 771 1425 c 2
 787 1425 l 2
 1051 1425 1167 1215 1167 958 c 3
787 1215 m 2
 771 1215 l 2
 537 1215 425 924 382 724 c 2
 369 663 l 2
 355 593 346 523 346 459 c 3
 346 220 442 185 514 185 c 2
 530 185 l 2
 705 185 858 398 922 706 c 2
 936 770 l 2
 950 838 957 901 957 958 c 3
 957 1157 882 1215 787 1215 c 2
800 792 m 1
 756 582 l 1
 492 582 l 1
 536 792 l 1
 800 792 l 1
EndSplineSet
Validated: 3073
EndChar

StartChar: Xi
Encoding: 926 926 465
Width: 1229
VWidth: 1708
Flags: W
HStem: 0 349<88 275 847 991> 0 210<275 819> 582 210<498 799> 1048 352<308 449 1023 1208> 1190 210<478 1023>
LayerCount: 2
Fore
SplineSet
275 210 m 1x60
 819 210 l 1x60
 847 349 l 1
 1062 349 l 1
 991 0 l 1xa0
 17 0 l 1x60
 88 349 l 1
 303 349 l 1xa0
 275 210 l 1x60
449 1048 m 1x30
 234 1048 l 1
 308 1400 l 1x30
 1281 1400 l 1x28
 1208 1048 l 1
 993 1048 l 1x30
 1023 1190 l 1
 478 1190 l 1x28
 449 1048 l 1x30
847 792 m 1
 799 582 l 1
 450 582 l 1
 498 792 l 1
 847 792 l 1
EndSplineSet
Validated: 3073
EndChar

StartChar: Sigma
Encoding: 931 931 468
Width: 1229
VWidth: 1947
Flags: W
HStem: 0 209<339 987> 1190 210<520 1235>
LayerCount: 2
Fore
SplineSet
310 1400 m 1
 1279 1400 l 1
 1235 1190 l 1
 520 1190 l 1
 815 704 l 1
 339 209 l 1
 1031 209 l 1
 987 0 l 1
 18 0 l 1
 66 227 l 1
 551 734 l 1
 268 1201 l 1
 310 1400 l 1
EndSplineSet
Validated: 3073
EndChar

StartChar: Psi
Encoding: 936 936 473
Width: 1229
VWidth: 1947
Flags: W
HStem: -25 21G<390 609.167> 407 210<385.088 480 739 871.841> 1405 20G<687.842 907>
VStem: 163 210<624.406 807.272>
LayerCount: 2
Fore
SplineSet
605 -25 m 1
 390 -25 l 1
 480 407 l 1
 455 407 l 2
 281 407 163 540 163 707 c 3
 163 729 164 752 170 781 c 2
 280 1320 l 1
 495 1320 l 1
 376 739 l 2
 373 727 373 717 373 707 c 3
 373 658 396 617 455 617 c 2
 524 617 l 1
 692 1425 l 1
 907 1425 l 1
 739 617 l 1
 768 617 l 2
 857 617 932 696 949 781 c 2
 1059 1320 l 1
 1274 1320 l 1
 1155 739 l 2
 1118 557 960 407 768 407 c 2
 695 407 l 1
 605 -25 l 1
EndSplineSet
Validated: 3073
EndChar

StartChar: Omega
Encoding: 937 937 474
Width: 1229
VWidth: 1947
Flags: W
HStem: 0 210<61 282 812 987> 1216 209<616.603 913.819>
VStem: 165 210<461.758 885.904> 970 210<743.843 1156.07>
LayerCount: 2
Fore
SplineSet
298 286 m 1
 248 328 165 426 165 635 c 3
 165 693 172 753 183 809 c 2
 194 860 l 2
 254 1138 429 1425 737 1425 c 2
 820 1425 l 2
 1059 1425 1180 1231 1180 996 c 3
 1180 938 1173 879 1160 818 c 2
 1149 766 l 2
 1106 563 991 347 823 261 c 1
 812 210 l 1
 1031 210 l 1
 987 0 l 1
 554 0 l 1
 641 420 l 1
 701 438 l 2
 799 467 905 625 943 808 c 2
 954 862 l 2
 964 910 970 955 970 996 c 3
 970 1192 864 1216 787 1216 c 2
 771 1216 l 2
 548 1216 439 999 400 816 c 2
 389 765 l 2
 380 722 375 677 375 635 c 3
 375 473 435 442 455 434 c 2
 537 402 l 1
 454 0 l 1
 17 0 l 1
 61 210 l 1
 282 210 l 1
 298 286 l 1
EndSplineSet
Validated: 3073
EndChar

StartChar: alpha
Encoding: 945 945 483
Width: 1229
VWidth: 1947
Flags: W
HStem: -25 210<349.969 526.744> 839 210<495.445 672.402>
VStem: 108 210<207.252 601.839>
LayerCount: 2
Fore
SplineSet
318 371 m 3
 318 348 322 185 411 185 c 2
 428 185 l 2
 493 185 540 229 590 313 c 2
 721 534 l 1
 683 746 l 2
 670 827 662 839 608 839 c 2
 590 839 l 2
 534 839 384 756 336 507 c 2
 330 476 l 2
 322 438 318 403 318 371 c 3
777 217 m 1
 747 163 638 -25 428 -25 c 2
 411 -25 l 2
 131 -25 108 263 108 371 c 3
 108 418 113 467 124 518 c 2
 130 549 l 2
 204 933 454 1049 590 1049 c 2
 608 1049 l 2
 822 1049 869 890 884 811 c 1
 1042 1077 l 1
 1222 971 l 1
 941 494 l 1
 1026 19 l 1
 820 -19 l 1
 777 217 l 1
EndSplineSet
Validated: 3073
EndChar

StartChar: beta
Encoding: 946 946 484
Width: 1229
VWidth: 2334
Flags: W
HStem: -25 210<337.195 756.125> 442 210<484 833.109> 839 210<511.95 883.82>
VStem: 853 210<265.948 428.422> 894 210<707.382 824.984>
LayerCount: 2
Fore
SplineSet
1104 789 m 3xe8
 1104 713 1076 624 995 553 c 1
 1040 507 1063 449 1063 384 c 3xf0
 1063 364 1062 346 1056 319 c 2
 1052 295 l 2
 1018 133 861 -25 553 -25 c 2
 502 -25 l 2
 448 -25 337 -21 239 41 c 1
 163 -324 l 1
 -51 -324 l 1
 150 642 l 2
 195 858 397 1049 691 1049 c 2
 714 1049 l 2
 1045 1049 1104 893 1104 789 c 3xe8
298 309 m 0
 298 193 448 185 502 185 c 2
 553 185 l 2
 734 185 829 252 846 333 c 2
 850 357 l 2
 851 362 853 374 853 384 c 3xf0
 853 415 825 442 667 442 c 2
 484 442 l 1
 484 652 l 1
 622 652 l 2
 776 652 894 696 894 789 c 3xe8
 894 819 836 839 714 839 c 2
 691 839 l 2
 497 839 381 719 356 600 c 2
 300 331 l 2
 298 322 298 316 298 309 c 0
EndSplineSet
Validated: 3073
EndChar

StartChar: gamma
Encoding: 947 947 485
Width: 1229
VWidth: 2334
Flags: W
HStem: 1003 20G<211 431.281 976.455 1238>
LayerCount: 2
Fore
SplineSet
316 -386 m 1
 414 80 l 1
 211 1023 l 1
 427 1023 l 1
 570 355 l 1
 989 1023 l 1
 1238 1023 l 1
 620 40 l 1
 531 -386 l 1
 316 -386 l 1
EndSplineSet
Validated: 3073
EndChar

StartChar: delta
Encoding: 948 948 486
Width: 1229
VWidth: 2334
Flags: W
HStem: -25 210<394.1 691.807> 1190 210<673 1152>
VStem: 110 210<259.622 606.426> 904 210<434.494 787.301>
LayerCount: 2
Fore
SplineSet
904 655 m 3
 904 802 813 839 712 839 c 2
 689 839 l 2
 502 839 377 701 342 533 c 2
 327 459 l 2
 323 438 320 416 320 396 c 3
 320 277 393 185 510 185 c 2
 533 185 l 2
 741 185 851 361 880 501 c 2
 895 575 l 2
 901 603 904 631 904 655 c 3
345 1400 m 1
 1152 1400 l 1
 1152 1190 l 1
 673 1190 l 1
 952 984 l 1
 1056 916 1114 798 1114 655 c 3
 1114 614 1109 574 1101 533 c 2
 1086 459 l 2
 1035 207 835 -25 533 -25 c 2
 510 -25 l 2
 271 -25 110 167 110 396 c 3
 110 431 114 466 121 501 c 2
 136 575 l 2
 179 780 322 969 538 1029 c 1
 304 1202 l 1
 345 1400 l 1
EndSplineSet
Validated: 3073
EndChar

StartChar: epsilon
Encoding: 949 949 487
Width: 1229
VWidth: 2334
Flags: W
HStem: -25 210<299.478 762.099> 427 210<389.75 808> 839 210<420.252 934.22>
VStem: 78 209<201.852 359.563> 170 210<656.351 796.529>
LayerCount: 2
Fore
SplineSet
940 789 m 1xe8
 919 810 851 839 741 839 c 2
 643 839 l 2
 457 839 399 808 382 726 c 0
 380 719 380 712 380 706 c 3xe8
 380 647 487 637 561 637 c 2
 853 637 l 1
 808 427 l 1
 561 427 l 2
 447 427 308 392 292 292 c 0
 289 276 287 258 287 253 c 3
 287 212 320 185 463 185 c 2
 561 185 l 2
 696 185 765 225 818 264 c 1
 942 94 l 1
 820 5 699 -25 561 -25 c 2
 463 -25 l 2
 86 -25 78 204 78 253 c 3xf0
 78 378 131 478 225 545 c 1
 178 602 170 695 170 705 c 3
 170 750 183 899 326 983 c 0
 432 1045 564 1049 643 1049 c 2
 741 1049 l 2
 1000 1049 1094 938 1104 921 c 1
 940 789 l 1xe8
EndSplineSet
Validated: 3073
EndChar

StartChar: zeta
Encoding: 950 950 488
Width: 1229
VWidth: 2334
Flags: W
HStem: -399 210<462 719.172> -25 210<312.259 758.027>
VStem: 83 210<202.53 402.077> 759 213<-147.41 -32.2823>
LayerCount: 2
Fore
SplineSet
463 -25 m 2
 86 -25 83 208 83 268 c 3
 83 309 86 333 89 347 c 2
 94 370 l 18
 104 414 154 629 461 734 c 2
 770 840 l 1
 706 860 635 902 572 942 c 2
 545 959 l 1
 659 1135 l 1
 705 1106 l 2
 795 1049 919 1023 1045 1023 c 2
 1200 1023 l 1
 1157 821 l 1
 1139 809 l 2
 1047 748 866 651 823 636 c 2
 529 536 l 2
 390 489 316 390 304 346 c 0
 300 331 293 299 293 268 c 3
 293 232 295 185 463 185 c 2
 616 185 l 2
 910 185 972 37 972 -61 c 3
 972 -71 968 -106 966 -117 c 2
 961 -138 l 2
 913 -341 700 -399 555 -399 c 2
 419 -399 l 1
 462 -189 l 1
 555 -189 l 2
 597 -189 735 -182 755 -94 c 2
 756 -88 l 2
 758 -76 759 -69 759 -68 c 3
 759 -27 686 -25 616 -25 c 2
 463 -25 l 2
EndSplineSet
Validated: 3073
EndChar

StartChar: eta
Encoding: 951 951 489
Width: 1229
VWidth: 2334
Flags: W
HStem: 0 21G<16 235.175> 839 209<549.632 909.806>
VStem: 931 210<658.675 808.055>
LayerCount: 2
Fore
SplineSet
16 0 m 1
 233 1048 l 1
 448 1048 l 1
 432 971 l 1
 502 1013 580 1048 661 1048 c 2
 760 1048 l 2
 1134 1048 1141 934 1141 761 c 3
 1141 743 1139 714 1133 684 c 2
 909 -387 l 1
 694 -387 l 1
 927 726 l 2
 928 733 931 758 931 761 c 3
 931 781 923 839 712 839 c 2
 689 839 l 2
 529 839 366 648 350 570 c 2
 231 0 l 1
 16 0 l 1
EndSplineSet
Validated: 3073
EndChar

StartChar: theta
Encoding: 952 952 490
Width: 1229
VWidth: 1947
Flags: W
HStem: -25 210<369.444 705.319> 407 210<367 852> 838 210<515.246 860.369>
VStem: 106 210<233.686 405.797> 906 210<617 792.497>
LayerCount: 2
Fore
SplineSet
852 407 m 1
 318 407 l 1
 317 394 316 380 316 368 c 3
 316 283 345 185 494 185 c 2
 541 185 l 2
 691 185 798 273 852 407 c 1
1116 664 m 3
 1116 623 1111 581 1102 538 c 2
 1084 452 l 2
 1027 181 830 -25 541 -25 c 2
 494 -25 l 2
 255 -25 106 134 106 368 c 3
 106 409 110 453 119 496 c 2
 137 579 l 2
 191 843 400 1048 672 1048 c 2
 724 1048 l 2
 968 1048 1116 892 1116 664 c 3
724 838 m 2
 672 838 l 2
 538 838 422 751 367 617 c 1
 902 617 l 1
 904 629 906 649 906 664 c 3
 906 803 821 838 724 838 c 2
EndSplineSet
Validated: 3073
EndChar

StartChar: lambda
Encoding: 955 955 491
Width: 1229
VWidth: 2334
Flags: W
HStem: 0 21G<-36 227.589 796.278 1016> 1405 20G<523 739.93>
LayerCount: 2
Fore
SplineSet
-36 0 m 1
 613 969 l 1
 523 1425 l 1
 736 1425 l 1
 1016 0 l 1
 800 0 l 1
 674 677 l 1
 214 0 l 1
 -36 0 l 1
EndSplineSet
Validated: 3073
EndChar

StartChar: xi
Encoding: 958 958 494
Width: 1229
VWidth: 2334
Flags: W
HStem: -399 210<463 717.422> -25 210<287.386 758.027> 408 210<387.31 842>
VStem: 73 210<200.591 333.967> 166 210<639.591 766.101>
LayerCount: 2
Fore
SplineSet
73 236 m 3xf0
 73 291 99 435 235 530 c 1
 190 575 166 632 166 692 c 3
 166 707 168 722 171 738 c 2
 177 763 l 2
 219 938 385 1000 546 1039 c 2
 629 1059 l 1
 588 1080 545 1128 531 1159 c 2
 518 1187 l 1
 708 1275 l 1
 719 1252 l 2
 732 1225 843 1192 922 1182 c 2
 990 1173 l 1
 944 954 l 1
 900 931 823 892 744 872 c 2
 590 833 l 2
 474 804 396 767 381 717 c 0
 378 708 376 696 376 693 c 3xe8
 376 639 440 618 604 618 c 2
 886 618 l 1
 842 408 l 1
 604 408 l 2
 504 408 283 381 283 243 c 3
 283 197 364 185 463 185 c 2
 616 185 l 2
 910 185 972 37 972 -61 c 3
 972 -71 968 -106 966 -117 c 2
 961 -138 l 2
 909 -357 699 -399 555 -399 c 2
 419 -399 l 1
 463 -189 l 1
 555 -189 l 2
 597 -189 726 -180 755 -94 c 2
 758 -85 l 2
 761 -77 762 -68 762 -65 c 3
 762 -28 710 -25 616 -25 c 2
 463 -25 l 2
 87 -25 73 156 73 236 c 3xf0
EndSplineSet
Validated: 3073
EndChar

StartChar: pi
Encoding: 960 960 496
Width: 1229
VWidth: 2334
Flags: W
HStem: 0 21G<-40 269 770.5 1048> 814 209<479 845>
VStem: 726 210<91.6563 423.969>
LayerCount: 2
Fore
SplineSet
948 269 m 2
 947 266 936 219 936 212 c 3
 936 150 991 65 1048 9 c 1
 1046 0 l 1
 790 0 l 1
 751 68 726 142 726 212 c 3
 726 235 728 252 732 269 c 2
 845 814 l 1
 479 814 l 1
 357 227 l 2
 342 155 299 75 239 -0 c 1
 -40 0 l 1
 -35 26 l 1
 58 95 136 196 151 269 c 2
 258 784 l 1
 195 765 145 739 109 715 c 1
 163 973 l 1
 249 1003 351 1023 467 1023 c 2
 925 1023 l 2
 1091 1023 1218 1092 1285 1149 c 1
 1228 874 l 1
 1178 854 1123 836 1062 826 c 1
 948 269 l 2
EndSplineSet
Validated: 3073
EndChar

StartChar: rho
Encoding: 961 961 497
Width: 1229
VWidth: 2334
Flags: W
HStem: -25 210<364.847 701.937> 839 208<509.271 855.125>
VStem: 909 210<556.09 782.401>
LayerCount: 2
Fore
SplineSet
533 -25 m 2
 510 -25 l 2
 401 -25 310 5 242 57 c 1
 151 -384 l 1
 -64 -384 l 1
 144 613 l 2
 196 862 376 1047 636 1047 c 2
 758 1047 l 2
 933 1047 1119 879 1119 670 c 3
 1119 638 1116 605 1109 571 c 2
 1082 440 l 2
 1030 188 831 -25 533 -25 c 2
876 482 m 2
 903 613 l 2
 907 634 909 653 909 670 c 3
 909 779 831 839 712 839 c 2
 689 839 l 2
 488 839 382 725 350 571 c 2
 323 440 l 2
 317 413 315 387 315 364 c 3
 315 221 408 185 510 185 c 2
 533 185 l 2
 739 185 846 339 876 482 c 2
EndSplineSet
Validated: 3073
EndChar

StartChar: sigmafinal
Encoding: 962 962 498
Width: 1229
VWidth: 2334
Flags: W
HStem: -399 210<465 717.798> -25 210<353.466 757.545> 838 210<569.629 967.699>
VStem: 105 210<224.142 495.974>
LayerCount: 2
Fore
SplineSet
616 -25 m 2
 463 -25 l 2
 257 -25 105 118 105 358 c 3
 105 401 110 446 119 492 c 2
 138 585 l 2
 191 836 459 1048 761 1048 c 2
 827 1048 l 2
 907 1048 1022 1002 1092 961 c 2
 1148 928 l 1
 1040 748 l 1
 981 787 l 2
 957 802 870 838 827 838 c 2
 761 838 l 2
 552 838 375 691 344 543 c 2
 325 450 l 2
 318 416 315 385 315 358 c 3
 315 279 340 185 463 185 c 2
 616 185 l 2
 766 185 972 149 972 -61 c 3
 972 -71 968 -106 966 -117 c 2
 961 -138 l 2
 909 -357 699 -399 555 -399 c 2
 421 -399 l 1
 465 -189 l 1
 555 -189 l 2
 597 -189 728 -180 755 -94 c 2
 758 -86 l 2
 760 -78 761 -71 761 -65 c 3
 761 -28 714 -25 616 -25 c 2
EndSplineSet
Validated: 3073
EndChar

StartChar: sigma
Encoding: 963 963 499
Width: 1229
VWidth: 1947
Flags: W
HStem: -25 210<371.711 687.83> 798 211<1093 1204> 838 210<512.161 854.411>
VStem: 110 210<236.011 606.219> 905 210<445.485 788.504>
LayerCount: 2
Fore
SplineSet
722 838 m 2xb8
 670 838 l 2
 509 838 379 716 343 537 c 2
 330 472 l 2
 323 441 320 410 320 383 c 3
 320 302 347 185 492 185 c 2
 540 185 l 2
 698 185 842 323 882 513 c 2
 896 580 l 2
 902 608 905 634 905 657 c 3
 905 743 869 838 722 838 c 2xb8
1115 657 m 3
 1115 618 1110 579 1102 538 c 2
 1088 471 l 2
 1033 210 822 -25 540 -25 c 2
 492 -25 l 2
 263 -25 110 141 110 383 c 3
 110 426 114 469 124 514 c 2
 137 579 l 2
 190 842 396 1048 670 1048 c 2
 722 1048 l 2xb8
 792 1048 856 1034 910 1008 c 1
 1248 1009 l 1
 1204 798 l 1
 1093 798 l 1xd8
 1107 755 1115 708 1115 657 c 3
EndSplineSet
Validated: 3073
EndChar

StartChar: tau
Encoding: 964 964 500
Width: 1229
VWidth: 2334
Flags: W
HStem: -25 21G<138 518> 814 209<343.125 567 781 1003.56>
LayerCount: 2
Fore
SplineSet
513 1024 m 2
 869 1023 l 2
 951 1023 1124 1127 1240 1213 c 1
 1179 922 l 1
 1073 862 960 814 869 814 c 2
 781 814 l 1
 685 347 l 2
 659 223 570 86 466 -25 c 1
 138 -25 l 1
 240 27 445 231 479 391 c 2
 567 814 l 1
 513 814 l 2
 423 814 268 744 159 678 c 1
 215 945 l 1
 317 991 425 1024 513 1024 c 2
EndSplineSet
Validated: 3073
EndChar

StartChar: upsilon
Encoding: 965 965 501
Width: 1229
VWidth: 1947
Flags: W
HStem: -25 210<371.216 685.941> 840 207<632 875.488> 1003 20G<224.828 444>
VStem: 110 210<233.316 641.156> 908 210<452.629 809.172>
LayerCount: 2
Fore
SplineSet
801 1047 m 2xd8
 1013 1047 1118 881 1118 682 c 3
 1118 635 1112 587 1102 538 c 2
 1085 456 l 1
 1026 177 788 -25 535 -25 c 2
 507 -25 l 2
 240 -25 110 145 110 377 c 3
 110 429 116 482 127 534 c 2
 229 1023 l 1
 444 1023 l 1xb8
 333 492 l 2
 325 451 320 412 320 377 c 3
 320 223 397 185 507 185 c 2
 535 185 l 2
 685 185 839 314 879 500 c 2
 896 580 l 2
 904 617 908 652 908 682 c 3
 908 840 810 840 750 840 c 2
 632 840 l 1
 632 1047 l 1
 801 1047 l 2xd8
EndSplineSet
Validated: 3073
EndChar

StartChar: phi
Encoding: 966 966 502
Width: 1229
VWidth: 1947
Flags: W
HStem: 839 208<794.929 899.426>
VStem: 107 209<222.971 623.227> 910 210<458.387 836.976>
LayerCount: 2
Fore
SplineSet
393 -17 m 1
 318 -5 107 59 107 359 c 3
 107 413 114 468 125 522 c 2
 213 945 l 1
 427 945 l 1
 331 480 l 2
 322 437 316 395 316 359 c 3
 316 251 354 201 436 189 c 1
 551 741 l 2
 564 802 623 1047 822 1047 c 2
 897 1047 l 2
 957 1047 1120 995 1120 706 c 3
 1120 651 1114 592 1101 531 c 2
 1091 483 l 2
 1041 247 891 2 606 -23 c 1
 531 -384 l 1
 316 -384 l 1
 393 -17 l 1
910 706 m 3
 910 786 888 839 876 839 c 2
 853 839 l 2
 834 839 782 818 757 697 c 2
 653 200 l 1
 786 246 856 389 885 527 c 2
 895 575 l 2
 905 623 910 667 910 706 c 3
EndSplineSet
Validated: 3073
EndChar

StartChar: chi
Encoding: 967 967 503
Width: 1229
VWidth: 2062
Flags: W
HStem: 1003 20G<161 450.842 986.095 1270>
LayerCount: 2
Fore
SplineSet
-120 -387 m 1
 454 335 l 1
 423 543 l 2
 403 674 348 800 310 845 c 2
 161 1023 l 1
 434 1023 l 1
 466 985 l 2
 521 920 599 787 633 559 c 1
 1002 1023 l 1
 1270 1023 l 1
 675 275 l 1
 687 193 l 2
 722 -49 761 -208 805 -242 c 2
 978 -375 l 1
 978 -375 980 -379 996 -387 c 1
 655 -387 l 1
 596 -322 531 -201 493 47 c 1
 148 -387 l 1
 -120 -387 l 1
EndSplineSet
Validated: 3073
EndChar

StartChar: psi
Encoding: 968 968 504
Width: 1229
VWidth: 1947
Flags: W
HStem: -24 209<365.604 391 650 725.704> 1027 20G<609.824 828>
VStem: 115 210<226.105 556.299>
LayerCount: 2
Fore
SplineSet
325 407 m 3
 325 349 354 185 412 185 c 2
 434 185 l 1
 614 1047 l 1
 828 1047 l 1
 650 189 l 1
 744 198 847 342 886 534 c 2
 970 945 l 1
 1185 945 l 1
 1092 492 l 2
 1031 197 814 -25 628 -25 c 2
 605 -24 l 1
 530 -384 l 1
 316 -384 l 1
 391 -24 l 1
 206 -8 115 197 115 407 c 3
 115 450 119 493 127 534 c 2
 211 945 l 1
 426 945 l 1
 333 492 l 2
 328 466 325 437 325 407 c 3
EndSplineSet
Validated: 3073
EndChar

StartChar: omega
Encoding: 969 969 505
Width: 1229
VWidth: 2334
Flags: W
HStem: -25 210<296.245 428.044 666.345 794.411> 1003 20G<313 603 844 1097>
VStem: 83 210<193.777 391.735> 937 210<563.328 941.09>
LayerCount: 2
Fore
SplineSet
531 36 m 1
 451 -24 377 -25 336 -25 c 2
 314 -25 l 2
 222 -25 83 44 83 272 c 3
 83 310 86 338 93 370 c 2
 170 741 l 2
 187 820 252 945 313 1017 c 2
 319 1023 l 1
 603 1023 l 1
 465 873 l 2
 439 845 388 752 376 697 c 2
 299 328 l 2
 295 309 293 294 293 272 c 27
 293 236 298 185 322 185 c 2
 330 185 l 2
 369 185 436 189 463 314 c 2
 545 700 l 1
 761 700 l 1
 669 270 l 2
 666 254 664 240 664 229 c 3
 664 188 676 185 697 185 c 2
 722 185 l 2
 748 185 820 211 853 371 c 2
 929 740 l 2
 935 768 937 793 937 814 c 3
 937 857 930 879 922 892 c 2
 844 1023 l 1
 1086 1023 l 1
 1097 1003 l 2
 1133 940 1147 890 1147 814 c 27
 1147 769 1143 735 1135 698 c 2
 1059 329 l 2
 988 -15 742 -25 722 -25 c 2
 697 -25 l 2
 630 -25 573 -3 531 36 c 1
EndSplineSet
Validated: 3073
EndChar

StartChar: dieresiscmb
Encoding: 776 776 508
Width: 1229
VWidth: 1947
Flags: W
HStem: 1235 258<514.639 699.515 892.536 1075.24>
VStem: 481 251<1267.83 1461.4> 859 249<1267.86 1463.21>
LayerCount: 2
Fore
SplineSet
984 1493 m 3
 1045 1493 1108 1445 1108 1367 c 3
 1108 1290 1047 1235 984 1235 c 3
 918 1235 859 1296 859 1367 c 19
 859 1446 906 1493 984 1493 c 3
732 1367 m 3
 732 1296 676 1235 607 1235 c 3
 540 1235 481 1294 481 1367 c 3
 481 1445 543 1493 606 1493 c 3
 677 1493 732 1434 732 1367 c 3
EndSplineSet
EndChar

StartChar: Djecyrillic
Encoding: 1026 1026 512
Width: 1229
VWidth: 2334
Flags: W
HStem: 0 210<649 788.036> 772 210<738.303 907.893> 1190 210<307 493 707 1232>
VStem: 916 210<597.879 765>
LayerCount: 2
Fore
SplineSet
651 922 m 1
 745 982 803 982 823 982 c 2
 848 982 l 2
 1015 982 1126 862 1126 699 c 3
 1126 675 1125 649 1118 618 c 2
 1067 374 l 2
 991 12 765 0 722 0 c 2
 604 0 l 1
 649 210 l 1
 722 210 l 2
 801 210 855 386 861 416 c 2
 912 662 l 2
 915 676 916 688 916 699 c 3
 916 760 884 772 848 772 c 2
 823 772 l 2
 774 772 595 645 543 402 c 2
 458 0 l 1
 242 0 l 1
 493 1190 l 1
 263 1190 l 1
 307 1400 l 1
 1276 1400 l 1
 1232 1190 l 1
 707 1190 l 1
 651 922 l 1
EndSplineSet
Validated: 3073
EndChar

StartChar: Ljecyrillic
Encoding: 1033 1033 513
Width: 1229
VWidth: 1947
Flags: W
HStem: 0 210<655 765.327> 1380 20G<554.5 902>
VStem: 890 210<368.461 661.588>
LayerCount: 2
Fore
SplineSet
341 1105 m 2
 373 1197 463 1400 646 1400 c 2
 902 1400 l 1
 795 883 l 1
 999 878 1100 743 1100 578 c 3
 1100 544 1096 511 1089 476 c 2
 1074 403 l 2
 1020 144 855 0 642 0 c 2
 397 0 l 1
 644 1190 l 1
 622 1185 579 1151 539 1037 c 2
 174 0 l 1
 -49 0 l 1
 341 1105 l 2
751 673 m 1
 655 210 l 1
 717 213 826 243 868 445 c 2
 883 518 l 2
 888 541 890 561 890 578 c 3
 890 634 874 673 782 673 c 2
 751 673 l 1
EndSplineSet
Validated: 3073
EndChar

StartChar: Njecyrillic
Encoding: 1034 1034 514
Width: 1229
VWidth: 1947
Flags: W
HStem: 0 210<655 765.398> 673 210<414 536 794 885.354> 1380 20G<302.843 522 682.861 902>
VStem: 892 210<376.792 664.789>
LayerCount: 2
Fore
SplineSet
751 673 m 1
 655 210 l 1
 783 213 848 349 868 445 c 2
 883 518 l 2
 886 532 892 561 892 590 c 3
 892 646 877 673 791 673 c 2
 751 673 l 1
231 0 m 1
 16 0 l 1
 307 1400 l 1
 522 1400 l 1
 414 883 l 1
 580 883 l 1
 687 1400 l 1
 902 1400 l 1
 794 883 l 1
 984 882 1102 774 1102 590 c 3
 1102 552 1097 515 1089 476 c 2
 1074 403 l 2
 1033 208 892 0 651 0 c 2
 397 0 l 1
 536 673 l 1
 370 673 l 1
 231 0 l 1
EndSplineSet
Validated: 3073
EndChar

StartChar: Tshecyrillic
Encoding: 1035 1035 515
Width: 1229
VWidth: 2334
Flags: W
HStem: 0 21G<221 440.193 775 994.16> 839 210<706 925.755> 1190 210<307 469 683 1232>
VStem: 933 210<678.312 830.51>
LayerCount: 2
Fore
SplineSet
642 992 m 1
 737 1049 792 1049 823 1049 c 2
 848 1049 l 2
 1023 1049 1143 932 1143 773 c 3
 1143 752 1142 730 1136 702 c 2
 990 0 l 1
 775 0 l 1
 930 746 l 2
 932 757 933 765 933 773 c 3
 933 806 917 839 848 839 c 2
 816 839 l 2
 750 839 598 773 536 477 c 2
 436 0 l 1
 221 0 l 1
 469 1190 l 1
 263 1190 l 1
 307 1400 l 1
 1276 1400 l 1
 1232 1190 l 1
 683 1190 l 1
 642 992 l 1
EndSplineSet
Validated: 3073
EndChar

StartChar: Dzhecyrillic
Encoding: 1039 1039 516
Width: 1229
VWidth: 2334
Flags: W
HStem: 0 210<275 397 612 819> 1380 20G<299.9 519 1058.9 1278>
LayerCount: 2
Fore
SplineSet
275 210 m 1
 819 210 l 1
 1063 1400 l 1
 1278 1400 l 1
 991 0 l 1
 612 0 l 1
 530 -387 l 1
 315 -387 l 1
 397 0 l 1
 17 0 l 1
 304 1400 l 1
 519 1400 l 1
 275 210 l 1
EndSplineSet
Validated: 3073
EndChar

StartChar: djecyrillic
Encoding: 1106 1106 517
Width: 1229
VWidth: 2334
Flags: W
HStem: -399 210<357.755 645.948> 0 21G<105 324.174> 727 210<595.549 882.061> 1064 210<282 327 585 923> 1405 20G<397.894 617>
VStem: 897 210<372.844 708.48>
LayerCount: 2
Fore
SplineSet
357 -158 m 1
 373 -172 395 -189 462 -189 c 2
 531 -189 l 2
 650 -189 764 -54 791 74 c 2
 886 534 l 2
 890 551 897 588 897 623 c 27
 897 691 864 727 757 727 c 2
 713 727 l 2
 582 727 434 545 411 436 c 2
 320 0 l 1
 105 0 l 1
 327 1064 l 1
 238 1064 l 1
 282 1274 l 1
 371 1274 l 1
 402 1425 l 1
 617 1425 l 1
 585 1274 l 1
 965 1274 l 1
 923 1064 l 1
 541 1064 l 1
 502 873 l 1
 565 912 636 937 713 937 c 2
 757 937 l 2
 1098 937 1107 678 1107 623 c 3
 1107 578 1101 535 1092 492 c 2
 997 32 l 2
 952 -184 762 -399 531 -399 c 2
 462 -399 l 2
 311 -399 237 -334 211 -308 c 1
 357 -158 l 1
EndSplineSet
Validated: 3073
EndChar

StartChar: dzhecyrillic
Encoding: 1119 1119 519
Width: 1229
VWidth: 2334
Flags: W
HStem: 0 211<275 398 612 820> 1003 20G<224.855 443 983.862 1202>
LayerCount: 2
Fore
SplineSet
275 211 m 1
 820 211 l 1
 988 1023 l 1
 1202 1023 l 1
 988 0 l 1
 612 0 l 1
 532 -381 l 1
 317 -381 l 1
 398 0 l 1
 17 0 l 1
 229 1023 l 1
 443 1023 l 1
 275 211 l 1
EndSplineSet
Validated: 3073
EndChar

StartChar: ljecyrillic
Encoding: 1113 1113 520
Width: 1229
VWidth: 1947
Flags: W
HStem: 0 210<654 783.746> 453 210<749 853.16> 1003 20G<504.5 824>
VStem: 858 210<284.759 442.97>
LayerCount: 2
Fore
SplineSet
184 639 m 2
 274 915 424 1023 585 1023 c 2
 824 1023 l 1
 749 663 l 1
 763 663 l 2
 930 663 1068 544 1068 394 c 3
 1068 385 1065 355 1063 346 c 2
 1053 302 l 2
 1017 128 848 0 669 0 c 2
 396 0 l 1
 565 812 l 1
 485 800 427 710 384 577 c 2
 197 0 l 1
 -24 0 l 1
 184 639 l 2
858 394 m 3
 858 417 830 453 763 453 c 2
 705 453 l 1
 654 210 l 1
 669 210 l 2
 748 210 825 270 847 346 c 2
 852 362 l 2
 855 374 858 391 858 394 c 3
EndSplineSet
Validated: 3073
EndChar

StartChar: njecyrillic
Encoding: 1114 1114 521
Width: 1229
VWidth: 1947
Flags: W
HStem: 0 210<656 782.365> 453 210<368 492 750 849.027> 1003 20G<224.836 443 605.833 825>
VStem: 855 211<342 441.162>
LayerCount: 2
Fore
SplineSet
754 453 m 2
 706 453 l 1
 656 210 l 1
 660 210 l 2
 747 210 829 274 846 342 c 2
 852 364 l 2
 854 376 855 385 855 394 c 3
 855 442 815 453 754 453 c 2
229 0 m 1
 16 0 l 1
 229 1023 l 1
 443 1023 l 1
 368 663 l 1
 535 663 l 1
 610 1023 l 1
 825 1023 l 1
 750 663 l 1
 754 663 l 2
 834 663 1066 627 1066 389 c 3
 1066 381 1064 351 1062 343 c 2
 1052 298 l 2
 1016 124 837 0 660 0 c 2
 398 -0 l 1
 492 453 l 1
 325 453 l 1
 229 0 l 1
EndSplineSet
Validated: 3073
EndChar

StartChar: apostrophereverse
Encoding: 8219 8219 523
Width: 1229
VWidth: 1708
Flags: W
HStem: 876 605<778.485 795.999>
VStem: 593 204<1066.83 1349>
LayerCount: 2
Fore
SplineSet
777 1481 m 27
 879 1481 972 1412 972 1306 c 3
 972 1226 918 1162 846 1143 c 0
 813 1135 798 1106 797 1072 c 3
 797 1023 851 974 903 947 c 1
 872 876 l 1
 620 968 593 1150 593 1300 c 3
 593 1398 676 1481 777 1481 c 27
EndSplineSet
Validated: 3073
EndChar

StartChar: arrowleft
Encoding: 8592 8592 526
Width: 1229
VWidth: 1708
Flags: W
HStem: 520 160<430 1026> 1027 20G<538.072 578.091>
LayerCount: 2
Fore
SplineSet
1026 680 m 1
 1026 520 l 1
 430 520 l 1
 673 263 l 1
 557 153 l 1
 204 526 l 1
 204 674 l 1
 557 1047 l 1
 673 937 l 1
 430 680 l 1
 1026 680 l 1
EndSplineSet
Validated: 3073
EndChar

StartChar: arrowright
Encoding: 8594 8594 527
Width: 1229
VWidth: 1708
Flags: W
HStem: 520 160<204 800> 1027 20G<651.909 691.928>
LayerCount: 2
Fore
SplineSet
204 520 m 1
 204 680 l 1
 800 680 l 1
 557 937 l 1
 673 1047 l 1
 1026 674 l 1
 1026 526 l 1
 673 153 l 1
 557 263 l 1
 800 520 l 1
 204 520 l 1
EndSplineSet
Validated: 3073
EndChar

StartChar: lthorizform
Encoding: 9472 9472 528
Width: 1229
Flags: W
HStem: 443 160<0 1229>
LayerCount: 2
Fore
SplineSet
0 443 m 1
 -0 603 l 1
 1229 603 l 1
 1229 443 l 1
 0 443 l 1
EndSplineSet
Validated: 3073
EndChar

StartChar: ltvertform
Encoding: 9474 9474 529
Width: 1229
Flags: W
VStem: 535 160<-615 1775>
LayerCount: 2
Fore
SplineSet
695 -615 m 1
 535 -615 l 1
 535 1775 l 1
 695 1775 l 1
 695 -615 l 1
EndSplineSet
Validated: 3073
EndChar

StartChar: rightanglenw
Encoding: 9484 9484 530
Width: 1229
Flags: W
HStem: 443 160<695 1229>
VStem: 535 160<-615 443>
LayerCount: 2
Fore
SplineSet
535 -615 m 1
 535 603 l 1
 1229 603 l 1
 1229 443 l 1
 695 443 l 1
 695 -615 l 1
 535 -615 l 1
EndSplineSet
Validated: 3073
EndChar

StartChar: rightanglene
Encoding: 9488 9488 531
Width: 1229
Flags: W
HStem: 443 160<0 535>
VStem: 535 160<-615 443>
LayerCount: 2
Fore
SplineSet
535 443 m 1
 0 443 l 1
 -0 603 l 1
 695 603 l 1
 695 -615 l 1
 535 -615 l 1
 535 443 l 1
EndSplineSet
Validated: 3073
EndChar

StartChar: rightanglesw
Encoding: 9492 9492 532
Width: 1229
Flags: W
HStem: 443 160<695 1229>
VStem: 535 160<603 1775>
LayerCount: 2
Fore
SplineSet
695 603 m 1
 1229 603 l 1
 1229 443 l 1
 535 443 l 1
 535 1775 l 1
 695 1775 l 1
 695 603 l 1
EndSplineSet
Validated: 3073
EndChar

StartChar: rightanglese
Encoding: 9496 9496 533
Width: 1229
Flags: W
HStem: 443 160<0 535>
VStem: 535 160<603 1775>
LayerCount: 2
Fore
SplineSet
695 1775 m 1
 695 443 l 1
 0 443 l 1
 -0 603 l 1
 535 603 l 1
 535 1775 l 1
 695 1775 l 1
EndSplineSet
Validated: 3073
EndChar

StartChar: ltvertrightform
Encoding: 9500 9500 534
Width: 1229
Flags: W
HStem: 443 160<695 1229>
VStem: 535 160<-615 443 603 1775>
LayerCount: 2
Fore
SplineSet
695 -615 m 1
 535 -615 l 1
 535 1775 l 1
 695 1775 l 1
 695 603 l 1
 1229 603 l 1
 1229 443 l 1
 695 443 l 1
 695 -615 l 1
EndSplineSet
Validated: 3073
EndChar

StartChar: ltvertleftform
Encoding: 9508 9508 535
Width: 1229
Flags: W
HStem: 443 160<0 535>
VStem: 535 160<-615 443 603 1775>
LayerCount: 2
Fore
SplineSet
0 443 m 1
 -0 603 l 1
 535 603 l 1
 535 1775 l 1
 695 1775 l 1
 695 -615 l 1
 535 -615 l 1
 535 443 l 1
 0 443 l 1
EndSplineSet
Validated: 3073
EndChar

StartChar: ltdnhorizform
Encoding: 9516 9516 536
Width: 1229
Flags: W
HStem: 443 160<0 535 695 1229>
VStem: 535 160<-615 443>
LayerCount: 2
Fore
SplineSet
0 443 m 1
 -0 603 l 1
 1229 603 l 1
 1229 443 l 1
 695 443 l 1
 695 -615 l 1
 535 -615 l 1
 535 443 l 1
 0 443 l 1
EndSplineSet
Validated: 3073
EndChar

StartChar: ltuphorizform
Encoding: 9524 9524 537
Width: 1229
Flags: W
HStem: 443 160<0 535 695 1229>
VStem: 535 160<603 1775>
LayerCount: 2
Fore
SplineSet
0 443 m 1
 -0 603 l 1
 535 603 l 1
 535 1775 l 1
 695 1775 l 1
 695 603 l 1
 1229 603 l 1
 1229 443 l 1
 0 443 l 1
EndSplineSet
Validated: 3073
EndChar

StartChar: ltverthorizform
Encoding: 9532 9532 538
Width: 1229
Flags: W
HStem: 443 160<0 535 695 1229>
VStem: 535 160<-615 443 603 1775>
LayerCount: 2
Fore
SplineSet
0 443 m 1
 -0 603 l 1
 535 603 l 1
 535 1775 l 1
 695 1775 l 1
 695 603 l 1
 1229 603 l 1
 1229 443 l 1
 695 443 l 1
 695 -615 l 1
 535 -615 l 1
 535 443 l 1
 0 443 l 1
EndSplineSet
Validated: 3073
EndChar

StartChar: horizdblbar
Encoding: 9552 9552 539
Width: 1229
Flags: W
HStem: 283 160<0 1229> 635 160<0 1229>
LayerCount: 2
Fore
SplineSet
0 635 m 1
 -0 795 l 1
 1229 795 l 1
 1229 635 l 1
 0 635 l 1
0 283 m 1
 -0 443 l 1
 1229 443 l 1
 1229 283 l 1
 0 283 l 1
EndSplineSet
Validated: 3073
EndChar

StartChar: vertdblbar
Encoding: 9553 9553 540
Width: 1229
Flags: W
VStem: 375 160<-615 1775> 695 160<-615 1775>
LayerCount: 2
Fore
SplineSet
855 -615 m 1
 695 -615 l 1
 695 1775 l 1
 855 1775 l 1
 855 -615 l 1
535 -615 m 1
 375 -615 l 1
 375 1775 l 1
 535 1775 l 1
 535 -615 l 1
EndSplineSet
Validated: 3073
EndChar

StartChar: dnrtdblform
Encoding: 9554 9554 541
Width: 1229
Flags: W
HStem: 283 160<695 1229> 635 160<695 1229>
VStem: 535 160<-615 283 443 635>
LayerCount: 2
Fore
SplineSet
695 283 m 1
 695 -615 l 1
 535 -615 l 1
 535 795 l 1
 1229 795 l 1
 1229 635 l 1
 695 635 l 1
 695 443 l 1
 1229 443 l 1
 1229 283 l 1
 695 283 l 1
EndSplineSet
Validated: 3073
EndChar

StartChar: dndblrtform
Encoding: 9555 9555 542
Width: 1229
Flags: W
HStem: 443 160<535 695 855 1229>
VStem: 375 160<-615 443> 695 160<-615 443>
LayerCount: 2
Fore
SplineSet
855 -615 m 1
 695 -615 l 1
 695 443 l 1
 535 443 l 1
 535 -615 l 1
 375 -615 l 1
 375 603 l 1
 1229 603 l 1
 1229 443 l 1
 855 443 l 1
 855 -615 l 1
EndSplineSet
Validated: 3073
EndChar

StartChar: dbldnrtform
Encoding: 9556 9556 543
Width: 1229
Flags: W
HStem: 283 160<855 1229> 635 160<535 1229>
VStem: 375 160<-615 635> 695 160<-615 283>
LayerCount: 2
Fore
SplineSet
535 635 m 1
 535 -615 l 1
 375 -615 l 1
 375 795 l 1
 1229 795 l 1
 1229 635 l 1
 535 635 l 1
855 283 m 1
 855 -615 l 1
 695 -615 l 1
 695 443 l 1
 1229 443 l 1
 1229 283 l 1
 855 283 l 1
EndSplineSet
Validated: 3073
EndChar

StartChar: dnleftdblform
Encoding: 9557 9557 544
Width: 1229
Flags: W
HStem: 283 160<0 535> 635 160<0 535>
VStem: 535 160<-615 283 443 635>
LayerCount: 2
Fore
SplineSet
0 795 m 1
 695 795 l 1
 695 -615 l 1
 535 -615 l 1
 535 283 l 1
 0 283 l 1
 -0 443 l 1
 535 443 l 1
 535 635 l 1
 -0 635 l 1
 0 795 l 1
EndSplineSet
Validated: 3073
EndChar

StartChar: dndblleftform
Encoding: 9558 9558 545
Width: 1229
Flags: W
HStem: 443 160<0 375 535 695>
VStem: 375 160<-615 443> 695 160<-615 443>
LayerCount: 2
Fore
SplineSet
535 -615 m 1
 375 -615 l 1
 375 443 l 1
 0 443 l 1
 -0 603 l 1
 855 603 l 1
 855 -615 l 1
 695 -615 l 1
 695 443 l 1
 535 443 l 1
 535 -615 l 1
EndSplineSet
Validated: 3073
EndChar

StartChar: dbldnleftform
Encoding: 9559 9559 546
Width: 1229
Flags: W
HStem: 283 160<0 375> 635 160<0 695>
VStem: 375 160<-615 283> 695 160<-615 635>
LayerCount: 2
Fore
SplineSet
0 795 m 1
 855 795 l 1
 855 -615 l 1
 695 -615 l 1
 695 635 l 1
 -0 635 l 1
 0 795 l 1
0 443 m 1
 535 443 l 1
 535 -615 l 1
 375 -615 l 1
 375 283 l 1
 -0 283 l 1
 0 443 l 1
EndSplineSet
Validated: 3073
EndChar

StartChar: uprtdblform
Encoding: 9560 9560 547
Width: 1229
Flags: W
HStem: 283 160<695 1229> 603 160<695 1229>
VStem: 535 160<443 603 763 1775>
LayerCount: 2
Fore
SplineSet
1229 283 m 1
 535 283 l 1
 535 1775 l 1
 695 1775 l 1
 695 763 l 1
 1229 763 l 1
 1229 603 l 1
 695 603 l 1
 695 443 l 1
 1229 443 l 1
 1229 283 l 1
EndSplineSet
Validated: 3073
EndChar

StartChar: updblrtform
Encoding: 9561 9561 548
Width: 1229
Flags: W
HStem: 443 160<535 695 855 1229>
VStem: 375 160<603 1775> 695 160<603 1775>
LayerCount: 2
Fore
SplineSet
855 603 m 1
 1229 603 l 1
 1229 443 l 1
 375 443 l 1
 375 1775 l 1
 535 1775 l 1
 535 603 l 1
 695 603 l 1
 695 1775 l 1
 855 1775 l 1
 855 603 l 1
EndSplineSet
Validated: 3073
EndChar

StartChar: dbluprtform
Encoding: 9562 9562 549
Width: 1229
Flags: W
HStem: 283 160<535 1229> 635 160<855 1229>
VStem: 375 160<443 1775> 695 160<795 1775>
LayerCount: 2
Fore
SplineSet
1229 635 m 1
 695 635 l 1
 695 1775 l 1
 855 1775 l 1
 855 795 l 1
 1229 795 l 1
 1229 635 l 1
1229 283 m 1
 375 283 l 1
 375 1775 l 1
 535 1775 l 1
 535 443 l 1
 1229 443 l 1
 1229 283 l 1
EndSplineSet
Validated: 3073
EndChar

StartChar: upleftdblform
Encoding: 9563 9563 550
Width: 1229
Flags: W
HStem: 283 160<0 535> 603 160<0 535>
VStem: 535 160<443 603 763 1775>
LayerCount: 2
Fore
SplineSet
0 603 m 1
 -0 763 l 1
 535 763 l 1
 535 1775 l 1
 695 1775 l 1
 695 283 l 1
 -0 283 l 1
 0 443 l 1
 535 443 l 1
 535 603 l 1
 0 603 l 1
EndSplineSet
Validated: 3073
EndChar

StartChar: updblleftform
Encoding: 9564 9564 551
Width: 1229
Flags: W
HStem: 443 160<0 375 535 695>
VStem: 375 160<603 1775> 695 160<603 1775>
LayerCount: 2
Fore
SplineSet
855 1775 m 1
 855 443 l 1
 0 443 l 1
 -0 603 l 1
 375 603 l 1
 375 1775 l 1
 535 1775 l 1
 535 603 l 1
 695 603 l 1
 695 1775 l 1
 855 1775 l 1
EndSplineSet
Validated: 3073
EndChar

StartChar: dblupleftform
Encoding: 9565 9565 552
Width: 1229
Flags: W
HStem: 283 160<0 695> 635 160<0 375>
VStem: 375 160<795 1775> 695 160<443 1775>
LayerCount: 2
Fore
SplineSet
375 795 m 1
 375 1775 l 1
 535 1775 l 1
 535 635 l 1
 -0 635 l 1
 0 795 l 1
 375 795 l 1
695 443 m 1
 695 1775 l 1
 855 1775 l 1
 855 283 l 1
 -0 283 l 1
 0 443 l 1
 695 443 l 1
EndSplineSet
Validated: 3073
EndChar

StartChar: vertrtdblform
Encoding: 9566 9566 553
Width: 1229
Flags: W
HStem: 283 160<695 1229> 603 160<695 1229>
VStem: 535 160<-615 283 443 603 763 1775>
LayerCount: 2
Fore
SplineSet
695 -615 m 1
 535 -615 l 1
 535 1775 l 1
 695 1775 l 1
 695 763 l 1
 1229 763 l 1
 1229 603 l 1
 695 603 l 1
 695 443 l 1
 1229 443 l 1
 1229 283 l 1
 695 283 l 1
 695 -615 l 1
EndSplineSet
Validated: 3073
EndChar

StartChar: vertdblrtform
Encoding: 9567 9567 554
Width: 1229
Flags: W
HStem: 443 160<855 1229>
VStem: 375 160<-615 1775> 695 160<-615 443 603 1775>
LayerCount: 2
Fore
SplineSet
855 -615 m 1
 695 -615 l 1
 695 1775 l 1
 855 1775 l 1
 855 603 l 1
 1229 603 l 1
 1229 443 l 1
 855 443 l 1
 855 -615 l 1
535 -615 m 1
 375 -615 l 1
 375 1775 l 1
 535 1775 l 1
 535 -615 l 1
EndSplineSet
Validated: 3073
EndChar

StartChar: dblvertrtform
Encoding: 9568 9568 555
Width: 1229
Flags: W
HStem: 283 160<855 1229> 635 160<855 1229>
VStem: 375 160<-615 1775> 695 160<-615 283 795 1775>
LayerCount: 2
Fore
SplineSet
535 -615 m 1
 375 -615 l 1
 375 1775 l 1
 535 1775 l 1
 535 -615 l 1
1229 635 m 1
 695 635 l 1
 695 1775 l 1
 855 1775 l 1
 855 795 l 1
 1229 795 l 1
 1229 635 l 1
855 283 m 1
 855 -615 l 1
 695 -615 l 1
 695 443 l 1
 1229 443 l 1
 1229 283 l 1
 855 283 l 1
EndSplineSet
Validated: 3073
EndChar

StartChar: vertleftdblform
Encoding: 9569 9569 556
Width: 1229
Flags: W
HStem: 283 160<0 535> 603 160<0 535>
VStem: 535 160<-615 283 443 603 763 1775>
LayerCount: 2
Fore
SplineSet
695 -615 m 1
 535 -615 l 1
 535 283 l 1
 0 283 l 1
 -0 443 l 1
 535 443 l 1
 535 603 l 1
 0 603 l 1
 -0 763 l 1
 535 763 l 1
 535 1775 l 1
 695 1775 l 1
 695 -615 l 1
EndSplineSet
Validated: 3073
EndChar

StartChar: vertdblleftform
Encoding: 9570 9570 557
Width: 1229
Flags: W
HStem: 443 160<0 375>
VStem: 375 160<-615 443 603 1775> 695 160<-615 1775>
LayerCount: 2
Fore
SplineSet
0 443 m 1
 -0 603 l 1
 375 603 l 1
 375 1775 l 1
 535 1775 l 1
 535 -615 l 1
 375 -615 l 1
 375 443 l 1
 0 443 l 1
855 -615 m 1
 695 -615 l 1
 695 1775 l 1
 855 1775 l 1
 855 -615 l 1
EndSplineSet
Validated: 3073
EndChar

StartChar: dblvertleftform
Encoding: 9571 9571 558
Width: 1229
Flags: W
HStem: 283 160<0 375> 635 160<0 375>
VStem: 375 160<-615 283 795 1775> 695 160<-615 1775>
LayerCount: 2
Fore
SplineSet
855 -615 m 1
 695 -615 l 1
 695 1775 l 1
 855 1775 l 1
 855 -615 l 1
375 795 m 1
 375 1775 l 1
 535 1775 l 1
 535 635 l 1
 -0 635 l 1
 0 795 l 1
 375 795 l 1
0 443 m 1
 535 443 l 1
 535 -615 l 1
 375 -615 l 1
 375 283 l 1
 -0 283 l 1
 0 443 l 1
EndSplineSet
Validated: 3073
EndChar

StartChar: dnhorizdblform
Encoding: 9572 9572 559
Width: 1229
Flags: W
HStem: 283 160<0 535 695 1229> 635 160<0 1229>
VStem: 535 160<-615 283>
LayerCount: 2
Fore
SplineSet
695 -615 m 1
 535 -615 l 1
 535 283 l 1
 0 283 l 1
 -0 443 l 1
 1229 443 l 1
 1229 283 l 1
 695 283 l 1
 695 -615 l 1
0 635 m 1
 -0 795 l 1
 1229 795 l 1
 1229 635 l 1
 0 635 l 1
EndSplineSet
Validated: 3073
EndChar

StartChar: dndblhorizform
Encoding: 9573 9573 560
Width: 1229
Flags: W
HStem: 443 160<0 375 535 695 855 1229>
VStem: 375 160<-615 443> 695 160<-615 443>
LayerCount: 2
Fore
SplineSet
0 443 m 1
 -0 603 l 1
 1229 603 l 1
 1229 443 l 1
 855 443 l 1
 855 -615 l 1
 695 -615 l 1
 695 443 l 1
 535 443 l 1
 535 -615 l 1
 375 -615 l 1
 375 443 l 1
 0 443 l 1
EndSplineSet
Validated: 3073
EndChar

StartChar: dbldnhorizform
Encoding: 9574 9574 561
Width: 1229
Flags: W
HStem: 283 160<0 375 855 1229> 635 160<0 1229>
VStem: 375 160<-615 283> 695 160<-615 283>
LayerCount: 2
Fore
SplineSet
0 635 m 1
 -0 795 l 1
 1229 795 l 1
 1229 635 l 1
 0 635 l 1
0 443 m 1
 535 443 l 1
 535 -615 l 1
 375 -615 l 1
 375 283 l 1
 -0 283 l 1
 0 443 l 1
855 283 m 1
 855 -615 l 1
 695 -615 l 1
 695 443 l 1
 1229 443 l 1
 1229 283 l 1
 855 283 l 1
EndSplineSet
Validated: 3073
EndChar

StartChar: uphorizdblform
Encoding: 9575 9575 562
Width: 1229
Flags: W
HStem: 283 160<0 1229> 635 160<0 535 695 1229>
VStem: 535 160<795 1775>
LayerCount: 2
Fore
SplineSet
0 635 m 1
 -0 795 l 1
 535 795 l 1
 535 1775 l 1
 695 1775 l 1
 695 795 l 1
 1229 795 l 1
 1229 635 l 1
 0 635 l 1
0 283 m 1
 -0 443 l 1
 1229 443 l 1
 1229 283 l 1
 0 283 l 1
EndSplineSet
Validated: 3073
EndChar

StartChar: updblhorizform
Encoding: 9576 9576 563
Width: 1229
Flags: W
HStem: 443 160<0 375 535 695 855 1229>
VStem: 375 160<603 1775> 695 160<603 1775>
LayerCount: 2
Fore
SplineSet
0 443 m 1
 -0 603 l 1
 375 603 l 1
 375 1775 l 1
 535 1775 l 1
 535 603 l 1
 695 603 l 1
 695 1775 l 1
 855 1775 l 1
 855 603 l 1
 1229 603 l 1
 1229 443 l 1
 0 443 l 1
EndSplineSet
Validated: 3073
EndChar

StartChar: dbluphorizform
Encoding: 9577 9577 564
Width: 1229
Flags: W
HStem: 283 160<0 1229> 635 160<0 375 855 1229>
VStem: 375 160<795 1775> 695 160<795 1775>
LayerCount: 2
Fore
SplineSet
375 795 m 1
 375 1775 l 1
 535 1775 l 1
 535 635 l 1
 -0 635 l 1
 0 795 l 1
 375 795 l 1
1229 635 m 1
 695 635 l 1
 695 1775 l 1
 855 1775 l 1
 855 795 l 1
 1229 795 l 1
 1229 635 l 1
0 283 m 1
 -0 443 l 1
 1229 443 l 1
 1229 283 l 1
 0 283 l 1
EndSplineSet
Validated: 3073
EndChar

StartChar: verthorizdblform
Encoding: 9578 9578 565
Width: 1229
Flags: W
HStem: 283 160<0 535 695 1229> 635 160<0 535 695 1229>
VStem: 535 160<-615 283 795 1775>
LayerCount: 2
Fore
SplineSet
695 -615 m 1
 535 -615 l 1
 535 283 l 1
 0 283 l 1
 -0 443 l 1
 1229 443 l 1
 1229 283 l 1
 695 283 l 1
 695 -615 l 1
0 635 m 1
 -0 795 l 1
 535 795 l 1
 535 1775 l 1
 695 1775 l 1
 695 795 l 1
 1229 795 l 1
 1229 635 l 1
 0 635 l 1
EndSplineSet
Validated: 3073
EndChar

StartChar: vertdblhorizform
Encoding: 9579 9579 566
Width: 1229
Flags: W
HStem: 443 160<0 375 855 1229>
VStem: 375 160<-615 443 603 1775> 695 160<-615 443 603 1775>
LayerCount: 2
Fore
SplineSet
0 443 m 1
 -0 603 l 1
 375 603 l 1
 375 1775 l 1
 535 1775 l 1
 535 -615 l 1
 375 -615 l 1
 375 443 l 1
 0 443 l 1
855 -615 m 1
 695 -615 l 1
 695 1775 l 1
 855 1775 l 1
 855 603 l 1
 1229 603 l 1
 1229 443 l 1
 855 443 l 1
 855 -615 l 1
EndSplineSet
Validated: 3073
EndChar

StartChar: dblverthorizform
Encoding: 9580 9580 567
Width: 1229
Flags: W
HStem: 283 160<0 375 855 1229> 635 160<0 375 855 1229>
VStem: 375 160<-615 283 795 1775> 695 160<-615 283 795 1775>
LayerCount: 2
Fore
SplineSet
375 795 m 1
 375 1775 l 1
 535 1775 l 1
 535 635 l 1
 -0 635 l 1
 0 795 l 1
 375 795 l 1
1229 635 m 1
 695 635 l 1
 695 1775 l 1
 855 1775 l 1
 855 795 l 1
 1229 795 l 1
 1229 635 l 1
0 443 m 1
 535 443 l 1
 535 -615 l 1
 375 -615 l 1
 375 283 l 1
 -0 283 l 1
 0 443 l 1
855 283 m 1
 855 -615 l 1
 695 -615 l 1
 695 443 l 1
 1229 443 l 1
 1229 283 l 1
 855 283 l 1
EndSplineSet
Validated: 3073
EndChar

StartChar: upblock
Encoding: 9600 9600 568
Width: 1229
Flags: W
HStem: 523 1252<0 1229>
VStem: -0 1229<523 1775>
LayerCount: 2
Fore
SplineSet
1229 523 m 1
 -0 523 l 1
 0 1775 l 1
 1229 1775 l 1
 1229 523 l 1
EndSplineSet
Validated: 3073
EndChar

StartChar: dnblock
Encoding: 9604 9604 569
Width: 1229
Flags: W
HStem: -615 1138<0 1229>
VStem: -0 1229<-615 523>
LayerCount: 2
Fore
SplineSet
1229 -615 m 1
 -0 -615 l 1
 -0 523 l 1
 1229 523 l 1
 1229 -615 l 1
EndSplineSet
Validated: 3073
EndChar

StartChar: block
Encoding: 9608 9608 570
Width: 1229
Flags: W
VStem: -0 1229<-615 1775>
LayerCount: 2
Fore
SplineSet
-0 -615 m 1
 0 1775 l 1
 1229 1775 l 1
 1229 -615 l 1
 -0 -615 l 1
EndSplineSet
Validated: 3073
EndChar

StartChar: lfblock
Encoding: 9612 9612 571
Width: 1229
Flags: W
VStem: -0 615<-615 1775>
LayerCount: 2
Fore
SplineSet
-0 -615 m 1
 0 1775 l 1
 615 1775 l 1
 615 -615 l 1
 -0 -615 l 1
EndSplineSet
Validated: 3073
EndChar

StartChar: rtblock
Encoding: 9616 9616 572
Width: 1229
Flags: W
VStem: 615 614<-615 1775>
LayerCount: 2
Fore
SplineSet
615 -615 m 1
 615 1775 l 1
 1229 1775 l 1
 1229 -615 l 1
 615 -615 l 1
EndSplineSet
Validated: 3073
EndChar

StartChar: shadelight
Encoding: 9617 9617 573
Width: 1229
Flags: W
HStem: -514 100<205 308 616 721 1026 1129> -315 100<0 103 410 514 823 924> -115 99<205 308 616 721 1026 1129> 83 100<0 103 410 514 823 924> 283 99<205 308 616 721 1026 1129> 482 99<0 103 410 514 823 924> 681 100<205 308 616 721 1026 1129> 881 99<0 103 410 514 823 924> 1080 99<205 308 616 721 1026 1129> 1278 100<0 103 410 514 823 924> 1477 100<205 308 616 721 1026 1129> 1677 98<0 103 410 514 823 924>
VStem: 0 103<-315 -215 83 183 482 581 881 980 1278 1378 1677 1775> 205 103<-514 -414 -115 -16 283 382 681 781 1080 1179 1477 1577> 410 104<-315 -215 83 183 482 581 881 980 1278 1378 1677 1775> 616 105<-514 -414 -115 -16 283 382 681 781 1080 1179 1477 1577> 823 101<-315 -215 83 183 482 581 881 980 1278 1378 1677 1775> 1026 103<-514 -414 -115 -16 283 382 681 781 1080 1179 1477 1577>
LayerCount: 2
Fore
SplineSet
0 1378 m 1
 103 1378 l 1
 103 1278 l 1
 0 1278 l 1
 0 1378 l 1
410 1378 m 1
 514 1378 l 1
 514 1278 l 1
 410 1278 l 1
 410 1378 l 1
823 1378 m 1
 924 1378 l 1
 924 1278 l 1
 823 1278 l 1
 823 1378 l 1
205 1179 m 1
 308 1179 l 1
 308 1080 l 1
 205 1080 l 1
 205 1179 l 1
616 1179 m 1
 721 1179 l 1
 721 1080 l 1
 616 1080 l 1
 616 1179 l 1
1026 1179 m 1
 1129 1179 l 1
 1129 1080 l 1
 1026 1080 l 1
 1026 1179 l 1
823 980 m 1
 924 980 l 1
 924 881 l 1
 823 881 l 1
 823 980 l 1
410 980 m 1
 514 980 l 1
 514 881 l 1
 410 881 l 1
 410 980 l 1
0 980 m 1
 103 980 l 1
 103 881 l 1
 0 881 l 1
 0 980 l 1
1026 781 m 1
 1129 781 l 1
 1129 681 l 1
 1026 681 l 1
 1026 781 l 1
616 781 m 1
 721 781 l 1
 721 681 l 1
 616 681 l 1
 616 781 l 1
205 781 m 1
 308 781 l 1
 308 681 l 1
 205 681 l 1
 205 781 l 1
0 581 m 1
 103 581 l 1
 103 482 l 1
 0 482 l 1
 0 581 l 1
410 581 m 1
 514 581 l 1
 514 482 l 1
 410 482 l 1
 410 581 l 1
823 581 m 1
 924 581 l 1
 924 482 l 1
 823 482 l 1
 823 581 l 1
1026 382 m 1
 1129 382 l 1
 1129 283 l 1
 1026 283 l 1
 1026 382 l 1
616 382 m 1
 721 382 l 1
 721 283 l 1
 616 283 l 1
 616 382 l 1
205 382 m 1
 308 382 l 1
 308 283 l 1
 205 283 l 1
 205 382 l 1
0 183 m 1
 103 183 l 1
 103 83 l 1
 0 83 l 1
 0 183 l 1
410 183 m 1
 514 183 l 1
 514 83 l 1
 410 83 l 1
 410 183 l 1
823 183 m 1
 924 183 l 1
 924 83 l 1
 823 83 l 1
 823 183 l 1
205 -16 m 1
 308 -16 l 1
 308 -115 l 1
 205 -115 l 1
 205 -16 l 1
616 -16 m 1
 721 -16 l 1
 721 -115 l 1
 616 -115 l 1
 616 -16 l 1
1026 -16 m 1
 1129 -16 l 1
 1129 -115 l 1
 1026 -115 l 1
 1026 -16 l 1
823 -215 m 1
 924 -215 l 1
 924 -315 l 1
 823 -315 l 1
 823 -215 l 1
410 -215 m 1
 514 -215 l 1
 514 -315 l 1
 410 -315 l 1
 410 -215 l 1
0 -215 m 1
 103 -215 l 1
 103 -315 l 1
 0 -315 l 1
 0 -215 l 1
205 -414 m 1
 308 -414 l 1
 308 -514 l 1
 205 -514 l 1
 205 -414 l 1
616 -414 m 1
 721 -414 l 1
 721 -514 l 1
 616 -514 l 1
 616 -414 l 1
1026 -414 m 1
 1129 -414 l 1
 1129 -514 l 1
 1026 -514 l 1
 1026 -414 l 1
205 1577 m 1
 308 1577 l 1
 308 1477 l 1
 205 1477 l 1
 205 1577 l 1
616 1577 m 1
 721 1577 l 1
 721 1477 l 1
 616 1477 l 1
 616 1577 l 1
1026 1577 m 1
 1129 1577 l 1
 1129 1477 l 1
 1026 1477 l 1
 1026 1577 l 1
0 1775 m 1
 103 1775 l 1
 103 1677 l 1
 0 1677 l 1
 0 1775 l 1
410 1775 m 1
 514 1775 l 1
 514 1677 l 1
 410 1677 l 1
 410 1775 l 1
823 1775 m 1
 924 1775 l 1
 924 1677 l 1
 823 1677 l 1
 823 1775 l 1
EndSplineSet
Validated: 3073
EndChar

StartChar: shademedium
Encoding: 9618 9618 574
Width: 1229
Flags: W
HStem: -514 100<0 103 205 308 410 513 616 720 823 923 1026 1129> -315 100<103 205 308 410 513 616 720 823 923 1026 1129 1229> -115 99<0 103 205 308 410 513 616 720 823 923 1026 1129> 83 100<103 205 308 410 513 616 720 823 923 1026 1129 1229> 283 99<0 103 205 308 410 513 616 720 823 923 1026 1129> 482 99<103 205 308 410 513 616 720 823 923 1026 1129 1229> 681 100<0 103 205 308 410 513 616 720 823 923 1026 1129> 881 99<103 205 308 410 513 616 720 823 923 1026 1129 1229> 1080 99<0 103 205 308 410 513 616 720 823 923 1026 1129> 1278 100<103 205 308 410 513 616 720 823 923 1026 1129 1229> 1477 100<0 103 205 308 410 513 616 720 823 923 1026 1129> 1677 98<103 205 308 410 513 616 720 823 923 1026 1129 1229>
VStem: 0 103<-514 -414 -115 -16 283 382 681 781 1080 1179 1477 1577> 103 102<-315 -215 83 183 482 581 881 980 1278 1378 1677 1775> 205 103<-514 -414 -115 -16 283 382 681 781 1080 1179 1477 1577> 308 102<-315 -215 83 183 482 581 881 980 1278 1378 1677 1775> 410 103<-514 -414 -115 -16 283 382 681 781 1080 1179 1477 1577> 513 103<-315 -215 83 183 482 581 881 980 1278 1378 1677 1775> 616 104<-514 -414 -115 -16 283 382 681 781 1080 1179 1477 1577> 720 103<-315 -215 83 183 482 581 881 980 1278 1378 1677 1775> 823 100<-514 -414 -115 -16 283 382 681 781 1080 1179 1477 1577> 923 103<-315 -215 83 183 482 581 881 980 1278 1378 1677 1775> 1026 103<-514 -414 -115 -16 283 382 681 781 1080 1179 1477 1577> 1129 100<-315 -215 83 183 482 581 881 980 1278 1378 1677 1775>
LayerCount: 2
Fore
SplineSet
103 1378 m 1
 205 1378 l 1
 205 1278 l 1
 103 1278 l 1
 103 1378 l 1
308 1378 m 1
 410 1378 l 1
 410 1278 l 1
 308 1278 l 1
 308 1378 l 1
513 1378 m 1
 616 1378 l 1
 616 1278 l 1
 513 1278 l 1
 513 1378 l 1
720 1378 m 1
 823 1378 l 1
 823 1278 l 1
 720 1278 l 1
 720 1378 l 1
923 1378 m 1
 1026 1378 l 1
 1026 1278 l 1
 923 1278 l 1
 923 1378 l 1
1129 1378 m 1
 1229 1378 l 1
 1229 1278 l 1
 1129 1278 l 1
 1129 1378 l 1
0 1179 m 1
 103 1179 l 1
 103 1080 l 1
 0 1080 l 1
 0 1179 l 1
205 1179 m 1
 308 1179 l 1
 308 1080 l 1
 205 1080 l 1
 205 1179 l 1
410 1179 m 1
 513 1179 l 1
 513 1080 l 1
 410 1080 l 1
 410 1179 l 1
616 1179 m 1
 720 1179 l 1
 720 1080 l 1
 616 1080 l 1
 616 1179 l 1
823 1179 m 1
 923 1179 l 1
 923 1080 l 1
 823 1080 l 1
 823 1179 l 1
1026 1179 m 1
 1129 1179 l 1
 1129 1080 l 1
 1026 1080 l 1
 1026 1179 l 1
103 980 m 1
 205 980 l 1
 205 881 l 1
 103 881 l 1
 103 980 l 1
308 980 m 1
 410 980 l 1
 410 881 l 1
 308 881 l 1
 308 980 l 1
513 980 m 1
 616 980 l 1
 616 881 l 1
 513 881 l 1
 513 980 l 1
720 980 m 1
 823 980 l 1
 823 881 l 1
 720 881 l 1
 720 980 l 1
923 980 m 1
 1026 980 l 1
 1026 881 l 1
 923 881 l 1
 923 980 l 1
1129 980 m 1
 1229 980 l 1
 1229 881 l 1
 1129 881 l 1
 1129 980 l 1
0 781 m 1
 103 781 l 1
 103 681 l 1
 0 681 l 1
 0 781 l 1
205 781 m 1
 308 781 l 1
 308 681 l 1
 205 681 l 1
 205 781 l 1
410 781 m 1
 513 781 l 1
 513 681 l 1
 410 681 l 1
 410 781 l 1
616 781 m 1
 720 781 l 1
 720 681 l 1
 616 681 l 1
 616 781 l 1
823 781 m 1
 923 781 l 1
 923 681 l 1
 823 681 l 1
 823 781 l 1
1026 781 m 1
 1129 781 l 1
 1129 681 l 1
 1026 681 l 1
 1026 781 l 1
103 581 m 1
 205 581 l 1
 205 482 l 1
 103 482 l 1
 103 581 l 1
308 581 m 1
 410 581 l 1
 410 482 l 1
 308 482 l 1
 308 581 l 1
513 581 m 1
 616 581 l 1
 616 482 l 1
 513 482 l 1
 513 581 l 1
720 581 m 1
 823 581 l 1
 823 482 l 1
 720 482 l 1
 720 581 l 1
923 581 m 1
 1026 581 l 1
 1026 482 l 1
 923 482 l 1
 923 581 l 1
1129 581 m 1
 1229 581 l 1
 1229 482 l 1
 1129 482 l 1
 1129 581 l 1
0 382 m 1
 103 382 l 1
 103 283 l 1
 0 283 l 1
 0 382 l 1
410 382 m 1
 513 382 l 1
 513 283 l 1
 410 283 l 1
 410 382 l 1
616 382 m 1
 720 382 l 1
 720 283 l 1
 616 283 l 1
 616 382 l 1
823 382 m 1
 923 382 l 1
 923 283 l 1
 823 283 l 1
 823 382 l 1
1026 382 m 1
 1129 382 l 1
 1129 283 l 1
 1026 283 l 1
 1026 382 l 1
205 382 m 1
 308 382 l 1
 308 283 l 1
 205 283 l 1
 205 382 l 1
1129 183 m 1
 1229 183 l 1
 1229 83 l 1
 1129 83 l 1
 1129 183 l 1
923 183 m 1
 1026 183 l 1
 1026 83 l 1
 923 83 l 1
 923 183 l 1
720 183 m 1
 823 183 l 1
 823 83 l 1
 720 83 l 1
 720 183 l 1
513 183 m 1
 616 183 l 1
 616 83 l 1
 513 83 l 1
 513 183 l 1
308 183 m 1
 410 183 l 1
 410 83 l 1
 308 83 l 1
 308 183 l 1
103 183 m 1
 205 183 l 1
 205 83 l 1
 103 83 l 1
 103 183 l 1
0 -16 m 1
 103 -16 l 1
 103 -115 l 1
 0 -115 l 1
 0 -16 l 1
205 -16 m 1
 308 -16 l 1
 308 -115 l 1
 205 -115 l 1
 205 -16 l 1
410 -16 m 1
 513 -16 l 1
 513 -115 l 1
 410 -115 l 1
 410 -16 l 1
616 -16 m 1
 720 -16 l 1
 720 -115 l 1
 616 -115 l 1
 616 -16 l 1
823 -16 m 1
 923 -16 l 1
 923 -115 l 1
 823 -115 l 1
 823 -16 l 1
1026 -16 m 1
 1129 -16 l 1
 1129 -115 l 1
 1026 -115 l 1
 1026 -16 l 1
1129 -215 m 1
 1229 -215 l 1
 1229 -315 l 1
 1129 -315 l 1
 1129 -215 l 1
923 -215 m 1
 1026 -215 l 1
 1026 -315 l 1
 923 -315 l 1
 923 -215 l 1
720 -215 m 1
 823 -215 l 1
 823 -315 l 1
 720 -315 l 1
 720 -215 l 1
513 -215 m 1
 616 -215 l 1
 616 -315 l 1
 513 -315 l 1
 513 -215 l 1
308 -215 m 1
 410 -215 l 1
 410 -315 l 1
 308 -315 l 1
 308 -215 l 1
103 -215 m 1
 205 -215 l 1
 205 -315 l 1
 103 -315 l 1
 103 -215 l 1
0 -414 m 1
 103 -414 l 1
 103 -514 l 1
 0 -514 l 1
 0 -414 l 1
205 -414 m 1
 308 -414 l 1
 308 -514 l 1
 205 -514 l 1
 205 -414 l 1
410 -414 m 1
 513 -414 l 1
 513 -514 l 1
 410 -514 l 1
 410 -414 l 1
616 -414 m 1
 720 -414 l 1
 720 -514 l 1
 616 -514 l 1
 616 -414 l 1
823 -414 m 1
 923 -414 l 1
 923 -514 l 1
 823 -514 l 1
 823 -414 l 1
1026 -414 m 1
 1129 -414 l 1
 1129 -514 l 1
 1026 -514 l 1
 1026 -414 l 1
0 1577 m 1
 103 1577 l 1
 103 1477 l 1
 0 1477 l 1
 0 1577 l 1
205 1577 m 1
 308 1577 l 1
 308 1477 l 1
 205 1477 l 1
 205 1577 l 1
410 1577 m 1
 513 1577 l 1
 513 1477 l 1
 410 1477 l 1
 410 1577 l 1
616 1577 m 1
 720 1577 l 1
 720 1477 l 1
 616 1477 l 1
 616 1577 l 1
823 1577 m 1
 923 1577 l 1
 923 1477 l 1
 823 1477 l 1
 823 1577 l 1
1026 1577 m 1
 1129 1577 l 1
 1129 1477 l 1
 1026 1477 l 1
 1026 1577 l 1
103 1775 m 1
 205 1775 l 1
 205 1677 l 1
 103 1677 l 1
 103 1775 l 1
308 1775 m 1
 410 1775 l 1
 410 1677 l 1
 308 1677 l 1
 308 1775 l 1
513 1775 m 1
 616 1775 l 1
 616 1677 l 1
 513 1677 l 1
 513 1775 l 1
720 1775 m 1
 823 1775 l 1
 823 1677 l 1
 720 1677 l 1
 720 1775 l 1
923 1775 m 1
 1026 1775 l 1
 1026 1677 l 1
 923 1677 l 1
 923 1775 l 1
1129 1775 m 1
 1229 1775 l 1
 1229 1677 l 1
 1129 1677 l 1
 1129 1775 l 1
EndSplineSet
Validated: 3073
EndChar

StartChar: shadedark
Encoding: 9619 9619 575
Width: 1229
Flags: W
HStem: -615 300<0 103 205 308 410 513 616 720 823 923 1026 1129> -615 101<103 205 308 410 513 616 720 823 923 1026 1129 1229> -414 299<103 205 308 410 513 616 720 823 923 1026 1129 1229> -215 299<0 103 205 308 410 513 616 720 823 923 1026 1129> -16 299<103 205 308 410 513 616 720 823 923 1026 1129 1229> 183 299<0 103 205 308 410 513 616 720 823 923 1026 1129> 382 299<103 205 308 410 513 616 720 823 923 1026 1129 1229> 581 299<0 103 205 308 410 513 616 720 823 923 1026 1129> 781 299<103 205 308 410 513 616 720 823 923 1026 1129 1229> 980 299<0 103 205 308 410 513 616 720 823 923 1026 1129> 1179 299<103 205 308 410 513 616 720 823 923 1026 1129 1229> 1378 299<0 103 205 308 410 513 616 720 823 923 1026 1129> 1577 198<103 205 308 410 513 616 720 823 923 1026 1129 1229>
VStem: 0 103<-514 -414 -115 -16 283 382 681 781 1080 1179 1478 1577> 103 102<-315 -215 84 183 482 581 881 980 1279 1378 1677 1775> 205 103<-514 -414 -115 -16 283 382 681 781 1080 1179 1478 1577> 308 102<-315 -215 84 183 482 581 880 980 1279 1378 1677 1775> 410 103<-514 -414 -115 -16 283 382 681 781 1080 1179 1478 1577> 513 103<-315 -215 84 183 482 581 880 980 1279 1378 1677 1775> 616 104<-514 -414 -115 -16 283 382 681 781 1080 1179 1478 1577> 720 103<-315 -215 84 183 482 581 880 980 1279 1378 1677 1775> 823 100<-514 -414 -115 -16 283 382 681 781 1080 1179 1478 1577> 923 103<-315 -215 84 183 482 581 880 980 1279 1378 1677 1775> 1026 103<-514 -414 -115 -16 283 382 681 781 1080 1179 1478 1577> 1129 100<-315 -215 84 183 482 581 880 980 1279 1378 1677 1775>
LayerCount: 2
Fore
SplineSet
1229 1577 m 1x000fff80
 1129 1577 l 1
 1129 1478 l 1
 1229 1478 l 1
 1229 1179 l 1
 1129 1179 l 1
 1129 1080 l 1
 1229 1080 l 1
 1229 781 l 1
 1129 781 l 1
 1129 681 l 1
 1229 681 l 1
 1229 382 l 1
 1129 382 l 1
 1129 283 l 1
 1229 283 l 1
 1229 -16 l 1
 1129 -16 l 1
 1129 -115 l 1
 1229 -115 l 1
 1229 -414 l 1
 1129 -414 l 1
 1129 -514 l 1
 1229 -514 l 1
 1229 -615 l 1x6aafff80
 0 -615 l 1
 0 -315 l 1
 103 -315 l 1
 103 -215 l 1
 0 -215 l 1
 0 83 l 1
 103 83 l 1
 103 183 l 1
 0 183 l 1
 0 482 l 1
 103 482 l 1
 103 581 l 1
 0 581 l 1
 0 881 l 1
 103 881 l 1
 103 980 l 1
 0 980 l 1
 0 1279 l 1
 103 1279 l 1
 103 1378 l 1
 0 1378 l 1
 0 1677 l 1
 103 1677 l 1x9557ff80
 103 1775 l 1
 205 1775 l 1x000fff80
 205 1677 l 1
 308 1677 l 1x0017ff80
 308 1775 l 1
 410 1775 l 1x000fff80
 410 1677 l 1
 513 1677 l 1x0017ff80
 513 1775 l 1
 616 1775 l 1x000fff80
 616 1677 l 1
 720 1677 l 1x0017ff80
 720 1775 l 1
 823 1775 l 1x000fff80
 823 1677 l 1
 923 1677 l 1x0017ff80
 923 1775 l 1
 1026 1775 l 1x000fff80
 1026 1677 l 1
 1129 1677 l 1x0017ff80
 1129 1775 l 1
 1229 1775 l 1
 1229 1577 l 1x000fff80
103 1179 m 1
 103 1080 l 1
 205 1080 l 1
 205 1179 l 1
 103 1179 l 1
308 1179 m 1
 308 1080 l 1
 410 1080 l 1
 410 1179 l 1
 308 1179 l 1
513 1179 m 1
 513 1080 l 1
 616 1080 l 1
 616 1179 l 1
 513 1179 l 1
720 1179 m 1
 720 1080 l 1
 823 1080 l 1
 823 1179 l 1
 720 1179 l 1
923 1179 m 1
 923 1080 l 1
 1026 1080 l 1
 1026 1179 l 1
 923 1179 l 1
1129 980 m 1x0147ff80
 1026 980 l 1
 1026 880 l 1
 1129 880 l 1
 1129 980 l 1x0147ff80
923 980 m 1
 823 980 l 1
 823 880 l 1
 923 880 l 1
 923 980 l 1
720 980 m 1
 616 980 l 1
 616 880 l 1
 720 880 l 1
 720 980 l 1
513 980 m 1
 410 980 l 1
 410 880 l 1
 513 880 l 1
 513 980 l 1
308 980 m 1
 205 980 l 1
 205 880 l 1
 308 880 l 1
 308 980 l 1
103 781 m 1x0287ff80
 103 681 l 1
 205 681 l 1
 205 781 l 1
 103 781 l 1x0287ff80
308 781 m 1
 308 681 l 1
 410 681 l 1
 410 781 l 1
 308 781 l 1
513 781 m 1
 513 681 l 1
 616 681 l 1
 616 781 l 1
 513 781 l 1
720 781 m 1
 720 681 l 1
 823 681 l 1
 823 781 l 1
 720 781 l 1
923 781 m 1
 923 681 l 1
 1026 681 l 1
 1026 781 l 1
 923 781 l 1
308 581 m 1x0507ff80
 205 581 l 1
 205 482 l 1
 308 482 l 1
 308 581 l 1x0507ff80
410 581 m 1
 410 482 l 1
 513 482 l 1
 513 581 l 1
 410 581 l 1
616 581 m 1
 616 482 l 1
 720 482 l 1
 720 581 l 1
 616 581 l 1
823 581 m 1
 823 482 l 1
 923 482 l 1
 923 581 l 1
 823 581 l 1
1026 581 m 1
 1026 482 l 1
 1129 482 l 1
 1129 581 l 1
 1026 581 l 1
103 382 m 1x0a07ff80
 103 283 l 1
 205 283 l 1
 205 382 l 1
 103 382 l 1x0a07ff80
513 382 m 1
 513 283 l 1
 616 283 l 1
 616 382 l 1
 513 382 l 1
410 283 m 1
 410 382 l 1
 308 382 l 1
 308 283 l 1
 410 283 l 1
720 382 m 1
 720 283 l 1
 823 283 l 1
 823 382 l 1
 720 382 l 1
923 382 m 1
 923 283 l 1
 1026 283 l 1
 1026 382 l 1
 923 382 l 1
1129 84 m 1x1407ff80
 1129 183 l 1
 1026 183 l 1
 1026 84 l 1
 1129 84 l 1x1407ff80
923 84 m 1
 923 183 l 1
 823 183 l 1
 823 84 l 1
 923 84 l 1
720 84 m 1
 720 183 l 1
 616 183 l 1
 616 84 l 1
 720 84 l 1
513 84 m 1
 513 183 l 1
 410 183 l 1
 410 84 l 1
 513 84 l 1
308 84 m 1
 308 183 l 1
 205 183 l 1
 205 84 l 1
 308 84 l 1
103 -16 m 1x2807ff80
 103 -115 l 1
 205 -115 l 1
 205 -16 l 1
 103 -16 l 1x2807ff80
308 -16 m 1
 308 -115 l 1
 410 -115 l 1
 410 -16 l 1
 308 -16 l 1
513 -16 m 1
 513 -115 l 1
 616 -115 l 1
 616 -16 l 1
 513 -16 l 1
720 -16 m 1
 720 -115 l 1
 823 -115 l 1
 823 -16 l 1
 720 -16 l 1
923 -16 m 1
 923 -115 l 1
 1026 -115 l 1
 1026 -16 l 1
 923 -16 l 1
1129 -315 m 1x9007ff80
 1129 -215 l 1
 1026 -215 l 1
 1026 -315 l 1
 1129 -315 l 1x9007ff80
923 -315 m 1
 923 -215 l 1
 823 -215 l 1
 823 -315 l 1
 923 -315 l 1
720 -315 m 1
 720 -215 l 1
 616 -215 l 1
 616 -315 l 1
 720 -315 l 1
513 -315 m 1
 513 -215 l 1
 410 -215 l 1
 410 -315 l 1
 513 -315 l 1
308 -315 m 1
 308 -215 l 1
 205 -215 l 1
 205 -315 l 1
 308 -315 l 1
103 -414 m 1x6007ff80
 103 -514 l 1
 205 -514 l 1
 205 -414 l 1
 103 -414 l 1x6007ff80
308 -414 m 1
 308 -514 l 1
 410 -514 l 1
 410 -414 l 1
 308 -414 l 1
513 -414 m 1
 513 -514 l 1
 616 -514 l 1
 616 -414 l 1
 513 -414 l 1
720 -414 m 1
 720 -514 l 1
 823 -514 l 1
 823 -414 l 1
 720 -414 l 1
923 -414 m 1
 923 -514 l 1
 1026 -514 l 1
 1026 -414 l 1
 923 -414 l 1
1129 1378 m 1x0057ff80
 1026 1378 l 1
 1026 1279 l 1
 1129 1279 l 1
 1129 1378 l 1x0057ff80
923 1378 m 1
 823 1378 l 1
 823 1279 l 1
 923 1279 l 1
 923 1378 l 1
720 1378 m 1
 616 1378 l 1
 616 1279 l 1
 720 1279 l 1
 720 1378 l 1
513 1378 m 1
 410 1378 l 1
 410 1279 l 1
 513 1279 l 1
 513 1378 l 1
308 1378 m 1
 205 1378 l 1
 205 1279 l 1
 308 1279 l 1
 308 1378 l 1
1026 1577 m 1x002fff80
 923 1577 l 1
 923 1478 l 1
 1026 1478 l 1
 1026 1577 l 1x002fff80
823 1577 m 1
 720 1577 l 1
 720 1478 l 1
 823 1478 l 1
 823 1577 l 1
616 1577 m 1
 513 1577 l 1
 513 1478 l 1
 616 1478 l 1
 616 1577 l 1
410 1577 m 1
 308 1577 l 1
 308 1478 l 1
 410 1478 l 1
 410 1577 l 1
205 1577 m 1
 103 1577 l 1
 103 1478 l 1
 205 1478 l 1
 205 1577 l 1
EndSplineSet
Validated: 3073
EndChar

StartChar: blacksquare
Encoding: 9632 9632 576
Width: 1229
Flags: W
HStem: 113 1229<0 1229>
VStem: 0 1229<113 1342>
LayerCount: 2
Fore
SplineSet
0 1342 m 1
 1229 1342 l 1
 1229 113 l 1
 0 113 l 1
 0 1342 l 1
EndSplineSet
Validated: 3073
EndChar

StartChar: whitesquare
Encoding: 9633 9633 577
Width: 1229
Flags: W
HStem: 113 299<251 979> 1086 256<251 979>
VStem: 0 251<412 1086> 979 250<412 1086>
LayerCount: 2
Fore
SplineSet
0 1342 m 1
 1229 1342 l 1
 1229 113 l 1
 0 113 l 1
 0 1342 l 1
251 1086 m 1
 251 412 l 1
 979 412 l 1
 979 1086 l 1
 251 1086 l 1
EndSplineSet
Validated: 3073
EndChar

StartChar: blacksmallsquare
Encoding: 9642 9642 578
Width: 1229
Flags: W
HStem: 534 630<300 930>
VStem: 300 630<534 1164>
LayerCount: 2
Fore
SplineSet
930 534 m 1
 300 534 l 1
 300 1164 l 1
 930 1164 l 1
 930 534 l 1
EndSplineSet
Validated: 3073
EndChar

StartChar: whitesmallsquare
Encoding: 9643 9643 579
Width: 1229
Flags: W
HStem: 534 152<457 773> 1012 152<457 773>
VStem: 300 157<686 1012> 773 157<686 1012>
LayerCount: 2
Fore
SplineSet
930 534 m 1
 300 534 l 1
 300 1164 l 1
 930 1164 l 1
 930 534 l 1
773 686 m 1
 773 1012 l 1
 457 1012 l 1
 457 686 l 1
 773 686 l 1
EndSplineSet
Validated: 3073
EndChar

StartChar: blackrectangle
Encoding: 9644 9644 580
Width: 1229
Flags: W
HStem: 528 307<0 1229>
LayerCount: 2
Fore
SplineSet
0 835 m 1
 1229 835 l 1
 1229 528 l 1
 0 528 l 1
 0 835 l 1
EndSplineSet
Validated: 3073
EndChar

StartChar: triagup
Encoding: 9650 9650 581
Width: 1229
Flags: W
LayerCount: 2
Fore
SplineSet
0 110 m 1
 614 1262 l 1
 1229 110 l 1
 0 110 l 1
EndSplineSet
Validated: 3073
EndChar

StartChar: triagrt
Encoding: 9658 9658 582
Width: 1229
Flags: W
LayerCount: 2
Fore
SplineSet
85 -83 m 1
 83 1191 l 1
 1148 532 l 1
 85 -83 l 1
EndSplineSet
Validated: 3073
EndChar

StartChar: triagdn
Encoding: 9660 9660 583
Width: 1229
Flags: W
LayerCount: 2
Fore
SplineSet
1229 1262 m 1
 617 110 l 1
 0 1262 l 1
 1229 1262 l 1
EndSplineSet
Validated: 3073
EndChar

StartChar: triaglf
Encoding: 9668 9668 584
Width: 1229
Flags: W
LayerCount: 2
Fore
SplineSet
84 532 m 1
 1147 1192 l 1
 1147 -83 l 1
 84 532 l 1
EndSplineSet
Validated: 3073
EndChar

StartChar: lozenge
Encoding: 9674 9674 585
Width: 1229
Flags: W
LayerCount: 2
Fore
SplineSet
669 1694 m 1
 1113 985 l 1
 669 204 l 1
 549 204 l 1
 119 985 l 1
 549 1694 l 1
 669 1694 l 1
612 1375 m 1
 349 988 l 1
 612 519 l 1
 877 988 l 1
 612 1375 l 1
EndSplineSet
Validated: 3073
EndChar

StartChar: whitecircle
Encoding: 9675 9675 586
Width: 1229
Flags: W
HStem: 294 202<468.855 761.329> 1047 201<465.808 761.631>
VStem: 140 200<624.413 919.107> 891 200<623.521 916.83>
LayerCount: 2
Fore
SplineSet
616 1248 m 3
 885 1248 1091 1007 1091 771 c 3
 1091 525 879 294 616 294 c 3
 345 294 140 530 140 771 c 3
 140 998 335 1248 616 1248 c 3
616 1047 m 3
 456 1047 340 919 340 771 c 3
 340 605 474 496 616 496 c 259
 770 496 891 618 891 771 c 3
 891 912 779 1047 616 1047 c 3
EndSplineSet
Validated: 3073
EndChar

StartChar: blackcircle
Encoding: 9679 9679 587
Width: 1229
Flags: W
HStem: 253 1036<433.998 801.172>
VStem: 140 951<568.174 971.247>
LayerCount: 2
Fore
SplineSet
616 1289 m 0
 885 1289 1091 1027 1091 771 c 0
 1091 504 879 253 616 253 c 0
 345 253 140 509 140 771 c 0
 140 1018 335 1289 616 1289 c 0
EndSplineSet
Validated: 3073
EndChar

StartChar: bulletinverse
Encoding: 9688 9688 588
Width: 1229
Flags: W
HStem: 83 353<482.923 744.623> 873 353<485.388 745.912>
VStem: 85 312<524.494 787.201> 833 311<522.879 785.482>
LayerCount: 2
Fore
SplineSet
85 83 m 1
 85 1226 l 1
 1144 1226 l 1
 1144 83 l 1
 85 83 l 1
614 873 m 256
 497 873 397 780 397 654 c 0
 397 526 501 436 614 436 c 0
 734 436 833 532 833 654 c 0
 833 776 737 873 614 873 c 256
EndSplineSet
Validated: 3073
EndChar

StartChar: whitecircleinverse
Encoding: 9689 9689 589
Width: 1229
Flags: W
HStem: 105 148<405.193 825.948> 496 551<470.199 763.654> 1289 105<407.771 825.948>
VStem: 0 141<537.373 1002.58> 341 550<619.806 918.865> 1091 138<541.296 999.961>
LayerCount: 2
Fore
SplineSet
0 105 m 1
 0 1394 l 1
 1229 1394 l 1
 1229 105 l 1
 0 105 l 1
616 1289 m 3
 324 1289 141 1074 141 770 c 3
 141 465 318 253 616 253 c 3
 912 253 1091 474 1091 770 c 3
 1091 1068 912 1289 616 1289 c 3
617 1047 m 3
 770 1047 891 922 891 770 c 3
 891 613 766 496 617 496 c 3
 466 496 341 613 341 770 c 3
 341 928 469 1047 617 1047 c 3
EndSplineSet
Validated: 3073
EndChar

StartChar: whitebullet
Encoding: 9702 9702 590
Width: 1229
Flags: W
HStem: 542 151<507.206 723.272> 1007 149<507.006 723.618>
VStem: 308 150<740.708 958.376> 773 149<743.509 957.403>
LayerCount: 2
Fore
SplineSet
922 850 m 0
 922 666 774 542 614 542 c 256
 445 542 308 677 308 850 c 0
 308 1020 444 1156 614 1156 c 0
 789 1156 922 1019 922 850 c 0
773 850 m 0
 773 940 699 1007 614 1007 c 256
 533 1007 458 944 458 850 c 0
 458 755 533 693 614 693 c 256
 702 693 773 762 773 850 c 0
EndSplineSet
Validated: 3073
EndChar

StartChar: smileface
Encoding: 9786 9786 591
Width: 1229
Flags: W
HStem: 124 168<439.58 785.366> 452 72<496.41 731.857> 811 152<347.885 484.01 746.193 883.089> 1268 155<436.441 787.383>
VStem: 0 171<575.184 977.241> 340 152<818.876 956.017> 739 151<818.058 956.328> 1060 168<575.257 978.266>
LayerCount: 2
Fore
SplineSet
1228 779 m 3
 1228 437 960 124 614 124 c 3
 270 124 0 440 0 779 c 3
 0 1185 240 1423 614 1423 c 3
 1005 1423 1228 1146 1228 779 c 3
1060 779 m 3
 1060 1028 866 1268 614 1268 c 3
 364 1268 171 1027 171 779 c 3
 171 521 377 292 614 292 c 3
 857 292 1060 524 1060 779 c 3
492 889 m 259
 492 847 458 811 414 811 c 259
 372 811 340 849 340 889 c 259
 340 927 370 963 414 963 c 259
 460 963 492 928 492 889 c 259
890 889 m 259
 890 847 859 811 817 811 c 259
 771 811 739 847 739 889 c 259
 739 929 770 963 817 963 c 259
 859 963 890 929 890 889 c 259
374 612 m 1
 426 641 l 1
 469 564 532 524 614 524 c 259
 698 524 761 564 803 641 c 1
 856 612 l 1
 801 505 720 452 614 452 c 3
 485 452 414 536 374 612 c 1
EndSplineSet
Validated: 3073
EndChar

StartChar: invsmileface
Encoding: 9787 9787 592
Width: 1229
Flags: W
HStem: 124 270<457.299 771.533> 985 409<309 928.5>
VStem: 0 302<609.5 972.714> 458 315<836.876 976.783> 928 300<608 977.665>
LayerCount: 2
Fore
SplineSet
1228 779 m 0
 1228 437 960 124 614 124 c 0
 270 124 0 440 0 779 c 0
 0 1135 284 1394 614 1394 c 0
 960 1394 1228 1122 1228 779 c 0
458 907 m 256
 458 947 425 985 380 985 c 256
 334 985 302 946 302 907 c 256
 302 867 335 829 380 829 c 256
 424 829 458 865 458 907 c 256
928 907 m 256
 928 948 897 985 851 985 c 256
 805 985 773 948 773 907 c 256
 773 865 806 829 851 829 c 256
 896 829 928 865 928 907 c 256
332 582 m 1
 378 493 462 394 614 394 c 0
 768 394 850 492 898 582 c 1
 837 617 l 1
 786 525 713 478 614 478 c 256
 517 478 444 525 393 617 c 1
 332 582 l 1
EndSplineSet
Validated: 3073
EndChar

StartChar: compass
Encoding: 9788 9788 593
Width: 1229
Flags: W
HStem: 603 55<0 217 1015 1229> 946 80<649 765.722>
VStem: 217 81<658 782.415> 582 67<78 238.515 1026 1222> 930 85<656 787.294>
LayerCount: 2
Fore
SplineSet
582 1222 m 1
 649 1222 l 1
 649 1026 l 1
 741 1026 809 989 873 945 c 1
 1060 1110 l 1
 1105 1068 l 1
 921 902 l 1
 979 833 1015 725 1015 656 c 1
 1229 656 l 1
 1229 603 l 1
 1015 603 l 1
 1004 531 975 423 922 364 c 1
 1105 192 l 1
 1058 154 l 1
 873 318 l 1
 798 268 742 244 649 235 c 1
 649 78 l 1
 582 78 l 1
 582 235 l 1
 498 246 425 273 359 315 c 1
 171 155 l 1
 127 194 l 1
 310 361 l 1
 257 422 227 528 217 603 c 1
 0 603 l 1
 0 658 l 1
 217 658 l 1
 217 736 255 842 309 900 c 1
 127 1067 l 1
 167 1111 l 1
 358 946 l 1
 434 994 510 1019 582 1026 c 1
 582 1222 l 1
614 946 m 256
 432 946 298 801 298 629 c 0
 298 453 434 312 614 312 c 256
 796 312 930 457 930 629 c 0
 930 807 791 946 614 946 c 256
EndSplineSet
Validated: 3073
EndChar

StartChar: female
Encoding: 9792 9792 594
Width: 1229
Flags: W
HStem: 458 92<235 569 666 996> 770 109<473.03 569 666 759.957> 1426 110<470.923 760.129>
VStem: 245 105<1002.66 1299.99> 569 97<65 458 550 777.615> 882 106<1002.95 1305.35>
LayerCount: 2
Fore
SplineSet
569 770 m 1
 383 797 245 952 245 1149 c 0
 245 1382 424 1536 617 1536 c 0
 811 1536 988 1380 988 1149 c 0
 988 939 839 793 666 770 c 1
 666 550 l 1
 996 550 l 1
 996 458 l 1
 666 458 l 1
 666 65 l 1
 569 65 l 1
 569 458 l 1
 235 458 l 1
 235 550 l 1
 569 550 l 1
 569 770 l 1
616 1426 m 0
 469 1426 350 1306 350 1153 c 256
 350 996 470 879 616 879 c 256
 758 879 882 993 882 1153 c 256
 882 1312 760 1426 616 1426 c 0
EndSplineSet
Validated: 3073
EndChar

StartChar: male
Encoding: 9794 9794 595
Width: 1229
Flags: W
HStem: 327 107<289.885 580.613> 1001 110<284.457 581.549> 1040 21G<1140.5 1166.96>
VStem: 57 101<567.303 873.211> 709 100<563.533 874.885>
LayerCount: 2
Fore
SplineSet
633 1054 m 1xd8
 968 1359 l 1
 898 1435 689 1509 689 1515 c 1
 717 1547 l 9
 887 1547 1153 1547 1153 1547 c 0
 1175 1528 l 0
 1175 1528 1175 1247 1175 1067 c 273
 1144 1040 l 1xb8
 1137 1040 1060 1227 1028 1296 c 1
 701 997 l 1
 773 925 809 831 809 731 c 0
 809 505 638 327 432 327 c 256
 217 327 57 509 57 714 c 0
 57 927 220 1111 434 1111 c 0
 496 1111 561 1091 633 1054 c 1xd8
434 1001 m 0xd8
 279 1001 158 877 158 718 c 256
 158 554 289 434 434 434 c 256
 576 434 709 545 709 718 c 0
 709 885 580 1001 434 1001 c 0xd8
EndSplineSet
Validated: 3073
EndChar

StartChar: spade
Encoding: 9824 9824 596
Width: 1229
Flags: W
HStem: 161 37<225 352.978 893.198 1007>
VStem: 609 18<554.89 672>
LayerCount: 2
Fore
SplineSet
616 1440 m 1
 710 1047 1103 984 1103 704 c 0
 1103 572 1002 480 883 480 c 0
 779 480 694 544 627 672 c 1
 627 326 818 198 1007 198 c 1
 1012 161 l 1
 217 161 l 1
 225 198 l 1
 533 198 609 446 609 672 c 1
 546 536 452 480 348 480 c 0
 228 480 127 577 127 699 c 0
 127 995 525 1027 616 1440 c 1
EndSplineSet
Validated: 3073
EndChar

